G04 Layer_Color=255*
%FSLAX25Y25*%
%MOIN*%
G70*
G01*
G75*
%ADD40R,0.05905X0.05905*%
%ADD41C,0.05905*%
%ADD42C,0.02362*%
%ADD43R,0.05905X0.05905*%
D40*
X186480Y29800D02*
D03*
X15480Y51800D02*
D03*
X7480Y177800D02*
D03*
D41*
X176480Y29800D02*
D03*
X186480Y39800D02*
D03*
X176480D02*
D03*
X186480Y49800D02*
D03*
X176480D02*
D03*
X186480Y59800D02*
D03*
X176480D02*
D03*
X48480Y30800D02*
D03*
X38480D02*
D03*
X28480D02*
D03*
X48480Y9800D02*
D03*
X38480D02*
D03*
X28480D02*
D03*
X95480D02*
D03*
X85480D02*
D03*
X75480D02*
D03*
X52480Y138800D02*
D03*
X5480Y141800D02*
D03*
X15480D02*
D03*
X5480Y131800D02*
D03*
X15480D02*
D03*
X5480Y121800D02*
D03*
X15480D02*
D03*
X5480Y111800D02*
D03*
X15480D02*
D03*
X5480Y101800D02*
D03*
X15480D02*
D03*
X5480Y91800D02*
D03*
X15480D02*
D03*
X5480Y81800D02*
D03*
X15480D02*
D03*
X5480Y71800D02*
D03*
X15480D02*
D03*
X5480Y61800D02*
D03*
X15480D02*
D03*
X5480Y51800D02*
D03*
X7480Y167800D02*
D03*
X103480Y174800D02*
D03*
D42*
X178216Y174760D02*
D03*
Y157438D02*
D03*
D43*
X58480Y30800D02*
D03*
Y9800D02*
D03*
X105480D02*
D03*
X62480Y138800D02*
D03*
X113480Y174800D02*
D03*
M02*
