G04 Layer_Physical_Order=1*
G04 Layer_Color=255*
%FSLAX25Y25*%
%MOIN*%
G70*
G01*
G75*
%ADD10R,0.04134X0.02362*%
%ADD11R,0.04803X0.03583*%
%ADD12R,0.05512X0.04134*%
%ADD13R,0.05512X0.03740*%
%ADD14R,0.03150X0.03543*%
%ADD15R,0.04134X0.05512*%
G04:AMPARAMS|DCode=16|XSize=85mil|YSize=70.87mil|CornerRadius=0mil|HoleSize=0mil|Usage=FLASHONLY|Rotation=45.000|XOffset=0mil|YOffset=0mil|HoleType=Round|Shape=Rectangle|*
%AMROTATEDRECTD16*
4,1,4,-0.00500,-0.05511,-0.05511,-0.00500,0.00500,0.05511,0.05511,0.00500,-0.00500,-0.05511,0.0*
%
%ADD16ROTATEDRECTD16*%

%ADD17R,0.05905X0.09055*%
%ADD18R,0.04882X0.03150*%
%ADD19R,0.09842X0.03937*%
%ADD20R,0.08661X0.04528*%
%ADD21R,0.04528X0.05905*%
%ADD22R,0.09842X0.07874*%
%ADD23R,0.09055X0.01968*%
%ADD24R,0.03740X0.05512*%
%ADD25R,0.05512X0.03543*%
%ADD26R,0.02362X0.03543*%
%ADD27R,0.03543X0.02559*%
G04:AMPARAMS|DCode=28|XSize=21.65mil|YSize=64.96mil|CornerRadius=0mil|HoleSize=0mil|Usage=FLASHONLY|Rotation=225.000|XOffset=0mil|YOffset=0mil|HoleType=Round|Shape=Round|*
%AMOVALD28*
21,1,0.04331,0.02165,0.00000,0.00000,315.0*
1,1,0.02165,-0.01531,0.01531*
1,1,0.02165,0.01531,-0.01531*
%
%ADD28OVALD28*%

G04:AMPARAMS|DCode=29|XSize=21.65mil|YSize=64.96mil|CornerRadius=0mil|HoleSize=0mil|Usage=FLASHONLY|Rotation=135.000|XOffset=0mil|YOffset=0mil|HoleType=Round|Shape=Round|*
%AMOVALD29*
21,1,0.04331,0.02165,0.00000,0.00000,225.0*
1,1,0.02165,0.01531,0.01531*
1,1,0.02165,-0.01531,-0.01531*
%
%ADD29OVALD29*%

%ADD30R,0.09055X0.05512*%
%ADD31R,0.11500X0.05512*%
%ADD32R,0.03583X0.04803*%
%ADD33R,0.05905X0.05118*%
%ADD34R,0.05118X0.05905*%
G04:AMPARAMS|DCode=35|XSize=59.05mil|YSize=51.18mil|CornerRadius=0mil|HoleSize=0mil|Usage=FLASHONLY|Rotation=225.000|XOffset=0mil|YOffset=0mil|HoleType=Round|Shape=Rectangle|*
%AMROTATEDRECTD35*
4,1,4,0.00278,0.03897,0.03897,0.00278,-0.00278,-0.03897,-0.03897,-0.00278,0.00278,0.03897,0.0*
%
%ADD35ROTATEDRECTD35*%

%ADD36R,0.04331X0.02559*%
%ADD37C,0.00800*%
%ADD38C,0.01000*%
%ADD39C,0.02000*%
%ADD40R,0.05905X0.05905*%
%ADD41C,0.05905*%
%ADD42C,0.02362*%
%ADD43R,0.05905X0.05905*%
%ADD44C,0.02756*%
G36*
X196025Y196660D02*
X196026Y188741D01*
X195526Y188356D01*
X190527D01*
Y183619D01*
Y178882D01*
X195527D01*
X195748Y178882D01*
X196027Y178497D01*
X196028Y153700D01*
X195528Y153316D01*
X190527D01*
Y148579D01*
Y143842D01*
X195529D01*
X195748Y143842D01*
X196029Y143459D01*
X196040Y354D01*
X195686Y0D01*
X10D01*
X10Y196660D01*
X196025Y196660D01*
D02*
G37*
%LPC*%
G36*
X155480Y138985D02*
X155138Y138958D01*
X154805Y138878D01*
X154488Y138747D01*
X154196Y138567D01*
X153935Y138345D01*
X153713Y138084D01*
X153533Y137792D01*
X153402Y137475D01*
X153322Y137142D01*
X153295Y136800D01*
X153322Y136458D01*
X153402Y136125D01*
X153533Y135808D01*
X153671Y135583D01*
Y129549D01*
X142201Y118079D01*
X141976Y117805D01*
X141809Y117492D01*
X141706Y117153D01*
X141671Y116800D01*
Y89017D01*
X141533Y88792D01*
X141402Y88475D01*
X141322Y88142D01*
X141295Y87800D01*
X141322Y87458D01*
X141402Y87125D01*
X141533Y86808D01*
X141713Y86516D01*
X141935Y86255D01*
X142196Y86033D01*
X142488Y85853D01*
X142805Y85722D01*
X143138Y85642D01*
X143480Y85615D01*
X143822Y85642D01*
X144155Y85722D01*
X144472Y85853D01*
X144764Y86033D01*
X145025Y86255D01*
X145247Y86516D01*
X145427Y86808D01*
X145558Y87125D01*
X145638Y87458D01*
X145665Y87800D01*
X145638Y88142D01*
X145558Y88475D01*
X145427Y88792D01*
X145289Y89017D01*
Y116051D01*
X156759Y127521D01*
X156984Y127795D01*
X157151Y128108D01*
X157254Y128447D01*
X157289Y128800D01*
Y135583D01*
X157427Y135808D01*
X157558Y136125D01*
X157638Y136458D01*
X157665Y136800D01*
X157638Y137142D01*
X157558Y137475D01*
X157427Y137792D01*
X157247Y138084D01*
X157025Y138345D01*
X156764Y138567D01*
X156472Y138747D01*
X156155Y138878D01*
X155822Y138958D01*
X155480Y138985D01*
D02*
G37*
G36*
X5980Y85527D02*
Y82300D01*
X9207D01*
X9113Y82773D01*
X8954Y83239D01*
X8737Y83680D01*
X8464Y84089D01*
X8139Y84459D01*
X7769Y84784D01*
X7360Y85057D01*
X6919Y85274D01*
X6453Y85433D01*
X5980Y85527D01*
D02*
G37*
G36*
X60213Y90356D02*
X54873D01*
Y88006D01*
X37480D01*
X37480Y88006D01*
X37245Y87983D01*
X37019Y87914D01*
X36810Y87803D01*
X36627Y87653D01*
X28627Y79653D01*
X28477Y79470D01*
X28366Y79261D01*
X28297Y79035D01*
X28274Y78800D01*
X28274Y78800D01*
Y72112D01*
X25924D01*
Y66969D01*
X33036D01*
Y72112D01*
X30686D01*
Y78300D01*
X37980Y85594D01*
X54873D01*
Y83244D01*
X60213D01*
Y90356D01*
D02*
G37*
G36*
X9207Y91300D02*
X5980D01*
Y88073D01*
X6453Y88167D01*
X6919Y88326D01*
X7360Y88543D01*
X7769Y88816D01*
X8139Y89141D01*
X8464Y89511D01*
X8737Y89920D01*
X8954Y90361D01*
X9113Y90827D01*
X9207Y91300D01*
D02*
G37*
G36*
X4980D02*
X1753D01*
X1847Y90827D01*
X2005Y90361D01*
X2223Y89920D01*
X2496Y89511D01*
X2821Y89141D01*
X3191Y88816D01*
X3600Y88543D01*
X4041Y88326D01*
X4507Y88167D01*
X4980Y88073D01*
Y91300D01*
D02*
G37*
G36*
X9207Y81300D02*
X5980D01*
Y78073D01*
X6453Y78167D01*
X6919Y78325D01*
X7360Y78543D01*
X7769Y78816D01*
X8139Y79141D01*
X8464Y79511D01*
X8737Y79920D01*
X8954Y80361D01*
X9113Y80827D01*
X9207Y81300D01*
D02*
G37*
G36*
X4980D02*
X1753D01*
X1847Y80827D01*
X2005Y80361D01*
X2223Y79920D01*
X2496Y79511D01*
X2821Y79141D01*
X3191Y78816D01*
X3600Y78543D01*
X4041Y78325D01*
X4507Y78167D01*
X4980Y78073D01*
Y81300D01*
D02*
G37*
G36*
X15480Y85561D02*
X14989Y85529D01*
X14507Y85433D01*
X14041Y85274D01*
X13600Y85057D01*
X13191Y84784D01*
X12821Y84459D01*
X12496Y84089D01*
X12223Y83680D01*
X12005Y83239D01*
X11847Y82773D01*
X11751Y82291D01*
X11719Y81800D01*
X11751Y81309D01*
X11847Y80827D01*
X12005Y80361D01*
X12223Y79920D01*
X12496Y79511D01*
X12821Y79141D01*
X13191Y78816D01*
X13600Y78543D01*
X14041Y78325D01*
X14507Y78167D01*
X14989Y78071D01*
X15480Y78039D01*
X15971Y78071D01*
X16453Y78167D01*
X16919Y78325D01*
X17360Y78543D01*
X17769Y78816D01*
X18139Y79141D01*
X18464Y79511D01*
X18737Y79920D01*
X18955Y80361D01*
X19000Y80494D01*
X23731D01*
X23935Y80255D01*
X24196Y80033D01*
X24488Y79853D01*
X24805Y79722D01*
X25138Y79642D01*
X25480Y79615D01*
X25822Y79642D01*
X26155Y79722D01*
X26472Y79853D01*
X26764Y80033D01*
X27025Y80255D01*
X27247Y80516D01*
X27427Y80808D01*
X27558Y81125D01*
X27638Y81458D01*
X27665Y81800D01*
X27638Y82142D01*
X27558Y82475D01*
X27427Y82792D01*
X27247Y83084D01*
X27025Y83345D01*
X26764Y83567D01*
X26472Y83747D01*
X26155Y83878D01*
X25822Y83958D01*
X25480Y83985D01*
X25138Y83958D01*
X24805Y83878D01*
X24488Y83747D01*
X24196Y83567D01*
X23935Y83345D01*
X23731Y83106D01*
X19000D01*
X18955Y83239D01*
X18737Y83680D01*
X18464Y84089D01*
X18139Y84459D01*
X17769Y84784D01*
X17360Y85057D01*
X16919Y85274D01*
X16453Y85433D01*
X15971Y85529D01*
X15480Y85561D01*
D02*
G37*
G36*
X4980Y85527D02*
X4507Y85433D01*
X4041Y85274D01*
X3600Y85057D01*
X3191Y84784D01*
X2821Y84459D01*
X2496Y84089D01*
X2223Y83680D01*
X2005Y83239D01*
X1847Y82773D01*
X1753Y82300D01*
X4980D01*
Y85527D01*
D02*
G37*
G36*
X60213Y82356D02*
X54873D01*
Y80006D01*
X43480D01*
X43480Y80006D01*
X43245Y79983D01*
X43019Y79914D01*
X42810Y79803D01*
X42627Y79653D01*
X42627Y79653D01*
X37627Y74653D01*
X37477Y74470D01*
X37366Y74261D01*
X37297Y74035D01*
X37274Y73800D01*
X37274Y73800D01*
Y72112D01*
X34924D01*
Y66969D01*
X42036D01*
Y72112D01*
X39686D01*
Y73300D01*
X43979Y77594D01*
X54873D01*
Y75244D01*
X60213D01*
Y82356D01*
D02*
G37*
G36*
X5980Y105527D02*
Y102300D01*
X9207D01*
X9113Y102773D01*
X8954Y103239D01*
X8737Y103680D01*
X8464Y104089D01*
X8139Y104459D01*
X7769Y104784D01*
X7360Y105057D01*
X6919Y105274D01*
X6453Y105433D01*
X5980Y105527D01*
D02*
G37*
G36*
X4980D02*
X4507Y105433D01*
X4041Y105274D01*
X3600Y105057D01*
X3191Y104784D01*
X2821Y104459D01*
X2496Y104089D01*
X2223Y103680D01*
X2005Y103239D01*
X1847Y102773D01*
X1753Y102300D01*
X4980D01*
Y105527D01*
D02*
G37*
G36*
X15480Y115561D02*
X14989Y115529D01*
X14507Y115433D01*
X14041Y115275D01*
X13600Y115057D01*
X13191Y114784D01*
X12821Y114459D01*
X12496Y114089D01*
X12223Y113680D01*
X12005Y113239D01*
X11847Y112773D01*
X11751Y112291D01*
X11719Y111800D01*
X11751Y111309D01*
X11847Y110827D01*
X12005Y110361D01*
X12223Y109920D01*
X12496Y109511D01*
X12821Y109141D01*
X13191Y108816D01*
X13600Y108543D01*
X14041Y108326D01*
X14507Y108167D01*
X14989Y108071D01*
X15480Y108039D01*
X15971Y108071D01*
X16453Y108167D01*
X16919Y108326D01*
X17360Y108543D01*
X17769Y108816D01*
X18139Y109141D01*
X18464Y109511D01*
X18737Y109920D01*
X18955Y110361D01*
X19113Y110827D01*
X19209Y111309D01*
X19241Y111800D01*
X19209Y112291D01*
X19113Y112773D01*
X18955Y113239D01*
X18737Y113680D01*
X18464Y114089D01*
X18139Y114459D01*
X17769Y114784D01*
X17360Y115057D01*
X16919Y115275D01*
X16453Y115433D01*
X15971Y115529D01*
X15480Y115561D01*
D02*
G37*
G36*
X9207Y111300D02*
X5980D01*
Y108073D01*
X6453Y108167D01*
X6919Y108326D01*
X7360Y108543D01*
X7769Y108816D01*
X8139Y109141D01*
X8464Y109511D01*
X8737Y109920D01*
X8954Y110361D01*
X9113Y110827D01*
X9207Y111300D01*
D02*
G37*
G36*
X4980D02*
X1753D01*
X1847Y110827D01*
X2005Y110361D01*
X2223Y109920D01*
X2496Y109511D01*
X2821Y109141D01*
X3191Y108816D01*
X3600Y108543D01*
X4041Y108326D01*
X4507Y108167D01*
X4980Y108073D01*
Y111300D01*
D02*
G37*
G36*
X5980Y95527D02*
Y92300D01*
X9207D01*
X9113Y92773D01*
X8954Y93239D01*
X8737Y93680D01*
X8464Y94089D01*
X8139Y94459D01*
X7769Y94784D01*
X7360Y95057D01*
X6919Y95275D01*
X6453Y95433D01*
X5980Y95527D01*
D02*
G37*
G36*
X4980D02*
X4507Y95433D01*
X4041Y95275D01*
X3600Y95057D01*
X3191Y94784D01*
X2821Y94459D01*
X2496Y94089D01*
X2223Y93680D01*
X2005Y93239D01*
X1847Y92773D01*
X1753Y92300D01*
X4980D01*
Y95527D01*
D02*
G37*
G36*
X15480Y105561D02*
X14989Y105529D01*
X14507Y105433D01*
X14041Y105274D01*
X13600Y105057D01*
X13191Y104784D01*
X12821Y104459D01*
X12496Y104089D01*
X12223Y103680D01*
X12005Y103239D01*
X11847Y102773D01*
X11751Y102291D01*
X11719Y101800D01*
X11751Y101309D01*
X11847Y100827D01*
X12005Y100361D01*
X12223Y99920D01*
X12496Y99511D01*
X12821Y99141D01*
X13191Y98816D01*
X13600Y98543D01*
X14041Y98326D01*
X14507Y98167D01*
X14989Y98071D01*
X15480Y98039D01*
X15971Y98071D01*
X16453Y98167D01*
X16919Y98326D01*
X17360Y98543D01*
X17769Y98816D01*
X18139Y99141D01*
X18464Y99511D01*
X18737Y99920D01*
X18955Y100361D01*
X19113Y100827D01*
X19209Y101309D01*
X19241Y101800D01*
X19209Y102291D01*
X19113Y102773D01*
X18955Y103239D01*
X18737Y103680D01*
X18464Y104089D01*
X18139Y104459D01*
X17769Y104784D01*
X17360Y105057D01*
X16919Y105274D01*
X16453Y105433D01*
X15971Y105529D01*
X15480Y105561D01*
D02*
G37*
G36*
X9207Y101300D02*
X5980D01*
Y98073D01*
X6453Y98167D01*
X6919Y98326D01*
X7360Y98543D01*
X7769Y98816D01*
X8139Y99141D01*
X8464Y99511D01*
X8737Y99920D01*
X8954Y100361D01*
X9113Y100827D01*
X9207Y101300D01*
D02*
G37*
G36*
X4980D02*
X1753D01*
X1847Y100827D01*
X2005Y100361D01*
X2223Y99920D01*
X2496Y99511D01*
X2821Y99141D01*
X3191Y98816D01*
X3600Y98543D01*
X4041Y98326D01*
X4507Y98167D01*
X4980Y98073D01*
Y101300D01*
D02*
G37*
G36*
X152890Y70300D02*
X150523D01*
Y67244D01*
X152890D01*
Y70300D01*
D02*
G37*
G36*
X149523D02*
X147157D01*
Y67244D01*
X149523D01*
Y70300D01*
D02*
G37*
G36*
X15480Y75561D02*
X14989Y75529D01*
X14507Y75433D01*
X14041Y75274D01*
X13600Y75057D01*
X13191Y74784D01*
X12821Y74459D01*
X12496Y74089D01*
X12223Y73680D01*
X12005Y73239D01*
X11847Y72773D01*
X11751Y72291D01*
X11719Y71800D01*
X11751Y71309D01*
X11847Y70827D01*
X12005Y70361D01*
X12223Y69920D01*
X12496Y69511D01*
X12821Y69141D01*
X13191Y68816D01*
X13600Y68543D01*
X14041Y68326D01*
X14507Y68167D01*
X14989Y68071D01*
X15480Y68039D01*
X15971Y68071D01*
X16453Y68167D01*
X16919Y68326D01*
X17360Y68543D01*
X17769Y68816D01*
X18139Y69141D01*
X18464Y69511D01*
X18737Y69920D01*
X18955Y70361D01*
X19113Y70827D01*
X19209Y71309D01*
X19241Y71800D01*
X19209Y72291D01*
X19113Y72773D01*
X18955Y73239D01*
X18737Y73680D01*
X18464Y74089D01*
X18139Y74459D01*
X17769Y74784D01*
X17360Y75057D01*
X16919Y75274D01*
X16453Y75433D01*
X15971Y75529D01*
X15480Y75561D01*
D02*
G37*
G36*
X9207Y71300D02*
X5980D01*
Y68073D01*
X6453Y68167D01*
X6919Y68326D01*
X7360Y68543D01*
X7769Y68816D01*
X8139Y69141D01*
X8464Y69511D01*
X8737Y69920D01*
X8954Y70361D01*
X9113Y70827D01*
X9207Y71300D01*
D02*
G37*
G36*
X4980D02*
X1753D01*
X1847Y70827D01*
X2005Y70361D01*
X2223Y69920D01*
X2496Y69511D01*
X2821Y69141D01*
X3191Y68816D01*
X3600Y68543D01*
X4041Y68326D01*
X4507Y68167D01*
X4980Y68073D01*
Y71300D01*
D02*
G37*
G36*
X46980Y64891D02*
X43924D01*
Y62820D01*
X46980D01*
Y64891D01*
D02*
G37*
G36*
X33036Y64631D02*
X29980D01*
Y62560D01*
X33036D01*
Y64631D01*
D02*
G37*
G36*
X51036Y64891D02*
X47980D01*
Y62820D01*
X51036D01*
Y64891D01*
D02*
G37*
G36*
X92804Y67356D02*
X90437D01*
Y64300D01*
X92804D01*
Y67356D01*
D02*
G37*
G36*
X89437D02*
X87070D01*
Y64300D01*
X89437D01*
Y67356D01*
D02*
G37*
G36*
X185201Y75300D02*
X179980D01*
Y73032D01*
X185201D01*
Y75300D01*
D02*
G37*
G36*
X178980D02*
X173759D01*
Y73032D01*
X178980D01*
Y75300D01*
D02*
G37*
G36*
X89388Y78166D02*
X86927Y75705D01*
X87133Y75594D01*
X87488Y75487D01*
X87857Y75450D01*
X88226Y75487D01*
X88581Y75594D01*
X88908Y75769D01*
X89195Y76004D01*
X90373Y77182D01*
X89388Y78166D01*
D02*
G37*
G36*
X185201Y78569D02*
X179980D01*
Y76300D01*
X185201D01*
Y78569D01*
D02*
G37*
G36*
X178980D02*
X173759D01*
Y76300D01*
X178980D01*
Y78569D01*
D02*
G37*
G36*
X149523Y74356D02*
X147157D01*
Y71300D01*
X149523D01*
Y74356D01*
D02*
G37*
G36*
X60213Y73356D02*
X54873D01*
Y71006D01*
X51036D01*
Y72372D01*
X43924D01*
Y67228D01*
X51036D01*
Y68594D01*
X54873D01*
Y66244D01*
X60213D01*
Y73356D01*
D02*
G37*
G36*
X152890Y74356D02*
X150523D01*
Y71300D01*
X152890D01*
Y74356D01*
D02*
G37*
G36*
X5980Y75527D02*
Y72300D01*
X9207D01*
X9113Y72773D01*
X8954Y73239D01*
X8737Y73680D01*
X8464Y74089D01*
X8139Y74459D01*
X7769Y74784D01*
X7360Y75057D01*
X6919Y75274D01*
X6453Y75433D01*
X5980Y75527D01*
D02*
G37*
G36*
X4980D02*
X4507Y75433D01*
X4041Y75274D01*
X3600Y75057D01*
X3191Y74784D01*
X2821Y74459D01*
X2496Y74089D01*
X2223Y73680D01*
X2005Y73239D01*
X1847Y72773D01*
X1753Y72300D01*
X4980D01*
Y75527D01*
D02*
G37*
G36*
X183600Y126600D02*
X181980D01*
Y124980D01*
X182155Y125022D01*
X182472Y125153D01*
X182764Y125333D01*
X183025Y125555D01*
X183247Y125816D01*
X183427Y126108D01*
X183558Y126425D01*
X183600Y126600D01*
D02*
G37*
G36*
X180980D02*
X179360D01*
X179402Y126425D01*
X179533Y126108D01*
X179713Y125816D01*
X179935Y125555D01*
X180196Y125333D01*
X180488Y125153D01*
X180805Y125022D01*
X180980Y124980D01*
Y126600D01*
D02*
G37*
G36*
X30980Y127820D02*
X27924D01*
Y125748D01*
X30980D01*
Y127820D01*
D02*
G37*
G36*
X23980Y128920D02*
X23805Y128878D01*
X23488Y128747D01*
X23196Y128567D01*
X22935Y128345D01*
X22713Y128084D01*
X22533Y127792D01*
X22402Y127475D01*
X22360Y127300D01*
X23980D01*
Y128920D01*
D02*
G37*
G36*
X35036Y127820D02*
X31980D01*
Y125748D01*
X35036D01*
Y127820D01*
D02*
G37*
G36*
X188880Y126400D02*
X187260D01*
X187302Y126225D01*
X187433Y125908D01*
X187613Y125616D01*
X187835Y125355D01*
X188096Y125133D01*
X188388Y124953D01*
X188705Y124822D01*
X188880Y124780D01*
Y126400D01*
D02*
G37*
G36*
X169600D02*
X167980D01*
Y124780D01*
X168155Y124822D01*
X168472Y124953D01*
X168764Y125133D01*
X169025Y125355D01*
X169247Y125616D01*
X169427Y125908D01*
X169558Y126225D01*
X169600Y126400D01*
D02*
G37*
G36*
X191500D02*
X189880D01*
Y124780D01*
X190055Y124822D01*
X190372Y124953D01*
X190664Y125133D01*
X190925Y125355D01*
X191147Y125616D01*
X191327Y125908D01*
X191458Y126225D01*
X191500Y126400D01*
D02*
G37*
G36*
X176400Y126500D02*
X174780D01*
Y124880D01*
X174955Y124922D01*
X175272Y125053D01*
X175564Y125233D01*
X175825Y125455D01*
X176047Y125716D01*
X176227Y126008D01*
X176358Y126325D01*
X176400Y126500D01*
D02*
G37*
G36*
X173780D02*
X172160D01*
X172202Y126325D01*
X172333Y126008D01*
X172513Y125716D01*
X172735Y125455D01*
X172996Y125233D01*
X173288Y125053D01*
X173605Y124922D01*
X173780Y124880D01*
Y126500D01*
D02*
G37*
G36*
X174780Y129120D02*
Y127500D01*
X176400D01*
X176358Y127675D01*
X176227Y127992D01*
X176047Y128284D01*
X175825Y128545D01*
X175564Y128767D01*
X175272Y128947D01*
X174955Y129078D01*
X174780Y129120D01*
D02*
G37*
G36*
X173780D02*
X173605Y129078D01*
X173288Y128947D01*
X172996Y128767D01*
X172735Y128545D01*
X172513Y128284D01*
X172333Y127992D01*
X172202Y127675D01*
X172160Y127500D01*
X173780D01*
Y129120D01*
D02*
G37*
G36*
X180980Y129220D02*
X180805Y129178D01*
X180488Y129047D01*
X180196Y128867D01*
X179935Y128645D01*
X179713Y128384D01*
X179533Y128092D01*
X179402Y127775D01*
X179360Y127600D01*
X180980D01*
Y129220D01*
D02*
G37*
G36*
X65980Y129300D02*
X64360D01*
X64402Y129125D01*
X64533Y128808D01*
X64713Y128516D01*
X64935Y128255D01*
X65196Y128033D01*
X65488Y127853D01*
X65805Y127722D01*
X65980Y127680D01*
Y129300D01*
D02*
G37*
G36*
X181980Y129220D02*
Y127600D01*
X183600D01*
X183558Y127775D01*
X183427Y128092D01*
X183247Y128384D01*
X183025Y128645D01*
X182764Y128867D01*
X182472Y129047D01*
X182155Y129178D01*
X181980Y129220D01*
D02*
G37*
G36*
X166980Y129020D02*
X166805Y128978D01*
X166488Y128847D01*
X166196Y128667D01*
X165935Y128445D01*
X165713Y128184D01*
X165533Y127892D01*
X165402Y127575D01*
X165360Y127400D01*
X166980D01*
Y129020D01*
D02*
G37*
G36*
X24980Y128920D02*
Y127300D01*
X26600D01*
X26558Y127475D01*
X26427Y127792D01*
X26247Y128084D01*
X26025Y128345D01*
X25764Y128567D01*
X25472Y128747D01*
X25155Y128878D01*
X24980Y128920D01*
D02*
G37*
G36*
X167980Y129020D02*
Y127400D01*
X169600D01*
X169558Y127575D01*
X169427Y127892D01*
X169247Y128184D01*
X169025Y128445D01*
X168764Y128667D01*
X168472Y128847D01*
X168155Y128978D01*
X167980Y129020D01*
D02*
G37*
G36*
X189880D02*
Y127400D01*
X191500D01*
X191458Y127575D01*
X191327Y127892D01*
X191147Y128184D01*
X190925Y128445D01*
X190664Y128667D01*
X190372Y128847D01*
X190055Y128978D01*
X189880Y129020D01*
D02*
G37*
G36*
X188880D02*
X188705Y128978D01*
X188388Y128847D01*
X188096Y128667D01*
X187835Y128445D01*
X187613Y128184D01*
X187433Y127892D01*
X187302Y127575D01*
X187260Y127400D01*
X188880D01*
Y129020D01*
D02*
G37*
G36*
X15480Y125561D02*
X14989Y125529D01*
X14507Y125433D01*
X14041Y125275D01*
X13600Y125057D01*
X13191Y124784D01*
X12821Y124459D01*
X12496Y124089D01*
X12223Y123680D01*
X12005Y123239D01*
X11847Y122773D01*
X11751Y122291D01*
X11719Y121800D01*
X11751Y121309D01*
X11847Y120827D01*
X12005Y120361D01*
X12223Y119920D01*
X12496Y119511D01*
X12821Y119141D01*
X13191Y118816D01*
X13600Y118543D01*
X14041Y118325D01*
X14507Y118167D01*
X14989Y118071D01*
X15480Y118039D01*
X15971Y118071D01*
X16453Y118167D01*
X16919Y118325D01*
X17360Y118543D01*
X17769Y118816D01*
X18139Y119141D01*
X18464Y119511D01*
X18737Y119920D01*
X18955Y120361D01*
X19113Y120827D01*
X19209Y121309D01*
X19241Y121800D01*
X19209Y122291D01*
X19113Y122773D01*
X18955Y123239D01*
X18737Y123680D01*
X18464Y124089D01*
X18139Y124459D01*
X17769Y124784D01*
X17360Y125057D01*
X16919Y125275D01*
X16453Y125433D01*
X15971Y125529D01*
X15480Y125561D01*
D02*
G37*
G36*
X169600Y119300D02*
X167980D01*
Y117680D01*
X168155Y117722D01*
X168472Y117853D01*
X168764Y118033D01*
X169025Y118255D01*
X169247Y118516D01*
X169427Y118808D01*
X169558Y119125D01*
X169600Y119300D01*
D02*
G37*
G36*
X4980Y121300D02*
X1753D01*
X1847Y120827D01*
X2005Y120361D01*
X2223Y119920D01*
X2496Y119511D01*
X2821Y119141D01*
X3191Y118816D01*
X3600Y118543D01*
X4041Y118325D01*
X4507Y118167D01*
X4980Y118073D01*
Y121300D01*
D02*
G37*
G36*
X133901Y121364D02*
X131337D01*
Y118111D01*
X133901D01*
Y121364D01*
D02*
G37*
G36*
X9207Y121300D02*
X5980D01*
Y118073D01*
X6453Y118167D01*
X6919Y118325D01*
X7360Y118543D01*
X7769Y118816D01*
X8139Y119141D01*
X8464Y119511D01*
X8737Y119920D01*
X8954Y120361D01*
X9113Y120827D01*
X9207Y121300D01*
D02*
G37*
G36*
X5980Y115527D02*
Y112300D01*
X9207D01*
X9113Y112773D01*
X8954Y113239D01*
X8737Y113680D01*
X8464Y114089D01*
X8139Y114459D01*
X7769Y114784D01*
X7360Y115057D01*
X6919Y115275D01*
X6453Y115433D01*
X5980Y115527D01*
D02*
G37*
G36*
X4980D02*
X4507Y115433D01*
X4041Y115275D01*
X3600Y115057D01*
X3191Y114784D01*
X2821Y114459D01*
X2496Y114089D01*
X2223Y113680D01*
X2005Y113239D01*
X1847Y112773D01*
X1753Y112300D01*
X4980D01*
Y115527D01*
D02*
G37*
G36*
X190122Y118254D02*
X183641D01*
Y112754D01*
X180231D01*
X177333Y115653D01*
X177150Y115803D01*
X176941Y115914D01*
X176715Y115983D01*
X176480Y116006D01*
X176480Y116006D01*
X155295D01*
X155247Y116084D01*
X155025Y116345D01*
X154764Y116567D01*
X154472Y116747D01*
X154155Y116878D01*
X153822Y116958D01*
X153480Y116985D01*
X153138Y116958D01*
X152805Y116878D01*
X152488Y116747D01*
X152196Y116567D01*
X151935Y116345D01*
X151713Y116084D01*
X151533Y115792D01*
X151402Y115475D01*
X151322Y115142D01*
X151295Y114800D01*
X151322Y114458D01*
X151402Y114125D01*
X151533Y113808D01*
X151713Y113516D01*
X151935Y113255D01*
X152196Y113033D01*
X152488Y112853D01*
X152805Y112722D01*
X153138Y112642D01*
X153480Y112615D01*
X153822Y112642D01*
X154155Y112722D01*
X154472Y112853D01*
X154764Y113033D01*
X155025Y113255D01*
X155247Y113516D01*
X155295Y113594D01*
X175980D01*
X178879Y110695D01*
X178879Y110695D01*
X179062Y110545D01*
X179271Y110434D01*
X179497Y110365D01*
X179732Y110342D01*
X183641D01*
Y108524D01*
X174604D01*
X172640Y110487D01*
X172665Y110800D01*
X172638Y111142D01*
X172558Y111475D01*
X172427Y111792D01*
X172247Y112084D01*
X172025Y112345D01*
X171764Y112567D01*
X171472Y112747D01*
X171155Y112878D01*
X170822Y112958D01*
X170480Y112985D01*
X170138Y112958D01*
X169805Y112878D01*
X169488Y112747D01*
X169196Y112567D01*
X168935Y112345D01*
X168713Y112084D01*
X168533Y111792D01*
X168402Y111475D01*
X168322Y111142D01*
X168295Y110800D01*
X168322Y110458D01*
X168402Y110125D01*
X168533Y109808D01*
X168713Y109516D01*
X168935Y109255D01*
X169196Y109033D01*
X169488Y108853D01*
X169805Y108722D01*
X170138Y108642D01*
X170480Y108615D01*
X170793Y108640D01*
X173139Y106294D01*
X173337Y106131D01*
X173563Y106010D01*
X173808Y105936D01*
X174063Y105911D01*
X183641D01*
Y104695D01*
X171432D01*
X164404Y111724D01*
X164206Y111886D01*
X163980Y112007D01*
X163735Y112081D01*
X163480Y112106D01*
X158480D01*
X158225Y112081D01*
X157980Y112007D01*
X157754Y111886D01*
X157556Y111724D01*
X157556Y111724D01*
X153556Y107724D01*
X153394Y107526D01*
X153273Y107300D01*
X153199Y107055D01*
X153174Y106800D01*
Y90052D01*
X141658Y78536D01*
X141433Y78262D01*
X141266Y77949D01*
X141163Y77609D01*
X141128Y77257D01*
Y74356D01*
X140070D01*
Y67244D01*
X141128D01*
Y65343D01*
X141163Y64991D01*
X141266Y64651D01*
X141433Y64338D01*
X141658Y64064D01*
X148341Y57381D01*
X148402Y57125D01*
X148533Y56808D01*
X148671Y56583D01*
Y51800D01*
X148706Y51447D01*
X148809Y51108D01*
X148976Y50795D01*
X149201Y50521D01*
X164671Y35051D01*
Y32470D01*
X162924D01*
Y27130D01*
X170036D01*
Y27991D01*
X173188D01*
X173223Y27920D01*
X173496Y27511D01*
X173821Y27141D01*
X174191Y26816D01*
X174600Y26543D01*
X175041Y26326D01*
X175507Y26167D01*
X175989Y26071D01*
X176480Y26039D01*
X176971Y26071D01*
X177453Y26167D01*
X177587Y26213D01*
X178087Y25858D01*
Y24887D01*
X178112Y24632D01*
X178186Y24387D01*
X178187Y24385D01*
Y21356D01*
X176526D01*
Y14244D01*
X182260D01*
Y21356D01*
X180599D01*
Y24385D01*
X180600Y24387D01*
X180674Y24632D01*
X180700Y24887D01*
Y26887D01*
X180700Y26887D01*
X180674Y27142D01*
X180600Y27387D01*
X180479Y27613D01*
X180317Y27810D01*
X180317Y27810D01*
X179893Y28235D01*
X179955Y28361D01*
X180113Y28827D01*
X180209Y29309D01*
X180241Y29800D01*
X180209Y30291D01*
X180113Y30773D01*
X179955Y31239D01*
X179737Y31680D01*
X179464Y32089D01*
X179139Y32459D01*
X178769Y32784D01*
X178360Y33057D01*
X177919Y33274D01*
X177453Y33433D01*
X176971Y33529D01*
X176480Y33561D01*
X175989Y33529D01*
X175507Y33433D01*
X175041Y33274D01*
X174600Y33057D01*
X174191Y32784D01*
X173821Y32459D01*
X173496Y32089D01*
X173223Y31680D01*
X173188Y31609D01*
X170036D01*
Y32470D01*
X168289D01*
Y35800D01*
X168254Y36153D01*
X168151Y36492D01*
X167984Y36805D01*
X167759Y37079D01*
X152289Y52549D01*
Y56583D01*
X152427Y56808D01*
X152558Y57125D01*
X152638Y57458D01*
X152665Y57800D01*
X152638Y58142D01*
X152558Y58475D01*
X152427Y58792D01*
X152247Y59084D01*
X152025Y59345D01*
X151764Y59567D01*
X151472Y59747D01*
X151155Y59878D01*
X150899Y59939D01*
X144745Y66093D01*
Y67244D01*
X145803D01*
Y74356D01*
X144745D01*
Y76507D01*
X155759Y87521D01*
X155984Y87795D01*
X156151Y88108D01*
X156254Y88447D01*
X156289Y88800D01*
X156254Y89153D01*
X156151Y89492D01*
X155984Y89805D01*
X155786Y90046D01*
Y106259D01*
X159021Y109494D01*
X162939D01*
X169589Y102844D01*
X169619Y102534D01*
X169722Y102194D01*
X169817Y102018D01*
X169411Y101716D01*
X164404Y106724D01*
X164206Y106886D01*
X163980Y107007D01*
X163735Y107081D01*
X163480Y107106D01*
X161229D01*
X161025Y107345D01*
X160764Y107567D01*
X160472Y107747D01*
X160155Y107878D01*
X159822Y107958D01*
X159480Y107985D01*
X159138Y107958D01*
X158805Y107878D01*
X158488Y107747D01*
X158196Y107567D01*
X157935Y107345D01*
X157713Y107084D01*
X157533Y106792D01*
X157402Y106475D01*
X157322Y106142D01*
X157295Y105800D01*
X157322Y105458D01*
X157402Y105125D01*
X157533Y104808D01*
X157713Y104516D01*
X157935Y104255D01*
X158196Y104033D01*
X158488Y103853D01*
X158805Y103722D01*
X159138Y103642D01*
X159480Y103615D01*
X159822Y103642D01*
X160155Y103722D01*
X160472Y103853D01*
X160764Y104033D01*
X161025Y104255D01*
X161229Y104494D01*
X162939D01*
X169518Y97914D01*
Y88556D01*
X169518Y88556D01*
X169542Y88321D01*
X169610Y88094D01*
X169722Y87886D01*
X169872Y87703D01*
X177627Y79947D01*
X177627Y79947D01*
X177810Y79797D01*
X178019Y79686D01*
X178245Y79617D01*
X178480Y79594D01*
X178480Y79594D01*
X188980D01*
X191274Y77301D01*
Y54299D01*
X189425Y52450D01*
X189139Y52459D01*
X188769Y52784D01*
X188360Y53057D01*
X187919Y53275D01*
X187453Y53433D01*
X186971Y53529D01*
X186480Y53561D01*
X185989Y53529D01*
X185507Y53433D01*
X185041Y53275D01*
X184600Y53057D01*
X184191Y52784D01*
X183821Y52459D01*
X183496Y52089D01*
X183223Y51680D01*
X183005Y51239D01*
X182847Y50773D01*
X182751Y50291D01*
X182719Y49800D01*
X182751Y49309D01*
X182847Y48827D01*
X183005Y48361D01*
X183223Y47920D01*
X183496Y47511D01*
X183821Y47141D01*
X184191Y46816D01*
X184600Y46543D01*
X185041Y46325D01*
X185507Y46167D01*
X185989Y46071D01*
X186480Y46039D01*
X186971Y46071D01*
X187453Y46167D01*
X187919Y46325D01*
X188360Y46543D01*
X188769Y46816D01*
X189139Y47141D01*
X189464Y47511D01*
X189737Y47920D01*
X189954Y48361D01*
X190113Y48827D01*
X190209Y49309D01*
X190241Y49800D01*
X190237Y49852D01*
X193333Y52947D01*
X193333Y52947D01*
X193483Y53130D01*
X193594Y53338D01*
X193663Y53565D01*
X193686Y53800D01*
Y77800D01*
X193663Y78035D01*
X193594Y78261D01*
X193483Y78470D01*
X193333Y78653D01*
X190333Y81653D01*
X190150Y81803D01*
X189941Y81914D01*
X189715Y81983D01*
X189480Y82006D01*
X189480Y82006D01*
X178980D01*
X171930Y89055D01*
Y97250D01*
X183641D01*
Y94725D01*
X186882D01*
Y93725D01*
X183641D01*
Y91100D01*
X181234D01*
X181025Y91345D01*
X180764Y91567D01*
X180472Y91747D01*
X180155Y91878D01*
X179822Y91958D01*
X179480Y91985D01*
X179138Y91958D01*
X178805Y91878D01*
X178488Y91747D01*
X178196Y91567D01*
X177935Y91345D01*
X177713Y91084D01*
X177533Y90792D01*
X177402Y90475D01*
X177322Y90142D01*
X177295Y89800D01*
X177322Y89458D01*
X177402Y89125D01*
X177533Y88808D01*
X177713Y88516D01*
X177935Y88255D01*
X178196Y88033D01*
X178488Y87853D01*
X178805Y87722D01*
X179138Y87642D01*
X179480Y87615D01*
X179822Y87642D01*
X180155Y87722D01*
X180472Y87853D01*
X180764Y88033D01*
X181025Y88255D01*
X181247Y88516D01*
X181353Y88689D01*
X183641D01*
Y83189D01*
X190122D01*
Y84358D01*
X191244D01*
X191244Y84358D01*
X191479Y84381D01*
X191705Y84450D01*
X191914Y84561D01*
X192096Y84711D01*
X193333Y85947D01*
X193483Y86130D01*
X193594Y86339D01*
X193663Y86565D01*
X193686Y86800D01*
Y102800D01*
Y112800D01*
X193663Y113035D01*
X193594Y113261D01*
X193483Y113470D01*
X193333Y113653D01*
X190254Y116731D01*
X190122Y116839D01*
Y118254D01*
D02*
G37*
G36*
X166980Y119300D02*
X165360D01*
X165402Y119125D01*
X165533Y118808D01*
X165713Y118516D01*
X165935Y118255D01*
X166196Y118033D01*
X166488Y117853D01*
X166805Y117722D01*
X166980Y117680D01*
Y119300D01*
D02*
G37*
G36*
X137465Y117111D02*
X134901D01*
Y113858D01*
X137465D01*
Y117111D01*
D02*
G37*
G36*
X85036Y133596D02*
X77924D01*
Y128256D01*
X79915D01*
X80211Y127863D01*
X80234Y127628D01*
X80303Y127402D01*
X80414Y127193D01*
X80564Y127010D01*
X82344Y125231D01*
X82322Y125142D01*
X82295Y124800D01*
X82322Y124458D01*
X82402Y124125D01*
X82533Y123808D01*
X82713Y123516D01*
X82935Y123255D01*
X83196Y123033D01*
X83488Y122853D01*
X83805Y122722D01*
X84138Y122642D01*
X84480Y122615D01*
X84822Y122642D01*
X85155Y122722D01*
X85472Y122853D01*
X85764Y123033D01*
X86025Y123255D01*
X86247Y123516D01*
X86427Y123808D01*
X86558Y124125D01*
X86638Y124458D01*
X86665Y124800D01*
X86638Y125142D01*
X86558Y125475D01*
X86427Y125792D01*
X86247Y126084D01*
X86025Y126345D01*
X85764Y126567D01*
X85472Y126747D01*
X85155Y126878D01*
X84822Y126958D01*
X84480Y126985D01*
X84138Y126958D01*
X84049Y126936D01*
X83191Y127794D01*
X83383Y128256D01*
X85036D01*
Y133596D01*
D02*
G37*
G36*
X5980Y125527D02*
Y122300D01*
X9207D01*
X9113Y122773D01*
X8954Y123239D01*
X8737Y123680D01*
X8464Y124089D01*
X8139Y124459D01*
X7769Y124784D01*
X7360Y125057D01*
X6919Y125275D01*
X6453Y125433D01*
X5980Y125527D01*
D02*
G37*
G36*
X23980Y126300D02*
X22360D01*
X22402Y126125D01*
X22533Y125808D01*
X22713Y125516D01*
X22935Y125255D01*
X23196Y125033D01*
X23488Y124853D01*
X23805Y124722D01*
X23980Y124680D01*
Y126300D01*
D02*
G37*
G36*
X166980Y126400D02*
X165360D01*
X165402Y126225D01*
X165533Y125908D01*
X165713Y125616D01*
X165935Y125355D01*
X166196Y125133D01*
X166488Y124953D01*
X166805Y124822D01*
X166980Y124780D01*
Y126400D01*
D02*
G37*
G36*
X26600Y126300D02*
X24980D01*
Y124680D01*
X25155Y124722D01*
X25472Y124853D01*
X25764Y125033D01*
X26025Y125255D01*
X26247Y125516D01*
X26427Y125808D01*
X26558Y126125D01*
X26600Y126300D01*
D02*
G37*
G36*
X98575Y121131D02*
X98206Y121095D01*
X97851Y120987D01*
X97524Y120812D01*
X97238Y120577D01*
X96060Y119400D01*
X97044Y118415D01*
X99506Y120877D01*
X99299Y120987D01*
X98944Y121095D01*
X98575Y121131D01*
D02*
G37*
G36*
X137465Y121364D02*
X134901D01*
Y118111D01*
X137465D01*
Y121364D01*
D02*
G37*
G36*
X166980Y121920D02*
X166805Y121878D01*
X166488Y121747D01*
X166196Y121567D01*
X165935Y121345D01*
X165713Y121084D01*
X165533Y120792D01*
X165402Y120475D01*
X165360Y120300D01*
X166980D01*
Y121920D01*
D02*
G37*
G36*
X4980Y125527D02*
X4507Y125433D01*
X4041Y125275D01*
X3600Y125057D01*
X3191Y124784D01*
X2821Y124459D01*
X2496Y124089D01*
X2223Y123680D01*
X2005Y123239D01*
X1847Y122773D01*
X1753Y122300D01*
X4980D01*
Y125527D01*
D02*
G37*
G36*
X167980Y121920D02*
Y120300D01*
X169600D01*
X169558Y120475D01*
X169427Y120792D01*
X169247Y121084D01*
X169025Y121345D01*
X168764Y121567D01*
X168472Y121747D01*
X168155Y121878D01*
X167980Y121920D01*
D02*
G37*
G36*
X42036Y64631D02*
X38980D01*
Y62560D01*
X42036D01*
Y64631D01*
D02*
G37*
G36*
X150280Y21800D02*
X148660D01*
X148702Y21625D01*
X148833Y21308D01*
X149013Y21016D01*
X149235Y20755D01*
X149496Y20533D01*
X149788Y20353D01*
X150105Y20222D01*
X150280Y20180D01*
Y21800D01*
D02*
G37*
G36*
X145500Y21300D02*
X143880D01*
Y19680D01*
X144055Y19722D01*
X144372Y19853D01*
X144664Y20033D01*
X144925Y20255D01*
X145147Y20516D01*
X145327Y20808D01*
X145458Y21125D01*
X145500Y21300D01*
D02*
G37*
G36*
X152900Y21800D02*
X151280D01*
Y20180D01*
X151455Y20222D01*
X151772Y20353D01*
X152064Y20533D01*
X152325Y20755D01*
X152547Y21016D01*
X152727Y21308D01*
X152858Y21625D01*
X152900Y21800D01*
D02*
G37*
G36*
X143880Y23920D02*
Y22300D01*
X145500D01*
X145458Y22475D01*
X145327Y22792D01*
X145147Y23084D01*
X144925Y23345D01*
X144664Y23567D01*
X144372Y23747D01*
X144055Y23878D01*
X143880Y23920D01*
D02*
G37*
G36*
X142880D02*
X142705Y23878D01*
X142388Y23747D01*
X142096Y23567D01*
X141835Y23345D01*
X141613Y23084D01*
X141433Y22792D01*
X141302Y22475D01*
X141260Y22300D01*
X142880D01*
Y23920D01*
D02*
G37*
G36*
X7043Y22300D02*
X4873D01*
Y19244D01*
X7043D01*
Y22300D01*
D02*
G37*
G36*
X189347Y21356D02*
X186980D01*
Y18300D01*
X189347D01*
Y21356D01*
D02*
G37*
G36*
X10213Y22300D02*
X8043D01*
Y19244D01*
X10213D01*
Y22300D01*
D02*
G37*
G36*
X142880Y21300D02*
X141260D01*
X141302Y21125D01*
X141433Y20808D01*
X141613Y20516D01*
X141835Y20255D01*
X142096Y20033D01*
X142388Y19853D01*
X142705Y19722D01*
X142880Y19680D01*
Y21300D01*
D02*
G37*
G36*
X158233Y40317D02*
X150727D01*
Y29661D01*
X153111D01*
Y26863D01*
X153136Y26608D01*
X153210Y26363D01*
X153331Y26137D01*
X153493Y25939D01*
X158430Y21002D01*
X158430Y21002D01*
X158628Y20840D01*
X158854Y20719D01*
X159099Y20645D01*
X159354Y20620D01*
X162924D01*
Y19256D01*
X170036D01*
Y24596D01*
X162924D01*
Y23232D01*
X159895D01*
X155723Y27404D01*
Y29661D01*
X158233D01*
Y40317D01*
D02*
G37*
G36*
X104115Y27237D02*
X102240D01*
Y25165D01*
X104115D01*
Y27237D01*
D02*
G37*
G36*
X101240D02*
X99365D01*
Y25165D01*
X101240D01*
Y27237D01*
D02*
G37*
G36*
X185980Y29300D02*
X182727D01*
Y26047D01*
X185980D01*
Y29300D01*
D02*
G37*
G36*
X47980Y30300D02*
X44753D01*
X44847Y29827D01*
X45006Y29361D01*
X45223Y28920D01*
X45496Y28511D01*
X45821Y28141D01*
X46191Y27816D01*
X46600Y27543D01*
X47041Y27325D01*
X47507Y27167D01*
X47980Y27073D01*
Y30300D01*
D02*
G37*
G36*
X190233Y29300D02*
X186980D01*
Y26047D01*
X190233D01*
Y29300D01*
D02*
G37*
G36*
X151280Y24420D02*
Y22800D01*
X152900D01*
X152858Y22975D01*
X152727Y23292D01*
X152547Y23584D01*
X152325Y23845D01*
X152064Y24067D01*
X151772Y24247D01*
X151455Y24378D01*
X151280Y24420D01*
D02*
G37*
G36*
X150280D02*
X150105Y24378D01*
X149788Y24247D01*
X149496Y24067D01*
X149235Y23845D01*
X149013Y23584D01*
X148833Y23292D01*
X148702Y22975D01*
X148660Y22800D01*
X150280D01*
Y24420D01*
D02*
G37*
G36*
X7043Y26356D02*
X4873D01*
Y23300D01*
X7043D01*
Y26356D01*
D02*
G37*
G36*
X85480Y36985D02*
X85138Y36958D01*
X84805Y36878D01*
X84488Y36747D01*
X84196Y36567D01*
X83935Y36345D01*
X83713Y36084D01*
X83533Y35792D01*
X83402Y35475D01*
X83322Y35142D01*
X83295Y34800D01*
X83322Y34458D01*
X83402Y34125D01*
X83533Y33808D01*
X83713Y33516D01*
X83935Y33255D01*
X84174Y33051D01*
Y30407D01*
X81924D01*
Y25067D01*
X89036D01*
Y26431D01*
X89924D01*
Y25067D01*
X97036D01*
Y30407D01*
X89924D01*
Y29043D01*
X89036D01*
Y30407D01*
X86786D01*
Y33051D01*
X87025Y33255D01*
X87247Y33516D01*
X87427Y33808D01*
X87558Y34125D01*
X87638Y34458D01*
X87665Y34800D01*
X87638Y35142D01*
X87558Y35475D01*
X87427Y35792D01*
X87247Y36084D01*
X87025Y36345D01*
X86764Y36567D01*
X86472Y36747D01*
X86155Y36878D01*
X85822Y36958D01*
X85480Y36985D01*
D02*
G37*
G36*
X10213Y26356D02*
X8043D01*
Y23300D01*
X10213D01*
Y26356D01*
D02*
G37*
G36*
X47980Y9300D02*
X44753D01*
X44847Y8827D01*
X45006Y8361D01*
X45223Y7920D01*
X45496Y7511D01*
X45821Y7141D01*
X46191Y6816D01*
X46600Y6543D01*
X47041Y6325D01*
X47507Y6167D01*
X47980Y6073D01*
Y9300D01*
D02*
G37*
G36*
X97036Y22533D02*
X89924D01*
Y17193D01*
X97036D01*
Y18557D01*
X103105D01*
Y17291D01*
X104174D01*
Y13553D01*
X101727D01*
Y6047D01*
X109233D01*
Y13553D01*
X106786D01*
Y17291D01*
X107855D01*
Y22435D01*
X103105D01*
Y21169D01*
X97036D01*
Y22533D01*
D02*
G37*
G36*
X52207Y9300D02*
X48980D01*
Y6073D01*
X49453Y6167D01*
X49919Y6325D01*
X50360Y6543D01*
X50769Y6816D01*
X51139Y7141D01*
X51464Y7511D01*
X51737Y7920D01*
X51955Y8361D01*
X52113Y8827D01*
X52207Y9300D01*
D02*
G37*
G36*
X158233Y13939D02*
X154980D01*
Y9111D01*
X158233D01*
Y13939D01*
D02*
G37*
G36*
X153980D02*
X150727D01*
Y9111D01*
X153980D01*
Y13939D01*
D02*
G37*
G36*
Y8111D02*
X150727D01*
Y3283D01*
X153980D01*
Y8111D01*
D02*
G37*
G36*
X70115Y30435D02*
X65365D01*
Y25291D01*
X66434D01*
Y24356D01*
X64873D01*
Y17244D01*
X66237D01*
Y4737D01*
X66262Y4482D01*
X66336Y4237D01*
X66457Y4011D01*
X66619Y3813D01*
X68556Y1876D01*
X68754Y1714D01*
X68980Y1593D01*
X69225Y1519D01*
X69480Y1494D01*
X93480D01*
X93735Y1519D01*
X93980Y1593D01*
X94206Y1714D01*
X94404Y1876D01*
X96404Y3876D01*
X96404Y3876D01*
X96566Y4074D01*
X96687Y4300D01*
X96761Y4545D01*
X96786Y4800D01*
X96786Y4800D01*
Y6280D01*
X96919Y6325D01*
X97360Y6543D01*
X97769Y6816D01*
X98139Y7141D01*
X98464Y7511D01*
X98737Y7920D01*
X98954Y8361D01*
X99113Y8827D01*
X99209Y9309D01*
X99241Y9800D01*
X99209Y10291D01*
X99113Y10773D01*
X98954Y11239D01*
X98737Y11680D01*
X98464Y12089D01*
X98139Y12459D01*
X97769Y12784D01*
X97360Y13057D01*
X96919Y13274D01*
X96453Y13433D01*
X95971Y13529D01*
X95480Y13561D01*
X94989Y13529D01*
X94507Y13433D01*
X94041Y13274D01*
X93600Y13057D01*
X93191Y12784D01*
X92821Y12459D01*
X92496Y12089D01*
X92223Y11680D01*
X92005Y11239D01*
X91847Y10773D01*
X91751Y10291D01*
X91719Y9800D01*
X91751Y9309D01*
X91847Y8827D01*
X92005Y8361D01*
X92223Y7920D01*
X92496Y7511D01*
X92821Y7141D01*
X93191Y6816D01*
X93600Y6543D01*
X94041Y6325D01*
X94174Y6280D01*
Y5341D01*
X92939Y4106D01*
X70021D01*
X68849Y5278D01*
Y17244D01*
X70213D01*
Y24356D01*
X69046D01*
Y25291D01*
X70115D01*
Y30435D01*
D02*
G37*
G36*
X158233Y8111D02*
X154980D01*
Y3283D01*
X158233D01*
Y8111D01*
D02*
G37*
G36*
X89036Y22533D02*
X81924D01*
Y17193D01*
X84174D01*
Y13320D01*
X84041Y13274D01*
X83600Y13057D01*
X83191Y12784D01*
X82821Y12459D01*
X82496Y12089D01*
X82223Y11680D01*
X82006Y11239D01*
X81847Y10773D01*
X81751Y10291D01*
X81719Y9800D01*
X81751Y9309D01*
X81847Y8827D01*
X82006Y8361D01*
X82223Y7920D01*
X82496Y7511D01*
X82821Y7141D01*
X83191Y6816D01*
X83600Y6543D01*
X84041Y6325D01*
X84507Y6167D01*
X84989Y6071D01*
X85480Y6039D01*
X85971Y6071D01*
X86453Y6167D01*
X86919Y6325D01*
X87360Y6543D01*
X87769Y6816D01*
X88139Y7141D01*
X88464Y7511D01*
X88737Y7920D01*
X88955Y8361D01*
X89113Y8827D01*
X89209Y9309D01*
X89241Y9800D01*
X89209Y10291D01*
X89113Y10773D01*
X88955Y11239D01*
X88737Y11680D01*
X88464Y12089D01*
X88139Y12459D01*
X87769Y12784D01*
X87360Y13057D01*
X86919Y13274D01*
X86786Y13320D01*
Y17193D01*
X89036D01*
Y22533D01*
D02*
G37*
G36*
X77595Y30435D02*
X72845D01*
Y25291D01*
X74014D01*
Y24356D01*
X72747D01*
Y17244D01*
X74211D01*
Y13332D01*
X74041Y13274D01*
X73600Y13057D01*
X73191Y12784D01*
X72821Y12459D01*
X72496Y12089D01*
X72223Y11680D01*
X72005Y11239D01*
X71847Y10773D01*
X71751Y10291D01*
X71719Y9800D01*
X71751Y9309D01*
X71847Y8827D01*
X72005Y8361D01*
X72223Y7920D01*
X72496Y7511D01*
X72821Y7141D01*
X73191Y6816D01*
X73600Y6543D01*
X74041Y6325D01*
X74507Y6167D01*
X74989Y6071D01*
X75480Y6039D01*
X75971Y6071D01*
X76453Y6167D01*
X76919Y6325D01*
X77360Y6543D01*
X77769Y6816D01*
X78139Y7141D01*
X78464Y7511D01*
X78737Y7920D01*
X78954Y8361D01*
X79113Y8827D01*
X79209Y9309D01*
X79241Y9800D01*
X79209Y10291D01*
X79113Y10773D01*
X78954Y11239D01*
X78737Y11680D01*
X78464Y12089D01*
X78139Y12459D01*
X77769Y12784D01*
X77360Y13057D01*
X76919Y13274D01*
X76623Y13375D01*
Y17244D01*
X78087D01*
Y24356D01*
X76426D01*
Y25291D01*
X77595D01*
Y30435D01*
D02*
G37*
G36*
X19036Y33596D02*
X11924D01*
Y28256D01*
X13608D01*
Y26356D01*
X12747D01*
Y19244D01*
X13671D01*
Y17017D01*
X13533Y16792D01*
X13402Y16475D01*
X13322Y16142D01*
X13295Y15800D01*
X13322Y15458D01*
X13402Y15125D01*
X13533Y14808D01*
X13713Y14516D01*
X13935Y14255D01*
X14196Y14033D01*
X14488Y13853D01*
X14805Y13722D01*
X15138Y13642D01*
X15480Y13615D01*
X15822Y13642D01*
X16155Y13722D01*
X16472Y13853D01*
X16764Y14033D01*
X17025Y14255D01*
X17247Y14516D01*
X17427Y14808D01*
X17558Y15125D01*
X17638Y15458D01*
X17665Y15800D01*
X17638Y16142D01*
X17558Y16475D01*
X17427Y16792D01*
X17289Y17017D01*
Y19244D01*
X18087D01*
Y26356D01*
X17226D01*
Y28256D01*
X19036D01*
Y33596D01*
D02*
G37*
G36*
X130036Y15533D02*
X126980D01*
Y13363D01*
X130036D01*
Y15533D01*
D02*
G37*
G36*
X185980Y17300D02*
X183613D01*
Y14244D01*
X185980D01*
Y17300D01*
D02*
G37*
G36*
Y21356D02*
X183613D01*
Y18300D01*
X185980D01*
Y21356D01*
D02*
G37*
G36*
X189347Y17300D02*
X186980D01*
Y14244D01*
X189347D01*
Y17300D01*
D02*
G37*
G36*
X130036Y12363D02*
X126980D01*
Y10193D01*
X130036D01*
Y12363D01*
D02*
G37*
G36*
X125980D02*
X122924D01*
Y10193D01*
X125980D01*
Y12363D01*
D02*
G37*
G36*
X47980Y13527D02*
X47507Y13433D01*
X47041Y13274D01*
X46600Y13057D01*
X46191Y12784D01*
X45821Y12459D01*
X45496Y12089D01*
X45223Y11680D01*
X45006Y11239D01*
X44847Y10773D01*
X44753Y10300D01*
X47980D01*
Y13527D01*
D02*
G37*
G36*
X125980Y15533D02*
X122924D01*
Y13363D01*
X125980D01*
Y15533D01*
D02*
G37*
G36*
X48980Y13527D02*
Y10300D01*
X52207D01*
X52113Y10773D01*
X51955Y11239D01*
X51737Y11680D01*
X51464Y12089D01*
X51139Y12459D01*
X50769Y12784D01*
X50360Y13057D01*
X49919Y13274D01*
X49453Y13433D01*
X48980Y13527D01*
D02*
G37*
G36*
X15480Y65561D02*
X14989Y65529D01*
X14507Y65433D01*
X14041Y65275D01*
X13600Y65057D01*
X13191Y64784D01*
X12821Y64459D01*
X12496Y64089D01*
X12223Y63680D01*
X12005Y63239D01*
X11847Y62773D01*
X11751Y62291D01*
X11719Y61800D01*
X11751Y61309D01*
X11847Y60827D01*
X12005Y60361D01*
X12223Y59920D01*
X12496Y59511D01*
X12821Y59141D01*
X13191Y58816D01*
X13600Y58543D01*
X14041Y58325D01*
X14507Y58167D01*
X14989Y58071D01*
X15480Y58039D01*
X15971Y58071D01*
X16453Y58167D01*
X16919Y58325D01*
X17360Y58543D01*
X17769Y58816D01*
X18139Y59141D01*
X18464Y59511D01*
X18737Y59920D01*
X18955Y60361D01*
X19113Y60827D01*
X19209Y61309D01*
X19241Y61800D01*
X19209Y62291D01*
X19113Y62773D01*
X18955Y63239D01*
X18737Y63680D01*
X18464Y64089D01*
X18139Y64459D01*
X17769Y64784D01*
X17360Y65057D01*
X16919Y65275D01*
X16453Y65433D01*
X15971Y65529D01*
X15480Y65561D01*
D02*
G37*
G36*
X92804Y59356D02*
X90437D01*
Y56300D01*
X92804D01*
Y59356D01*
D02*
G37*
G36*
X4980Y61300D02*
X1753D01*
X1847Y60827D01*
X2005Y60361D01*
X2223Y59920D01*
X2496Y59511D01*
X2821Y59141D01*
X3191Y58816D01*
X3600Y58543D01*
X4041Y58325D01*
X4507Y58167D01*
X4980Y58073D01*
Y61300D01*
D02*
G37*
G36*
X28980Y61560D02*
X25924D01*
Y59488D01*
X28980D01*
Y61560D01*
D02*
G37*
G36*
X9207Y61300D02*
X5980D01*
Y58073D01*
X6453Y58167D01*
X6919Y58325D01*
X7360Y58543D01*
X7769Y58816D01*
X8139Y59141D01*
X8464Y59511D01*
X8737Y59920D01*
X8954Y60361D01*
X9113Y60827D01*
X9207Y61300D01*
D02*
G37*
G36*
X92804Y55300D02*
X90437D01*
Y52244D01*
X92804D01*
Y55300D01*
D02*
G37*
G36*
X19233Y55553D02*
X11727D01*
Y48047D01*
X19233D01*
Y55553D01*
D02*
G37*
G36*
X176480Y63561D02*
X175989Y63529D01*
X175507Y63433D01*
X175041Y63275D01*
X174600Y63057D01*
X174191Y62784D01*
X173821Y62459D01*
X173496Y62089D01*
X173223Y61680D01*
X173005Y61239D01*
X172847Y60773D01*
X172751Y60291D01*
X172719Y59800D01*
X172751Y59309D01*
X172847Y58827D01*
X173005Y58361D01*
X173223Y57920D01*
X173496Y57511D01*
X173821Y57141D01*
X174191Y56816D01*
X174600Y56543D01*
X175041Y56326D01*
X175507Y56167D01*
X175989Y56071D01*
X176480Y56039D01*
X176971Y56071D01*
X177453Y56167D01*
X177919Y56326D01*
X178360Y56543D01*
X178769Y56816D01*
X179139Y57141D01*
X179464Y57511D01*
X179737Y57920D01*
X179955Y58361D01*
X180113Y58827D01*
X180209Y59309D01*
X180241Y59800D01*
X180209Y60291D01*
X180113Y60773D01*
X179955Y61239D01*
X179737Y61680D01*
X179464Y62089D01*
X179139Y62459D01*
X178769Y62784D01*
X178360Y63057D01*
X177919Y63275D01*
X177453Y63433D01*
X176971Y63529D01*
X176480Y63561D01*
D02*
G37*
G36*
X89437Y59356D02*
X87070D01*
Y56300D01*
X89437D01*
Y59356D01*
D02*
G37*
G36*
X186480Y63561D02*
X185989Y63529D01*
X185507Y63433D01*
X185041Y63275D01*
X184600Y63057D01*
X184191Y62784D01*
X183821Y62459D01*
X183496Y62089D01*
X183223Y61680D01*
X183005Y61239D01*
X182847Y60773D01*
X182751Y60291D01*
X182719Y59800D01*
X182751Y59309D01*
X182847Y58827D01*
X183005Y58361D01*
X183223Y57920D01*
X183496Y57511D01*
X183821Y57141D01*
X184191Y56816D01*
X184600Y56543D01*
X185041Y56326D01*
X185507Y56167D01*
X185989Y56071D01*
X186480Y56039D01*
X186971Y56071D01*
X187453Y56167D01*
X187919Y56326D01*
X188360Y56543D01*
X188769Y56816D01*
X189139Y57141D01*
X189464Y57511D01*
X189737Y57920D01*
X189954Y58361D01*
X190113Y58827D01*
X190209Y59309D01*
X190241Y59800D01*
X190209Y60291D01*
X190113Y60773D01*
X189954Y61239D01*
X189737Y61680D01*
X189464Y62089D01*
X189139Y62459D01*
X188769Y62784D01*
X188360Y63057D01*
X187919Y63275D01*
X187453Y63433D01*
X186971Y63529D01*
X186480Y63561D01*
D02*
G37*
G36*
X4980Y65527D02*
X4507Y65433D01*
X4041Y65275D01*
X3600Y65057D01*
X3191Y64784D01*
X2821Y64459D01*
X2496Y64089D01*
X2223Y63680D01*
X2005Y63239D01*
X1847Y62773D01*
X1753Y62300D01*
X4980D01*
Y65527D01*
D02*
G37*
G36*
X92804Y63300D02*
X90437D01*
Y60244D01*
X92804D01*
Y63300D01*
D02*
G37*
G36*
X5980Y65527D02*
Y62300D01*
X9207D01*
X9113Y62773D01*
X8954Y63239D01*
X8737Y63680D01*
X8464Y64089D01*
X8139Y64459D01*
X7769Y64784D01*
X7360Y65057D01*
X6919Y65275D01*
X6453Y65433D01*
X5980Y65527D01*
D02*
G37*
G36*
X28980Y64631D02*
X25924D01*
Y62560D01*
X28980D01*
Y64631D01*
D02*
G37*
G36*
X37980D02*
X34924D01*
Y62560D01*
X37980D01*
Y64631D01*
D02*
G37*
G36*
Y61560D02*
X34924D01*
Y59488D01*
X37980D01*
Y61560D01*
D02*
G37*
G36*
X33036D02*
X29980D01*
Y59488D01*
X33036D01*
Y61560D01*
D02*
G37*
G36*
X42036D02*
X38980D01*
Y59488D01*
X42036D01*
Y61560D01*
D02*
G37*
G36*
X89437Y63300D02*
X87070D01*
Y60244D01*
X89437D01*
Y63300D01*
D02*
G37*
G36*
X46980Y61820D02*
X43924D01*
Y59748D01*
X46980D01*
Y61820D01*
D02*
G37*
G36*
X190233Y33553D02*
X186980D01*
Y30300D01*
X190233D01*
Y33553D01*
D02*
G37*
G36*
X185980D02*
X182727D01*
Y30300D01*
X185980D01*
Y33553D01*
D02*
G37*
G36*
X47980Y34527D02*
X47507Y34433D01*
X47041Y34275D01*
X46600Y34057D01*
X46191Y33784D01*
X45821Y33459D01*
X45496Y33089D01*
X45223Y32680D01*
X45006Y32239D01*
X44847Y31773D01*
X44753Y31300D01*
X47980D01*
Y34527D01*
D02*
G37*
G36*
X6980Y33891D02*
X3924D01*
Y31820D01*
X6980D01*
Y33891D01*
D02*
G37*
G36*
X48980Y34527D02*
Y31300D01*
X52207D01*
X52113Y31773D01*
X51955Y32239D01*
X51737Y32680D01*
X51464Y33089D01*
X51139Y33459D01*
X50769Y33784D01*
X50360Y34057D01*
X49919Y34275D01*
X49453Y34433D01*
X48980Y34527D01*
D02*
G37*
G36*
X101240Y30309D02*
X99365D01*
Y28237D01*
X101240D01*
Y30309D01*
D02*
G37*
G36*
X52207Y30300D02*
X48980D01*
Y27073D01*
X49453Y27167D01*
X49919Y27325D01*
X50360Y27543D01*
X50769Y27816D01*
X51139Y28141D01*
X51464Y28511D01*
X51737Y28920D01*
X51955Y29361D01*
X52113Y29827D01*
X52207Y30300D01*
D02*
G37*
G36*
X104115Y30309D02*
X102240D01*
Y28237D01*
X104115D01*
Y30309D01*
D02*
G37*
G36*
X11036Y30820D02*
X7980D01*
Y28748D01*
X11036D01*
Y30820D01*
D02*
G37*
G36*
X6980D02*
X3924D01*
Y28748D01*
X6980D01*
Y30820D01*
D02*
G37*
G36*
X100917Y39356D02*
X98747D01*
Y36300D01*
X100917D01*
Y39356D01*
D02*
G37*
G36*
X157480Y66985D02*
X157138Y66958D01*
X156805Y66878D01*
X156488Y66747D01*
X156196Y66567D01*
X155935Y66345D01*
X155713Y66084D01*
X155533Y65792D01*
X155402Y65475D01*
X155322Y65142D01*
X155295Y64800D01*
X155322Y64458D01*
X155402Y64125D01*
X155533Y63808D01*
X155713Y63516D01*
X155935Y63255D01*
X156196Y63033D01*
X156274Y62985D01*
Y56800D01*
X156274Y56800D01*
X156297Y56565D01*
X156366Y56339D01*
X156477Y56130D01*
X156627Y55947D01*
X168627Y43947D01*
X168627Y43947D01*
X168810Y43797D01*
X169019Y43686D01*
X169245Y43617D01*
X169480Y43594D01*
X174558D01*
X174675Y43094D01*
X174600Y43057D01*
X174191Y42784D01*
X173821Y42459D01*
X173496Y42089D01*
X173223Y41680D01*
X173005Y41239D01*
X172847Y40773D01*
X172751Y40291D01*
X172719Y39800D01*
X172751Y39309D01*
X172847Y38827D01*
X173005Y38361D01*
X173223Y37920D01*
X173496Y37511D01*
X173821Y37141D01*
X174191Y36816D01*
X174600Y36543D01*
X175041Y36325D01*
X175507Y36167D01*
X175989Y36071D01*
X176480Y36039D01*
X176971Y36071D01*
X177453Y36167D01*
X177919Y36325D01*
X178360Y36543D01*
X178769Y36816D01*
X179139Y37141D01*
X179464Y37511D01*
X179737Y37920D01*
X179955Y38361D01*
X180113Y38827D01*
X180209Y39309D01*
X180241Y39800D01*
X180209Y40291D01*
X180113Y40773D01*
X179955Y41239D01*
X179737Y41680D01*
X179464Y42089D01*
X179139Y42459D01*
X178769Y42784D01*
X178360Y43057D01*
X178285Y43094D01*
X178402Y43594D01*
X182981D01*
X183830Y42745D01*
X183821Y42459D01*
X183496Y42089D01*
X183223Y41680D01*
X183005Y41239D01*
X182847Y40773D01*
X182751Y40291D01*
X182719Y39800D01*
X182751Y39309D01*
X182847Y38827D01*
X183005Y38361D01*
X183223Y37920D01*
X183496Y37511D01*
X183821Y37141D01*
X184191Y36816D01*
X184600Y36543D01*
X185041Y36325D01*
X185507Y36167D01*
X185989Y36071D01*
X186480Y36039D01*
X186971Y36071D01*
X187453Y36167D01*
X187919Y36325D01*
X188360Y36543D01*
X188769Y36816D01*
X189139Y37141D01*
X189464Y37511D01*
X189737Y37920D01*
X189954Y38361D01*
X190113Y38827D01*
X190209Y39309D01*
X190241Y39800D01*
X190209Y40291D01*
X190113Y40773D01*
X189954Y41239D01*
X189737Y41680D01*
X189464Y42089D01*
X189139Y42459D01*
X188769Y42784D01*
X188360Y43057D01*
X187919Y43275D01*
X187453Y43433D01*
X186971Y43529D01*
X186480Y43561D01*
X186428Y43557D01*
X184333Y45653D01*
X184150Y45803D01*
X183941Y45914D01*
X183715Y45983D01*
X183480Y46006D01*
X183480Y46006D01*
X178402D01*
X178285Y46506D01*
X178360Y46543D01*
X178769Y46816D01*
X179139Y47141D01*
X179464Y47511D01*
X179737Y47920D01*
X179955Y48361D01*
X180113Y48827D01*
X180209Y49309D01*
X180241Y49800D01*
X180209Y50291D01*
X180113Y50773D01*
X179955Y51239D01*
X179737Y51680D01*
X179464Y52089D01*
X179139Y52459D01*
X178769Y52784D01*
X178360Y53057D01*
X177919Y53275D01*
X177453Y53433D01*
X176971Y53529D01*
X176480Y53561D01*
X175989Y53529D01*
X175507Y53433D01*
X175041Y53275D01*
X174600Y53057D01*
X174191Y52784D01*
X173821Y52459D01*
X173496Y52089D01*
X173223Y51680D01*
X173005Y51239D01*
X172847Y50773D01*
X172751Y50291D01*
X172719Y49800D01*
X172751Y49309D01*
X172847Y48827D01*
X173005Y48361D01*
X173223Y47920D01*
X173496Y47511D01*
X173821Y47141D01*
X174191Y46816D01*
X174600Y46543D01*
X174675Y46506D01*
X174558Y46006D01*
X169980D01*
X158686Y57300D01*
Y62985D01*
X158764Y63033D01*
X159025Y63255D01*
X159247Y63516D01*
X159427Y63808D01*
X159558Y64125D01*
X159638Y64458D01*
X159665Y64800D01*
X159638Y65142D01*
X159558Y65475D01*
X159427Y65792D01*
X159247Y66084D01*
X159025Y66345D01*
X158764Y66567D01*
X158472Y66747D01*
X158155Y66878D01*
X157822Y66958D01*
X157480Y66985D01*
D02*
G37*
G36*
X104087Y39356D02*
X101917D01*
Y36300D01*
X104087D01*
Y39356D01*
D02*
G37*
G36*
X5480Y55561D02*
X4989Y55529D01*
X4507Y55433D01*
X4041Y55274D01*
X3600Y55057D01*
X3191Y54784D01*
X2821Y54459D01*
X2496Y54089D01*
X2223Y53680D01*
X2005Y53239D01*
X1847Y52773D01*
X1751Y52291D01*
X1719Y51800D01*
X1751Y51309D01*
X1847Y50827D01*
X2005Y50361D01*
X2223Y49920D01*
X2496Y49511D01*
X2821Y49141D01*
X3191Y48816D01*
X3600Y48543D01*
X4041Y48325D01*
X4507Y48167D01*
X4989Y48071D01*
X5480Y48039D01*
X5971Y48071D01*
X6453Y48167D01*
X6919Y48325D01*
X7360Y48543D01*
X7769Y48816D01*
X8139Y49141D01*
X8464Y49511D01*
X8737Y49920D01*
X8954Y50361D01*
X9113Y50827D01*
X9209Y51309D01*
X9241Y51800D01*
X9209Y52291D01*
X9113Y52773D01*
X8954Y53239D01*
X8737Y53680D01*
X8464Y54089D01*
X8139Y54459D01*
X7769Y54784D01*
X7360Y55057D01*
X6919Y55274D01*
X6453Y55433D01*
X5971Y55529D01*
X5480Y55561D01*
D02*
G37*
G36*
X19036Y41470D02*
X11924D01*
Y40006D01*
X11036D01*
Y41372D01*
X3924D01*
Y36228D01*
X11036D01*
Y37594D01*
X11924D01*
Y36130D01*
X19036D01*
Y41470D01*
D02*
G37*
G36*
X96213Y47356D02*
X90873D01*
Y45006D01*
X88480D01*
X88245Y44983D01*
X88019Y44914D01*
X87810Y44803D01*
X87627Y44653D01*
X87627Y44653D01*
X79911Y36936D01*
X79822Y36958D01*
X79480Y36985D01*
X79138Y36958D01*
X78805Y36878D01*
X78488Y36747D01*
X78196Y36567D01*
X77935Y36345D01*
X77713Y36084D01*
X77533Y35792D01*
X77402Y35475D01*
X77322Y35142D01*
X77295Y34800D01*
X77322Y34458D01*
X77402Y34125D01*
X77533Y33808D01*
X77713Y33516D01*
X77935Y33255D01*
X78196Y33033D01*
X78488Y32853D01*
X78805Y32722D01*
X79138Y32642D01*
X79480Y32615D01*
X79822Y32642D01*
X80155Y32722D01*
X80472Y32853D01*
X80764Y33033D01*
X81025Y33255D01*
X81247Y33516D01*
X81427Y33808D01*
X81558Y34125D01*
X81638Y34458D01*
X81665Y34800D01*
X81638Y35142D01*
X81616Y35231D01*
X88980Y42594D01*
X90873D01*
Y40244D01*
X92300D01*
Y39356D01*
X90873D01*
Y32244D01*
X96213D01*
Y39356D01*
X94912D01*
Y40244D01*
X96213D01*
Y47356D01*
D02*
G37*
G36*
X11036Y33891D02*
X7980D01*
Y31820D01*
X11036D01*
Y33891D01*
D02*
G37*
G36*
X100917Y35300D02*
X98747D01*
Y32244D01*
X100917D01*
Y35300D01*
D02*
G37*
G36*
X71480Y54985D02*
X71138Y54958D01*
X70805Y54878D01*
X70488Y54747D01*
X70196Y54567D01*
X69935Y54345D01*
X69713Y54084D01*
X69533Y53792D01*
X69402Y53475D01*
X69322Y53142D01*
X69295Y52800D01*
X69322Y52458D01*
X69402Y52125D01*
X69533Y51808D01*
X69713Y51516D01*
X69935Y51255D01*
X70196Y51033D01*
X70237Y51007D01*
Y47356D01*
X68873D01*
Y40244D01*
X70174D01*
Y38309D01*
X69105D01*
Y33165D01*
X73855D01*
Y38309D01*
X72786D01*
Y40244D01*
X74213D01*
Y47356D01*
X72849D01*
Y51105D01*
X73025Y51255D01*
X73247Y51516D01*
X73427Y51808D01*
X73558Y52125D01*
X73638Y52458D01*
X73665Y52800D01*
X73638Y53142D01*
X73558Y53475D01*
X73427Y53792D01*
X73247Y54084D01*
X73025Y54345D01*
X72764Y54567D01*
X72472Y54747D01*
X72155Y54878D01*
X71822Y54958D01*
X71480Y54985D01*
D02*
G37*
G36*
X104087Y35300D02*
X101917D01*
Y32244D01*
X104087D01*
Y35300D01*
D02*
G37*
G36*
X43276Y167300D02*
X41106D01*
Y164244D01*
X43276D01*
Y167300D01*
D02*
G37*
G36*
X40106D02*
X37936D01*
Y164244D01*
X40106D01*
Y167300D01*
D02*
G37*
G36*
X98776Y171139D02*
X93633D01*
Y166980D01*
X98776D01*
Y167854D01*
X112245D01*
X112295Y167800D01*
X112322Y167458D01*
X112402Y167125D01*
X112533Y166808D01*
X112713Y166516D01*
X112935Y166255D01*
X113196Y166033D01*
X113488Y165853D01*
X113805Y165722D01*
X114138Y165642D01*
X114480Y165615D01*
X114822Y165642D01*
X115155Y165722D01*
X115472Y165853D01*
X115764Y166033D01*
X116025Y166255D01*
X116247Y166516D01*
X116427Y166808D01*
X116558Y167125D01*
X116638Y167458D01*
X116665Y167800D01*
X116638Y168142D01*
X116558Y168475D01*
X116427Y168792D01*
X116247Y169084D01*
X116025Y169345D01*
X115764Y169567D01*
X115472Y169747D01*
X115155Y169878D01*
X114822Y169958D01*
X114480Y169985D01*
X114138Y169958D01*
X114045Y169935D01*
X113890Y170062D01*
X113682Y170174D01*
X113455Y170243D01*
X113220Y170266D01*
X113220Y170266D01*
X98776D01*
Y171139D01*
D02*
G37*
G36*
X145150Y178356D02*
X139810D01*
Y171244D01*
X141174D01*
Y169360D01*
X139463D01*
Y165201D01*
X145394D01*
Y169360D01*
X143786D01*
Y171244D01*
X145150D01*
Y178356D01*
D02*
G37*
G36*
X11207Y167300D02*
X7980D01*
Y164073D01*
X8453Y164167D01*
X8919Y164325D01*
X9360Y164543D01*
X9769Y164816D01*
X10139Y165141D01*
X10464Y165511D01*
X10737Y165920D01*
X10954Y166361D01*
X11113Y166827D01*
X11207Y167300D01*
D02*
G37*
G36*
X36036Y162344D02*
X28924D01*
Y160880D01*
X28036D01*
Y162344D01*
X20924D01*
Y157004D01*
X28036D01*
Y158468D01*
X28924D01*
Y157004D01*
X36036D01*
Y162344D01*
D02*
G37*
G36*
X8280Y162120D02*
Y160500D01*
X9900D01*
X9858Y160675D01*
X9727Y160992D01*
X9547Y161284D01*
X9325Y161545D01*
X9064Y161767D01*
X8772Y161947D01*
X8455Y162078D01*
X8280Y162120D01*
D02*
G37*
G36*
X6980Y167300D02*
X3753D01*
X3847Y166827D01*
X4005Y166361D01*
X4223Y165920D01*
X4496Y165511D01*
X4821Y165141D01*
X5191Y164816D01*
X5600Y164543D01*
X6041Y164325D01*
X6507Y164167D01*
X6980Y164073D01*
Y167300D01*
D02*
G37*
G36*
X154980Y166780D02*
X151727D01*
Y163921D01*
X154980D01*
Y166780D01*
D02*
G37*
G36*
X6980Y171527D02*
X6507Y171433D01*
X6041Y171274D01*
X5600Y171057D01*
X5191Y170784D01*
X4821Y170459D01*
X4496Y170089D01*
X4223Y169680D01*
X4005Y169239D01*
X3847Y168773D01*
X3753Y168300D01*
X6980D01*
Y171527D01*
D02*
G37*
G36*
X40106Y171356D02*
X37936D01*
Y168300D01*
X40106D01*
Y171356D01*
D02*
G37*
G36*
X43276D02*
X41106D01*
Y168300D01*
X43276D01*
Y171356D01*
D02*
G37*
G36*
X7980Y171527D02*
Y168300D01*
X11207D01*
X11113Y168773D01*
X10954Y169239D01*
X10737Y169680D01*
X10464Y170089D01*
X10139Y170459D01*
X9769Y170784D01*
X9360Y171057D01*
X8919Y171274D01*
X8453Y171433D01*
X7980Y171527D01*
D02*
G37*
G36*
X154980Y170640D02*
X151727D01*
Y167780D01*
X154980D01*
Y170640D01*
D02*
G37*
G36*
X29839Y169300D02*
X26980D01*
Y166047D01*
X29839D01*
Y169300D01*
D02*
G37*
G36*
X25980D02*
X23121D01*
Y166047D01*
X25980D01*
Y169300D01*
D02*
G37*
G36*
X21233Y169820D02*
X17980D01*
Y166961D01*
X21233D01*
Y169820D01*
D02*
G37*
G36*
X16980D02*
X13727D01*
Y166961D01*
X16980D01*
Y169820D01*
D02*
G37*
G36*
X7280Y162120D02*
X7105Y162078D01*
X6788Y161947D01*
X6496Y161767D01*
X6235Y161545D01*
X6013Y161284D01*
X5833Y160992D01*
X5702Y160675D01*
X5660Y160500D01*
X7280D01*
Y162120D01*
D02*
G37*
G36*
X97480Y164985D02*
X97138Y164958D01*
X96805Y164878D01*
X96488Y164747D01*
X96196Y164567D01*
X95935Y164345D01*
X95713Y164084D01*
X95533Y163792D01*
X95402Y163475D01*
X95322Y163142D01*
X95295Y162800D01*
X95320Y162487D01*
X94430Y161598D01*
X94268Y161400D01*
X94147Y161174D01*
X94073Y160929D01*
X94048Y160674D01*
Y158356D01*
X92684D01*
Y151244D01*
X98024D01*
Y158356D01*
X96660D01*
Y160133D01*
X97167Y160640D01*
X97480Y160615D01*
X97822Y160642D01*
X98155Y160722D01*
X98472Y160853D01*
X98764Y161033D01*
X99025Y161255D01*
X99229Y161494D01*
X114939D01*
X117774Y158659D01*
X117567Y158159D01*
X114727D01*
Y151441D01*
X122233D01*
Y158159D01*
X120786D01*
Y158800D01*
X120761Y159055D01*
X120687Y159300D01*
X120566Y159526D01*
X120404Y159724D01*
X120404Y159724D01*
X116404Y163724D01*
X116206Y163886D01*
X115980Y164007D01*
X115735Y164081D01*
X115480Y164106D01*
X99229D01*
X99025Y164345D01*
X98764Y164567D01*
X98472Y164747D01*
X98155Y164878D01*
X97822Y164958D01*
X97480Y164985D01*
D02*
G37*
G36*
X9700Y151400D02*
X8080D01*
Y149780D01*
X8255Y149822D01*
X8572Y149953D01*
X8864Y150133D01*
X9125Y150355D01*
X9347Y150616D01*
X9527Y150908D01*
X9658Y151225D01*
X9700Y151400D01*
D02*
G37*
G36*
X7080Y154020D02*
X6905Y153978D01*
X6588Y153847D01*
X6296Y153667D01*
X6035Y153445D01*
X5813Y153184D01*
X5633Y152892D01*
X5502Y152575D01*
X5460Y152400D01*
X7080D01*
Y154020D01*
D02*
G37*
G36*
X161036Y153407D02*
X153924D01*
Y151943D01*
X152036D01*
Y153407D01*
X144924D01*
Y151943D01*
X143036D01*
Y153407D01*
X135924D01*
Y148067D01*
X143036D01*
Y149531D01*
X144924D01*
Y148067D01*
X152036D01*
Y149531D01*
X153924D01*
Y148067D01*
X161036D01*
Y153407D01*
D02*
G37*
G36*
X7080Y151400D02*
X5460D01*
X5502Y151225D01*
X5633Y150908D01*
X5813Y150616D01*
X6035Y150355D01*
X6296Y150133D01*
X6588Y149953D01*
X6905Y149822D01*
X7080Y149780D01*
Y151400D01*
D02*
G37*
G36*
X167874Y153316D02*
X162652D01*
Y149079D01*
X167874D01*
Y153316D01*
D02*
G37*
G36*
X122233Y150679D02*
X118980D01*
Y147820D01*
X122233D01*
Y150679D01*
D02*
G37*
G36*
X174095Y153316D02*
X168874D01*
Y149079D01*
X174095D01*
Y153316D01*
D02*
G37*
G36*
X189527D02*
X184306D01*
Y149079D01*
X189527D01*
Y153316D01*
D02*
G37*
G36*
X9900Y159500D02*
X8280D01*
Y157880D01*
X8455Y157922D01*
X8772Y158053D01*
X9064Y158233D01*
X9325Y158455D01*
X9547Y158716D01*
X9727Y159008D01*
X9858Y159325D01*
X9900Y159500D01*
D02*
G37*
G36*
X7280D02*
X5660D01*
X5702Y159325D01*
X5833Y159008D01*
X6013Y158716D01*
X6235Y158455D01*
X6496Y158233D01*
X6788Y158053D01*
X7105Y157922D01*
X7280Y157880D01*
Y159500D01*
D02*
G37*
G36*
X20233Y162639D02*
X16980D01*
Y159780D01*
X20233D01*
Y162639D01*
D02*
G37*
G36*
X15980D02*
X12727D01*
Y159780D01*
X15980D01*
Y162639D01*
D02*
G37*
G36*
X114036Y157344D02*
X106924D01*
Y155980D01*
X106036D01*
Y157344D01*
X98924D01*
Y152004D01*
X106036D01*
Y153368D01*
X106924D01*
Y152004D01*
X114036D01*
Y157344D01*
D02*
G37*
G36*
X178216Y160017D02*
X177813Y159986D01*
X177419Y159891D01*
X177045Y159736D01*
X176700Y159525D01*
X176392Y159262D01*
X176129Y158954D01*
X175918Y158609D01*
X175763Y158235D01*
X175668Y157841D01*
X175637Y157438D01*
X175668Y157034D01*
X175763Y156641D01*
X175918Y156267D01*
X176129Y155922D01*
X176392Y155614D01*
X176700Y155351D01*
X177045Y155139D01*
X177419Y154984D01*
X177813Y154890D01*
X178216Y154858D01*
X178620Y154890D01*
X179013Y154984D01*
X179387Y155139D01*
X179732Y155351D01*
X180040Y155614D01*
X180303Y155922D01*
X180515Y156267D01*
X180670Y156641D01*
X180764Y157034D01*
X180796Y157438D01*
X180764Y157841D01*
X180670Y158235D01*
X180515Y158609D01*
X180303Y158954D01*
X180040Y159262D01*
X179732Y159525D01*
X179387Y159736D01*
X179013Y159891D01*
X178620Y159986D01*
X178216Y160017D01*
D02*
G37*
G36*
X8080Y154020D02*
Y152400D01*
X9700D01*
X9658Y152575D01*
X9527Y152892D01*
X9347Y153184D01*
X9125Y153445D01*
X8864Y153667D01*
X8572Y153847D01*
X8255Y153978D01*
X8080Y154020D01*
D02*
G37*
G36*
X20233Y158780D02*
X16980D01*
Y155921D01*
X20233D01*
Y158780D01*
D02*
G37*
G36*
X15980D02*
X12727D01*
Y155921D01*
X15980D01*
Y158780D01*
D02*
G37*
G36*
X33929Y192985D02*
X33587Y192958D01*
X33254Y192878D01*
X32937Y192747D01*
X32645Y192567D01*
X32384Y192345D01*
X32161Y192084D01*
X31982Y191792D01*
X31851Y191475D01*
X31771Y191142D01*
X31744Y190800D01*
X31771Y190458D01*
X31851Y190125D01*
X31982Y189808D01*
X32161Y189516D01*
X32384Y189255D01*
X32645Y189033D01*
X32723Y188985D01*
Y187360D01*
X31357D01*
Y183201D01*
Y182040D01*
X33929D01*
X36500D01*
Y183201D01*
Y187360D01*
X35135D01*
Y188985D01*
X35213Y189033D01*
X35474Y189255D01*
X35696Y189516D01*
X35875Y189808D01*
X36007Y190125D01*
X36087Y190458D01*
X36114Y190800D01*
X36087Y191142D01*
X36007Y191475D01*
X35875Y191792D01*
X35696Y192084D01*
X35474Y192345D01*
X35213Y192567D01*
X34921Y192747D01*
X34604Y192878D01*
X34271Y192958D01*
X33929Y192985D01*
D02*
G37*
G36*
X45233Y184780D02*
X41980D01*
Y181921D01*
X45233D01*
Y184780D01*
D02*
G37*
G36*
X21036Y184363D02*
X17980D01*
Y182193D01*
X21036D01*
Y184363D01*
D02*
G37*
G36*
X16980D02*
X13924D01*
Y182193D01*
X16980D01*
Y184363D01*
D02*
G37*
G36*
X40980Y184780D02*
X37727D01*
Y181921D01*
X40980D01*
Y184780D01*
D02*
G37*
G36*
X167874Y183119D02*
X162652D01*
Y178882D01*
X167874D01*
Y183119D01*
D02*
G37*
G36*
X189527D02*
X184306D01*
Y178882D01*
X189527D01*
Y183119D01*
D02*
G37*
G36*
X45233Y181159D02*
X37727D01*
Y179609D01*
X36500D01*
Y181040D01*
X33929D01*
X31357D01*
Y179461D01*
Y175721D01*
X32152D01*
Y173553D01*
X30601D01*
Y166047D01*
X37319D01*
Y173553D01*
X35769D01*
Y175721D01*
X36500D01*
Y175991D01*
X37727D01*
Y174441D01*
X45233D01*
Y175991D01*
X45924D01*
Y175130D01*
X47671D01*
Y174800D01*
X47706Y174447D01*
X47809Y174108D01*
X47976Y173795D01*
X48201Y173521D01*
X49904Y171818D01*
X49713Y171356D01*
X45810D01*
Y164244D01*
X47274D01*
Y163159D01*
X44727D01*
Y160880D01*
X44036D01*
Y162344D01*
X36924D01*
Y157004D01*
X44036D01*
Y158468D01*
X44727D01*
Y156441D01*
X52233D01*
Y158594D01*
X53665D01*
X53713Y158516D01*
X53935Y158255D01*
X54196Y158033D01*
X54488Y157853D01*
X54805Y157722D01*
X55138Y157642D01*
X55480Y157615D01*
X55822Y157642D01*
X56155Y157722D01*
X56472Y157853D01*
X56764Y158033D01*
X57025Y158255D01*
X57247Y158516D01*
X57427Y158808D01*
X57474Y158924D01*
X57974Y158825D01*
Y154961D01*
X58000Y154766D01*
X57965Y154648D01*
X57649Y154266D01*
X52233D01*
Y155679D01*
X44727D01*
Y149522D01*
X44536Y149369D01*
X44036Y149606D01*
Y154470D01*
X36924D01*
Y153006D01*
X36036D01*
Y154470D01*
X28924D01*
X28924Y149283D01*
X28480Y149129D01*
X28036Y149283D01*
Y154470D01*
X20924D01*
Y153609D01*
X20233D01*
Y155159D01*
X12727D01*
Y148441D01*
X20233D01*
Y149991D01*
X20924D01*
Y149130D01*
X23174D01*
Y148800D01*
X23199Y148545D01*
X23273Y148300D01*
X23394Y148074D01*
X23556Y147876D01*
X24556Y146876D01*
X24556Y146876D01*
X24754Y146714D01*
X24980Y146593D01*
X25225Y146519D01*
X25480Y146494D01*
X46671D01*
Y144800D01*
X46706Y144447D01*
X46809Y144108D01*
X46976Y143795D01*
X47201Y143521D01*
X49560Y141162D01*
X49496Y141089D01*
X49223Y140680D01*
X49005Y140239D01*
X48847Y139773D01*
X48751Y139291D01*
X48719Y138800D01*
X48751Y138309D01*
X48847Y137827D01*
X49005Y137361D01*
X49223Y136920D01*
X49496Y136511D01*
X49821Y136141D01*
X50191Y135816D01*
X50600Y135543D01*
X51041Y135326D01*
X51507Y135167D01*
X51989Y135071D01*
X52480Y135039D01*
X52971Y135071D01*
X53453Y135167D01*
X53919Y135326D01*
X54360Y135543D01*
X54769Y135816D01*
X55139Y136141D01*
X55464Y136511D01*
X55737Y136920D01*
X55954Y137361D01*
X56113Y137827D01*
X56209Y138309D01*
X56241Y138800D01*
X56209Y139291D01*
X56113Y139773D01*
X55954Y140239D01*
X55737Y140680D01*
X55464Y141089D01*
X55139Y141459D01*
X54769Y141784D01*
X54360Y142057D01*
X53919Y142274D01*
X53453Y142433D01*
X53393Y142445D01*
X50289Y145549D01*
Y148960D01*
X52233D01*
Y151854D01*
X59152D01*
Y149567D01*
X69808D01*
Y153956D01*
X69980D01*
X70240Y153990D01*
X70483Y154091D01*
X70691Y154250D01*
X70851Y154459D01*
X70951Y154701D01*
X70986Y154961D01*
Y158961D01*
X70951Y159222D01*
X70851Y159464D01*
X70691Y159672D01*
X70483Y159832D01*
X70240Y159933D01*
X69980Y159967D01*
X69808D01*
Y164356D01*
X68287D01*
Y168800D01*
X68259Y169009D01*
X68179Y169203D01*
X68051Y169371D01*
X66461Y170960D01*
Y174372D01*
X61240D01*
Y171800D01*
X60240D01*
Y174372D01*
X55019D01*
Y173609D01*
X53229D01*
X52170Y174668D01*
X52361Y175130D01*
X53036D01*
Y180470D01*
X45924D01*
Y179609D01*
X45233D01*
Y181159D01*
D02*
G37*
G36*
X174095Y183119D02*
X168874D01*
Y178882D01*
X174095D01*
Y183119D01*
D02*
G37*
G36*
X45233Y188639D02*
X41980D01*
Y185780D01*
X45233D01*
Y188639D01*
D02*
G37*
G36*
X40980D02*
X37727D01*
Y185780D01*
X40980D01*
Y188639D01*
D02*
G37*
G36*
X94579Y192553D02*
X91720D01*
Y189300D01*
X94579D01*
Y192553D01*
D02*
G37*
G36*
X90720D02*
X87861D01*
Y189300D01*
X90720D01*
Y192553D01*
D02*
G37*
G36*
X21036Y187533D02*
X17980D01*
Y185363D01*
X21036D01*
Y187533D01*
D02*
G37*
G36*
X189527Y188356D02*
X184306D01*
Y184119D01*
X189527D01*
Y188356D01*
D02*
G37*
G36*
X167874D02*
X162652D01*
Y184119D01*
X167874D01*
Y188356D01*
D02*
G37*
G36*
X16980Y187533D02*
X13924D01*
Y185363D01*
X16980D01*
Y187533D01*
D02*
G37*
G36*
X174095Y188356D02*
X168874D01*
Y184119D01*
X174095D01*
Y188356D01*
D02*
G37*
G36*
X127831Y196106D02*
X127576Y196081D01*
X127331Y196007D01*
X127105Y195886D01*
X126907Y195724D01*
X126907Y195724D01*
X123556Y192373D01*
X123394Y192175D01*
X123273Y191949D01*
X123199Y191704D01*
X123174Y191449D01*
Y181800D01*
Y178371D01*
X122674Y178164D01*
X122289Y178549D01*
Y180583D01*
X122427Y180808D01*
X122558Y181125D01*
X122638Y181458D01*
X122665Y181800D01*
X122638Y182142D01*
X122558Y182475D01*
X122427Y182792D01*
X122289Y183017D01*
Y183800D01*
X122254Y184153D01*
X122151Y184492D01*
X121984Y184805D01*
X121759Y185079D01*
X118499Y188339D01*
X118225Y188564D01*
X117912Y188731D01*
X117573Y188834D01*
X117220Y188868D01*
X110402D01*
Y189041D01*
X104668D01*
Y189024D01*
X104168Y188817D01*
X101347Y191638D01*
Y192781D01*
X100174D01*
X99686Y192800D01*
X99663Y193035D01*
X99594Y193261D01*
X99483Y193470D01*
X99333Y193653D01*
X99333Y193653D01*
X97333Y195653D01*
X97150Y195803D01*
X96941Y195914D01*
X96715Y195983D01*
X96480Y196006D01*
X96480Y196006D01*
X29380D01*
X29380Y196006D01*
X29380Y196006D01*
X22480D01*
X22245Y195983D01*
X22018Y195914D01*
X21810Y195803D01*
X21627Y195653D01*
X21627Y195653D01*
X21509Y195534D01*
X21036Y195407D01*
Y195407D01*
X21036Y195407D01*
X13924D01*
Y190067D01*
X21036D01*
Y191707D01*
X21087Y191734D01*
X21270Y191884D01*
X22979Y193594D01*
X25816D01*
X26007Y193132D01*
X23627Y190753D01*
X23477Y190570D01*
X23366Y190361D01*
X23297Y190135D01*
X23274Y189900D01*
X23274Y189900D01*
Y187360D01*
X21908D01*
Y183201D01*
X27052D01*
Y187360D01*
X25686D01*
Y189400D01*
X29880Y193594D01*
X63274D01*
Y192002D01*
X61889D01*
Y190804D01*
X61389Y190597D01*
X60433Y191553D01*
X60250Y191703D01*
X60041Y191814D01*
X59815Y191883D01*
X59580Y191906D01*
X59580Y191906D01*
X51380D01*
X51380Y191906D01*
X51145Y191883D01*
X50919Y191814D01*
X50710Y191703D01*
X50527Y191553D01*
X50527Y191553D01*
X48627Y189653D01*
X48477Y189470D01*
X48366Y189261D01*
X48297Y189035D01*
X48274Y188800D01*
X48186Y188344D01*
X45924D01*
Y183004D01*
X53036D01*
Y188344D01*
X51383D01*
X51191Y188806D01*
X51880Y189494D01*
X59080D01*
X59534Y189041D01*
Y183820D01*
X58205D01*
Y185467D01*
X58247Y185516D01*
X58427Y185808D01*
X58558Y186125D01*
X58638Y186458D01*
X58665Y186800D01*
X58638Y187142D01*
X58558Y187475D01*
X58427Y187792D01*
X58247Y188084D01*
X58025Y188345D01*
X57764Y188567D01*
X57472Y188747D01*
X57155Y188878D01*
X56822Y188958D01*
X56480Y188985D01*
X56138Y188958D01*
X55805Y188878D01*
X55488Y188747D01*
X55196Y188567D01*
X54935Y188345D01*
X54713Y188084D01*
X54533Y187792D01*
X54402Y187475D01*
X54322Y187142D01*
X54295Y186800D01*
X54322Y186458D01*
X54402Y186125D01*
X54533Y185808D01*
X54713Y185516D01*
X54935Y185255D01*
X55196Y185033D01*
X55488Y184853D01*
X55794Y184727D01*
Y183820D01*
X55019D01*
Y178677D01*
X66461D01*
Y179943D01*
X69930D01*
Y177772D01*
X79425D01*
X79632Y177272D01*
X78189Y175828D01*
X69930D01*
Y168717D01*
X72913D01*
X73278Y168391D01*
Y163209D01*
X79682D01*
Y168391D01*
X80047Y168717D01*
X83030D01*
Y175234D01*
X84184D01*
Y173300D01*
X86756D01*
X89327D01*
Y174461D01*
Y178620D01*
X84184D01*
Y177847D01*
X83030D01*
Y179943D01*
X83401D01*
X83656Y179968D01*
X83833Y180021D01*
X87008D01*
X87262Y180046D01*
X87507Y180121D01*
X87733Y180242D01*
X87931Y180404D01*
X89541Y182013D01*
X95613D01*
Y181339D01*
X96518D01*
X96709Y180877D01*
X95281Y179448D01*
X95118Y179250D01*
X94998Y179024D01*
X94923Y178779D01*
X94907Y178620D01*
X93633D01*
Y174461D01*
X98776D01*
Y178620D01*
X98776D01*
X98592Y179065D01*
X99404Y179876D01*
X99566Y180074D01*
X99687Y180300D01*
X99761Y180545D01*
X99786Y180800D01*
Y181339D01*
X101347D01*
Y185301D01*
X95613D01*
Y184626D01*
X94769D01*
X94579Y185047D01*
X94579Y185126D01*
Y188300D01*
X91220D01*
X87861D01*
Y185047D01*
X88494D01*
X88568Y184547D01*
X88500Y184526D01*
X88274Y184406D01*
X88076Y184243D01*
X88076Y184243D01*
X86466Y182634D01*
X85046D01*
Y185047D01*
X87099D01*
Y192553D01*
X80381D01*
Y192157D01*
X79945Y192002D01*
Y192002D01*
X74763D01*
Y190106D01*
X73229D01*
X73025Y190345D01*
X72764Y190567D01*
X72472Y190747D01*
X72155Y190878D01*
X71822Y190958D01*
X71480Y190985D01*
X71138Y190958D01*
X70805Y190878D01*
X70488Y190747D01*
X70196Y190567D01*
X69935Y190345D01*
X69713Y190084D01*
X69533Y189792D01*
X69402Y189475D01*
X69322Y189142D01*
X69295Y188800D01*
X69322Y188458D01*
X69402Y188125D01*
X69533Y187808D01*
X69713Y187516D01*
X69935Y187255D01*
X70196Y187033D01*
X70488Y186853D01*
X70805Y186722D01*
X71138Y186642D01*
X71480Y186615D01*
X71822Y186642D01*
X72155Y186722D01*
X72472Y186853D01*
X72764Y187033D01*
X73025Y187255D01*
X73229Y187494D01*
X74763D01*
Y185598D01*
X79945D01*
Y185598D01*
X80191Y185510D01*
X80194Y185282D01*
X79734Y184883D01*
X69930D01*
Y182555D01*
X66461D01*
Y183820D01*
X61946D01*
Y185598D01*
X67071D01*
Y192002D01*
X65686D01*
Y193594D01*
X95981D01*
X96332Y193243D01*
X96140Y192781D01*
X95613D01*
Y188819D01*
X100756D01*
X102274Y187301D01*
Y182800D01*
X102274Y182800D01*
X102297Y182565D01*
X102366Y182339D01*
X102477Y182130D01*
X102627Y181947D01*
X103627Y180947D01*
X103627Y180947D01*
X103810Y180797D01*
X104019Y180686D01*
X104245Y180617D01*
X104480Y180594D01*
X106981D01*
X109727Y177848D01*
Y171047D01*
X116527D01*
X122274Y165301D01*
Y161800D01*
X122274Y161800D01*
X122297Y161565D01*
X122366Y161339D01*
X122477Y161130D01*
X122627Y160947D01*
X128627Y154947D01*
X128810Y154797D01*
X129019Y154686D01*
X129245Y154617D01*
X129480Y154594D01*
X137200D01*
X137201Y154591D01*
X137281Y154397D01*
X137409Y154229D01*
X137576Y154101D01*
X137771Y154021D01*
X137980Y153993D01*
X172980D01*
X173189Y154021D01*
X173383Y154101D01*
X173551Y154229D01*
X173679Y154397D01*
X173759Y154591D01*
X173787Y154800D01*
Y157816D01*
X173759Y158025D01*
X173679Y158219D01*
X173551Y158386D01*
X173383Y158515D01*
X173308Y158546D01*
Y161165D01*
Y164315D01*
Y167464D01*
Y168749D01*
X167980D01*
X162652D01*
Y167464D01*
Y163107D01*
X161786D01*
Y179800D01*
X161786Y179800D01*
X161761Y180055D01*
X161687Y180300D01*
X161566Y180526D01*
X161404Y180724D01*
X159278Y182850D01*
X159080Y183012D01*
X158854Y183133D01*
X158609Y183207D01*
X158354Y183232D01*
X151536D01*
Y184596D01*
X144424D01*
Y183232D01*
X142036D01*
Y184596D01*
X134924D01*
Y179256D01*
X142036D01*
Y180620D01*
X144424D01*
Y179256D01*
X151536D01*
Y180620D01*
X157813D01*
X159174Y179259D01*
Y170640D01*
X155980D01*
Y167280D01*
Y163921D01*
X159174D01*
Y163159D01*
X151727D01*
Y163159D01*
X151227Y163107D01*
X140480Y163107D01*
X140271Y163079D01*
X140077Y162999D01*
X139910Y162871D01*
X139689Y162650D01*
X139561Y162483D01*
X139480Y162288D01*
X139453Y162080D01*
X139263Y161890D01*
X139055Y161863D01*
X138860Y161782D01*
X138693Y161654D01*
X137409Y160371D01*
X137281Y160204D01*
X137201Y160009D01*
X137173Y159800D01*
X137173Y157006D01*
X129980D01*
X129735Y157251D01*
X129945Y157732D01*
X129974Y157743D01*
X130015Y157720D01*
Y157720D01*
X135945D01*
Y161461D01*
Y163040D01*
X132980D01*
Y164040D01*
X135945D01*
Y165201D01*
Y169360D01*
X134280D01*
X134261Y169555D01*
X134187Y169800D01*
X134066Y170026D01*
X133904Y170224D01*
X133904Y170224D01*
X125786Y178341D01*
Y179305D01*
X125924Y179748D01*
X133036D01*
Y184891D01*
X125924D01*
X125786Y185334D01*
Y186785D01*
X125924Y187228D01*
X133036D01*
Y188494D01*
X134924D01*
Y187130D01*
X142036D01*
Y192470D01*
X134924D01*
Y191106D01*
X133036D01*
Y192372D01*
X127903D01*
X127712Y192834D01*
X128372Y193494D01*
X144939D01*
X145501Y192932D01*
X145309Y192470D01*
X144424D01*
Y187130D01*
X151536D01*
Y188494D01*
X154732D01*
X154935Y188255D01*
X155196Y188033D01*
X155488Y187853D01*
X155805Y187722D01*
X156138Y187642D01*
X156480Y187615D01*
X156822Y187642D01*
X157155Y187722D01*
X157472Y187853D01*
X157764Y188033D01*
X158025Y188255D01*
X158247Y188516D01*
X158427Y188808D01*
X158558Y189125D01*
X158638Y189458D01*
X158665Y189800D01*
X158638Y190142D01*
X158558Y190475D01*
X158427Y190792D01*
X158247Y191084D01*
X158025Y191345D01*
X157764Y191567D01*
X157472Y191747D01*
X157155Y191878D01*
X156822Y191958D01*
X156480Y191985D01*
X156138Y191958D01*
X155805Y191878D01*
X155488Y191747D01*
X155196Y191567D01*
X154935Y191345D01*
X154732Y191106D01*
X151536D01*
Y192470D01*
X149269D01*
X149261Y192555D01*
X149187Y192800D01*
X149066Y193026D01*
X148904Y193224D01*
X148904Y193224D01*
X146404Y195724D01*
X146206Y195886D01*
X145980Y196007D01*
X145735Y196081D01*
X145480Y196106D01*
X127831D01*
X127831Y196106D01*
D02*
G37*
G36*
X149854Y174300D02*
X147684D01*
Y171244D01*
X149854D01*
Y174300D01*
D02*
G37*
G36*
X103480Y178561D02*
X102989Y178529D01*
X102507Y178433D01*
X102041Y178275D01*
X101600Y178057D01*
X101191Y177784D01*
X100821Y177459D01*
X100496Y177089D01*
X100223Y176680D01*
X100005Y176239D01*
X99847Y175773D01*
X99751Y175291D01*
X99719Y174800D01*
X99751Y174309D01*
X99847Y173827D01*
X100005Y173361D01*
X100223Y172920D01*
X100496Y172511D01*
X100821Y172141D01*
X101191Y171816D01*
X101600Y171543D01*
X102041Y171326D01*
X102507Y171167D01*
X102989Y171071D01*
X103480Y171039D01*
X103971Y171071D01*
X104453Y171167D01*
X104919Y171326D01*
X105360Y171543D01*
X105769Y171816D01*
X106139Y172141D01*
X106464Y172511D01*
X106737Y172920D01*
X106955Y173361D01*
X107113Y173827D01*
X107209Y174309D01*
X107241Y174800D01*
X107209Y175291D01*
X107113Y175773D01*
X106955Y176239D01*
X106737Y176680D01*
X106464Y177089D01*
X106139Y177459D01*
X105769Y177784D01*
X105360Y178057D01*
X104919Y178275D01*
X104453Y178433D01*
X103971Y178529D01*
X103480Y178561D01*
D02*
G37*
G36*
X178216Y177340D02*
X177813Y177308D01*
X177419Y177214D01*
X177045Y177059D01*
X176700Y176847D01*
X176392Y176584D01*
X176129Y176276D01*
X175918Y175931D01*
X175763Y175557D01*
X175668Y175164D01*
X175637Y174760D01*
X175668Y174357D01*
X175763Y173963D01*
X175918Y173589D01*
X176129Y173244D01*
X176392Y172936D01*
X176700Y172673D01*
X177045Y172462D01*
X177419Y172307D01*
X177813Y172212D01*
X178216Y172181D01*
X178620Y172212D01*
X179013Y172307D01*
X179387Y172462D01*
X179732Y172673D01*
X180040Y172936D01*
X180303Y173244D01*
X180515Y173589D01*
X180670Y173963D01*
X180764Y174357D01*
X180796Y174760D01*
X180764Y175164D01*
X180670Y175557D01*
X180515Y175931D01*
X180303Y176276D01*
X180040Y176584D01*
X179732Y176847D01*
X179387Y177059D01*
X179013Y177214D01*
X178620Y177308D01*
X178216Y177340D01*
D02*
G37*
G36*
X153024Y174300D02*
X150854D01*
Y171244D01*
X153024D01*
Y174300D01*
D02*
G37*
G36*
X21233Y173679D02*
X17980D01*
Y170820D01*
X21233D01*
Y173679D01*
D02*
G37*
G36*
X25980Y173553D02*
X23121D01*
Y170300D01*
X25980D01*
Y173553D01*
D02*
G37*
G36*
X173308Y171898D02*
X167980D01*
X162652D01*
Y170614D01*
Y169749D01*
X167980D01*
X173308D01*
Y170614D01*
Y171898D01*
D02*
G37*
G36*
X16980Y173679D02*
X13727D01*
Y170820D01*
X16980D01*
Y173679D01*
D02*
G37*
G36*
X29839Y173553D02*
X26980D01*
Y170300D01*
X29839D01*
Y173553D01*
D02*
G37*
G36*
X11233Y181553D02*
X3727D01*
Y174047D01*
X11233D01*
Y175991D01*
X13727D01*
Y174441D01*
X21233D01*
Y175991D01*
X21908D01*
Y175721D01*
X27052D01*
Y179879D01*
X21908D01*
Y179609D01*
X21233D01*
Y181159D01*
X13727D01*
Y179609D01*
X11233D01*
Y181553D01*
D02*
G37*
G36*
X153024Y178356D02*
X150854D01*
Y175300D01*
X153024D01*
Y178356D01*
D02*
G37*
G36*
X132980Y177920D02*
Y176300D01*
X134600D01*
X134558Y176475D01*
X134427Y176792D01*
X134247Y177084D01*
X134025Y177345D01*
X133764Y177567D01*
X133472Y177747D01*
X133155Y177878D01*
X132980Y177920D01*
D02*
G37*
G36*
X131980D02*
X131805Y177878D01*
X131488Y177747D01*
X131196Y177567D01*
X130935Y177345D01*
X130713Y177084D01*
X130533Y176792D01*
X130402Y176475D01*
X130360Y176300D01*
X131980D01*
Y177920D01*
D02*
G37*
G36*
X149854Y178356D02*
X147684D01*
Y175300D01*
X149854D01*
Y178356D01*
D02*
G37*
G36*
X173308Y174182D02*
X168480D01*
Y172898D01*
X173308D01*
Y174182D01*
D02*
G37*
G36*
X167480D02*
X162652D01*
Y172898D01*
X167480D01*
Y174182D01*
D02*
G37*
G36*
X134600Y175300D02*
X132980D01*
Y173680D01*
X133155Y173722D01*
X133472Y173853D01*
X133764Y174033D01*
X134025Y174255D01*
X134247Y174516D01*
X134427Y174808D01*
X134558Y175125D01*
X134600Y175300D01*
D02*
G37*
G36*
X131980D02*
X130360D01*
X130402Y175125D01*
X130533Y174808D01*
X130713Y174516D01*
X130935Y174255D01*
X131196Y174033D01*
X131488Y173853D01*
X131805Y173722D01*
X131980Y173680D01*
Y175300D01*
D02*
G37*
G36*
X117980Y150679D02*
X114727D01*
Y147820D01*
X117980D01*
Y150679D01*
D02*
G37*
G36*
X118240Y139174D02*
X116365D01*
Y137102D01*
X118240D01*
Y139174D01*
D02*
G37*
G36*
X45036Y138470D02*
X37924D01*
Y137006D01*
X35036D01*
Y138372D01*
X27924D01*
Y133228D01*
X35036D01*
Y134594D01*
X37924D01*
Y133130D01*
X45036D01*
Y138470D01*
D02*
G37*
G36*
X121115Y139174D02*
X119240D01*
Y137102D01*
X121115D01*
Y139174D01*
D02*
G37*
G36*
X15480Y145561D02*
X14989Y145529D01*
X14507Y145433D01*
X14041Y145274D01*
X13600Y145057D01*
X13191Y144784D01*
X12821Y144459D01*
X12496Y144089D01*
X12223Y143680D01*
X12005Y143239D01*
X11847Y142773D01*
X11751Y142291D01*
X11719Y141800D01*
X11751Y141309D01*
X11847Y140827D01*
X12005Y140361D01*
X12223Y139920D01*
X12496Y139511D01*
X12821Y139141D01*
X13191Y138816D01*
X13600Y138543D01*
X14041Y138326D01*
X14507Y138167D01*
X14989Y138071D01*
X15480Y138039D01*
X15971Y138071D01*
X16453Y138167D01*
X16919Y138326D01*
X17360Y138543D01*
X17769Y138816D01*
X18139Y139141D01*
X18464Y139511D01*
X18737Y139920D01*
X18955Y140361D01*
X19113Y140827D01*
X19209Y141309D01*
X19241Y141800D01*
X19209Y142291D01*
X19113Y142773D01*
X18955Y143239D01*
X18737Y143680D01*
X18464Y144089D01*
X18139Y144459D01*
X17769Y144784D01*
X17360Y145057D01*
X16919Y145274D01*
X16453Y145433D01*
X15971Y145529D01*
X15480Y145561D01*
D02*
G37*
G36*
X126220Y150725D02*
X125878Y150698D01*
X125545Y150618D01*
X125228Y150487D01*
X124936Y150308D01*
X124675Y150085D01*
X124453Y149824D01*
X124274Y149532D01*
X124143Y149215D01*
X124062Y148882D01*
X124036Y148540D01*
X124062Y148198D01*
X124143Y147865D01*
X124274Y147548D01*
X124453Y147256D01*
X124675Y146995D01*
X124914Y146792D01*
Y142246D01*
X123845D01*
Y137102D01*
X128595D01*
Y142246D01*
X127526D01*
Y146792D01*
X127765Y146995D01*
X127988Y147256D01*
X128167Y147548D01*
X128298Y147865D01*
X128378Y148198D01*
X128405Y148540D01*
X128378Y148882D01*
X128298Y149215D01*
X128167Y149532D01*
X127988Y149824D01*
X127765Y150085D01*
X127504Y150308D01*
X127212Y150487D01*
X126895Y150618D01*
X126562Y150698D01*
X126220Y150725D01*
D02*
G37*
G36*
X152036Y145533D02*
X144924D01*
Y140193D01*
X147174D01*
Y133494D01*
X144325Y130645D01*
X143863Y130836D01*
Y132387D01*
X139232D01*
Y129823D01*
X142850D01*
X143041Y129361D01*
X138556Y124876D01*
X138394Y124678D01*
X138273Y124452D01*
X138199Y124207D01*
X138174Y123953D01*
Y108907D01*
X137674Y108883D01*
X137663Y108995D01*
X137594Y109221D01*
X137483Y109430D01*
X137333Y109613D01*
X133549Y113396D01*
X133740Y113858D01*
X133901D01*
Y117111D01*
X131337D01*
Y116261D01*
X130876Y116070D01*
X121609Y125337D01*
X121638Y125458D01*
X121665Y125800D01*
X121638Y126142D01*
X121558Y126475D01*
X121427Y126792D01*
X121247Y127084D01*
X121025Y127345D01*
X120764Y127567D01*
X120472Y127747D01*
X120155Y127878D01*
X119822Y127958D01*
X119480Y127985D01*
X119138Y127958D01*
X118805Y127878D01*
X118488Y127747D01*
X118196Y127567D01*
X117935Y127345D01*
X117713Y127084D01*
X117533Y126792D01*
X117402Y126475D01*
X117322Y126142D01*
X117295Y125800D01*
X117322Y125458D01*
X117402Y125125D01*
X117533Y124808D01*
X117713Y124516D01*
X117935Y124255D01*
X118196Y124033D01*
X118488Y123853D01*
X118805Y123722D01*
X119138Y123642D01*
X119480Y123615D01*
X119822Y123642D01*
X119879Y123656D01*
X135274Y108261D01*
Y92299D01*
X131981Y89006D01*
X119796D01*
X116040Y92762D01*
X116057Y92932D01*
X116020Y93301D01*
X115913Y93656D01*
X115738Y93983D01*
X115503Y94270D01*
X112440Y97332D01*
X112154Y97567D01*
X111827Y97742D01*
X111472Y97850D01*
X111103Y97886D01*
X110734Y97850D01*
X110379Y97742D01*
X110052Y97567D01*
X109765Y97332D01*
X109530Y97045D01*
X109355Y96718D01*
X109247Y96363D01*
X109220Y96084D01*
X109211Y95994D01*
X109108Y95902D01*
X108732Y95758D01*
X101766Y102724D01*
X101568Y102886D01*
X101342Y103007D01*
X101284Y103025D01*
X101247Y103084D01*
X101025Y103345D01*
X100764Y103567D01*
X100472Y103747D01*
X100155Y103878D01*
X99822Y103958D01*
X99480Y103985D01*
X99138Y103958D01*
X98805Y103878D01*
X98488Y103747D01*
X98196Y103567D01*
X97935Y103345D01*
X97713Y103084D01*
X97533Y102792D01*
X97402Y102475D01*
X97322Y102142D01*
X97295Y101800D01*
X97322Y101458D01*
X97402Y101125D01*
X97533Y100808D01*
X97713Y100516D01*
X97935Y100255D01*
X98196Y100033D01*
X98488Y99853D01*
X98805Y99722D01*
X99138Y99642D01*
X99480Y99615D01*
X99822Y99642D01*
X100155Y99722D01*
X100472Y99853D01*
X100763Y100032D01*
X106884Y93911D01*
X106741Y93534D01*
X106649Y93432D01*
X106558Y93423D01*
X106279Y93395D01*
X105924Y93288D01*
X105597Y93113D01*
X105311Y92878D01*
X105076Y92591D01*
X104901Y92264D01*
X104793Y91909D01*
X104766Y91630D01*
X104757Y91540D01*
X104702Y91486D01*
X104200Y91381D01*
X101858Y93724D01*
X101660Y93886D01*
X101434Y94007D01*
X101189Y94081D01*
X100934Y94106D01*
X98480D01*
X98225Y94081D01*
X97980Y94007D01*
X97754Y93886D01*
X97556Y93724D01*
X97556Y93724D01*
X95980Y92147D01*
X94786Y93341D01*
Y104051D01*
X95025Y104255D01*
X95247Y104516D01*
X95427Y104808D01*
X95558Y105125D01*
X95638Y105458D01*
X95665Y105800D01*
X95638Y106142D01*
X95558Y106475D01*
X95427Y106792D01*
X95247Y107084D01*
X95025Y107345D01*
X94786Y107548D01*
Y113617D01*
X94786Y113617D01*
X94763Y113854D01*
X95085Y114245D01*
X95549Y114249D01*
X95848Y113950D01*
X95857Y113860D01*
X95885Y113581D01*
X95992Y113226D01*
X96167Y112899D01*
X96402Y112612D01*
X96689Y112377D01*
X97016Y112202D01*
X97371Y112095D01*
X97650Y112067D01*
X97740Y112058D01*
X98075Y111723D01*
X98084Y111633D01*
X98112Y111354D01*
X98219Y110999D01*
X98394Y110672D01*
X98629Y110385D01*
X98916Y110150D01*
X99243Y109975D01*
X99598Y109868D01*
X99877Y109840D01*
X99967Y109831D01*
X100303Y109496D01*
X100311Y109406D01*
X100339Y109127D01*
X100446Y108772D01*
X100621Y108445D01*
X100857Y108158D01*
X101143Y107923D01*
X101470Y107748D01*
X101825Y107641D01*
X102104Y107613D01*
X102194Y107604D01*
X102530Y107269D01*
X102539Y107179D01*
X102566Y106900D01*
X102674Y106545D01*
X102848Y106218D01*
X103084Y105931D01*
X103370Y105696D01*
X103697Y105521D01*
X104052Y105413D01*
X104331Y105386D01*
X104421Y105377D01*
X104757Y105042D01*
X104766Y104952D01*
X104793Y104673D01*
X104901Y104318D01*
X105076Y103991D01*
X105311Y103704D01*
X105597Y103469D01*
X105924Y103294D01*
X106279Y103186D01*
X106558Y103159D01*
X106649Y103150D01*
X106984Y102815D01*
X106993Y102725D01*
X107020Y102446D01*
X107128Y102091D01*
X107303Y101764D01*
X107538Y101477D01*
X107825Y101242D01*
X108152Y101067D01*
X108507Y100959D01*
X108785Y100932D01*
X108876Y100923D01*
X109211Y100587D01*
X109220Y100497D01*
X109247Y100218D01*
X109355Y99864D01*
X109530Y99537D01*
X109765Y99250D01*
X110052Y99015D01*
X110379Y98840D01*
X110734Y98732D01*
X111103Y98696D01*
X111472Y98732D01*
X111827Y98840D01*
X112154Y99015D01*
X112440Y99250D01*
X115503Y102312D01*
X115738Y102599D01*
X115913Y102926D01*
X116020Y103281D01*
X116057Y103650D01*
X116020Y104019D01*
X115913Y104374D01*
X115738Y104701D01*
X115503Y104988D01*
X115216Y105223D01*
X114889Y105398D01*
X114534Y105505D01*
X114255Y105533D01*
X114165Y105542D01*
X113830Y105877D01*
X113813Y106047D01*
X114360Y106594D01*
X115981D01*
X124274Y98300D01*
Y95615D01*
X124196Y95567D01*
X123935Y95345D01*
X123713Y95084D01*
X123533Y94792D01*
X123402Y94475D01*
X123322Y94142D01*
X123295Y93800D01*
X123322Y93458D01*
X123402Y93125D01*
X123533Y92808D01*
X123713Y92516D01*
X123935Y92255D01*
X124196Y92033D01*
X124488Y91853D01*
X124805Y91722D01*
X125138Y91642D01*
X125480Y91615D01*
X125822Y91642D01*
X126155Y91722D01*
X126472Y91853D01*
X126764Y92033D01*
X127025Y92255D01*
X127247Y92516D01*
X127427Y92808D01*
X127558Y93125D01*
X127638Y93458D01*
X127665Y93800D01*
X127638Y94142D01*
X127558Y94475D01*
X127427Y94792D01*
X127247Y95084D01*
X127025Y95345D01*
X126764Y95567D01*
X126686Y95615D01*
Y98800D01*
X126663Y99035D01*
X126594Y99261D01*
X126483Y99470D01*
X126333Y99653D01*
X126333Y99653D01*
X122953Y103032D01*
X123145Y103494D01*
X123732D01*
X123935Y103255D01*
X124196Y103033D01*
X124488Y102853D01*
X124805Y102722D01*
X125138Y102642D01*
X125480Y102615D01*
X125822Y102642D01*
X126155Y102722D01*
X126472Y102853D01*
X126764Y103033D01*
X127025Y103255D01*
X127247Y103516D01*
X127427Y103808D01*
X127558Y104125D01*
X127638Y104458D01*
X127665Y104800D01*
X127638Y105142D01*
X127558Y105475D01*
X127427Y105792D01*
X127247Y106084D01*
X127025Y106345D01*
X126764Y106567D01*
X126472Y106747D01*
X126155Y106878D01*
X125822Y106958D01*
X125480Y106985D01*
X125138Y106958D01*
X124805Y106878D01*
X124488Y106747D01*
X124196Y106567D01*
X123935Y106345D01*
X123732Y106106D01*
X123021D01*
X120086Y109041D01*
X120155Y109277D01*
X120326Y109509D01*
X120480Y109494D01*
X120480Y109494D01*
X123732D01*
X123935Y109255D01*
X124196Y109033D01*
X124488Y108853D01*
X124805Y108722D01*
X125138Y108642D01*
X125480Y108615D01*
X125822Y108642D01*
X126155Y108722D01*
X126472Y108853D01*
X126764Y109033D01*
X127025Y109255D01*
X127247Y109516D01*
X127427Y109808D01*
X127558Y110125D01*
X127638Y110458D01*
X127665Y110800D01*
X127638Y111142D01*
X127558Y111475D01*
X127427Y111792D01*
X127247Y112084D01*
X127025Y112345D01*
X126764Y112567D01*
X126472Y112747D01*
X126155Y112878D01*
X125822Y112958D01*
X125480Y112985D01*
X125138Y112958D01*
X124805Y112878D01*
X124488Y112747D01*
X124196Y112567D01*
X123935Y112345D01*
X123732Y112106D01*
X121021D01*
X116404Y116724D01*
X116206Y116886D01*
X115980Y117007D01*
X115735Y117081D01*
X115480Y117106D01*
X108498D01*
X108498Y117106D01*
X108244Y117081D01*
X107998Y117007D01*
X107773Y116886D01*
X107575Y116724D01*
X107575Y116724D01*
X105669Y114818D01*
X105302Y114890D01*
X105184Y115235D01*
X109333Y119383D01*
X109333Y119383D01*
X109483Y119566D01*
X109594Y119774D01*
X109663Y120001D01*
X109686Y120236D01*
Y122985D01*
X109764Y123033D01*
X110025Y123255D01*
X110247Y123516D01*
X110427Y123808D01*
X110558Y124125D01*
X110638Y124458D01*
X110665Y124800D01*
X110638Y125142D01*
X110558Y125475D01*
X110427Y125792D01*
X110247Y126084D01*
X110025Y126345D01*
X109764Y126567D01*
X109472Y126747D01*
X109155Y126878D01*
X108822Y126958D01*
X108480Y126985D01*
X108138Y126958D01*
X107805Y126878D01*
X107488Y126747D01*
X107196Y126567D01*
X106935Y126345D01*
X106713Y126084D01*
X106533Y125792D01*
X106402Y125475D01*
X106322Y125142D01*
X106295Y124800D01*
X106322Y124458D01*
X106402Y124125D01*
X106533Y123808D01*
X106713Y123516D01*
X106935Y123255D01*
X107196Y123033D01*
X107274Y122985D01*
Y120735D01*
X103479Y116940D01*
X103135Y117058D01*
X103062Y117425D01*
X104404Y118766D01*
X104566Y118964D01*
X104687Y119190D01*
X104761Y119435D01*
X104786Y119690D01*
X104786Y119690D01*
Y129259D01*
X106021Y130494D01*
X107924D01*
Y129130D01*
X115036D01*
Y130494D01*
X120105D01*
Y129228D01*
X124855D01*
Y134372D01*
X120105D01*
Y133106D01*
X115036D01*
Y134470D01*
X107924D01*
Y133106D01*
X105480D01*
X105480Y133106D01*
X105225Y133081D01*
X104980Y133007D01*
X104754Y132886D01*
X104556Y132724D01*
X104556Y132724D01*
X102556Y130724D01*
X102394Y130526D01*
X102273Y130300D01*
X102199Y130055D01*
X102174Y129800D01*
Y120231D01*
X100946Y119004D01*
X100569Y119147D01*
X100467Y119240D01*
X100458Y119330D01*
X100431Y119609D01*
X100323Y119964D01*
X100213Y120170D01*
X97398Y117355D01*
X97044Y117708D01*
X96691Y117355D01*
X95353Y118693D01*
X94175Y117515D01*
X93940Y117228D01*
X93765Y116901D01*
X93658Y116546D01*
X93621Y116177D01*
X93637Y116014D01*
X93157Y115787D01*
X92807Y116137D01*
X92811Y116177D01*
X92775Y116546D01*
X92667Y116901D01*
X92493Y117228D01*
X92257Y117515D01*
X90695Y119078D01*
Y129244D01*
X92260D01*
Y136356D01*
X90723D01*
Y137494D01*
X103606D01*
X103861Y137519D01*
X104106Y137593D01*
X104332Y137714D01*
X104530Y137876D01*
X105021Y138368D01*
X107924D01*
Y137004D01*
X115036D01*
Y142344D01*
X107924D01*
Y140980D01*
X104480D01*
X104225Y140955D01*
X103980Y140881D01*
X103754Y140760D01*
X103556Y140598D01*
X103556Y140598D01*
X103065Y140106D01*
X85036D01*
Y141470D01*
X77924D01*
Y140106D01*
X77036D01*
Y141667D01*
X69924D01*
Y140106D01*
X66233D01*
Y142553D01*
X58727D01*
Y135047D01*
X61174D01*
Y131341D01*
X59065Y129232D01*
X45036D01*
Y130596D01*
X37924D01*
Y125256D01*
X45036D01*
Y126620D01*
X59606D01*
X59861Y126645D01*
X60106Y126719D01*
X60332Y126840D01*
X60530Y127002D01*
X63404Y129876D01*
X63566Y130074D01*
X63687Y130300D01*
X63761Y130545D01*
X63786Y130800D01*
X63786Y130800D01*
Y135047D01*
X66233D01*
Y137494D01*
X69924D01*
Y135933D01*
X77036D01*
Y137494D01*
X77924D01*
Y136130D01*
X85036D01*
Y137494D01*
X88111D01*
Y136356D01*
X86526D01*
Y129244D01*
X88082D01*
Y121335D01*
X87857Y121131D01*
X87488Y121095D01*
X87133Y120987D01*
X86806Y120812D01*
X86520Y120577D01*
X86284Y120291D01*
X86110Y119964D01*
X86002Y119609D01*
X85974Y119330D01*
X85966Y119240D01*
X85497Y118891D01*
X85460Y118887D01*
X77695Y126653D01*
X77513Y126803D01*
X77304Y126914D01*
X77078Y126983D01*
X76843Y127006D01*
X76842Y127006D01*
X63480D01*
X63480Y127006D01*
X63245Y126983D01*
X63019Y126914D01*
X62810Y126803D01*
X62627Y126653D01*
X62627Y126653D01*
X60627Y124653D01*
X60477Y124470D01*
X60366Y124261D01*
X60297Y124035D01*
X60274Y123800D01*
X60274Y123800D01*
Y122615D01*
X60196Y122567D01*
X59935Y122345D01*
X59713Y122084D01*
X59533Y121792D01*
X59402Y121475D01*
X59322Y121142D01*
X59295Y120800D01*
X59322Y120458D01*
X59402Y120125D01*
X59533Y119808D01*
X59713Y119516D01*
X59935Y119255D01*
X60196Y119033D01*
X60488Y118853D01*
X60805Y118722D01*
X61138Y118642D01*
X61480Y118615D01*
X61822Y118642D01*
X62155Y118722D01*
X62472Y118853D01*
X62764Y119033D01*
X63025Y119255D01*
X63247Y119516D01*
X63427Y119808D01*
X63558Y120125D01*
X63638Y120458D01*
X63665Y120800D01*
X63638Y121142D01*
X63558Y121475D01*
X63427Y121792D01*
X63247Y122084D01*
X63025Y122345D01*
X62764Y122567D01*
X62686Y122615D01*
Y123301D01*
X63980Y124594D01*
X76343D01*
X83551Y117386D01*
X83447Y116969D01*
X83029Y116864D01*
X78241Y121653D01*
X78058Y121803D01*
X77850Y121914D01*
X77624Y121983D01*
X77388Y122006D01*
X77388Y122006D01*
X77295D01*
X77247Y122084D01*
X77025Y122345D01*
X76764Y122567D01*
X76472Y122747D01*
X76155Y122878D01*
X75822Y122958D01*
X75480Y122985D01*
X75138Y122958D01*
X74805Y122878D01*
X74488Y122747D01*
X74196Y122567D01*
X73935Y122345D01*
X73713Y122084D01*
X73533Y121792D01*
X73402Y121475D01*
X73322Y121142D01*
X73295Y120800D01*
X73322Y120458D01*
X73402Y120125D01*
X73533Y119808D01*
X73713Y119516D01*
X73935Y119255D01*
X74196Y119033D01*
X74488Y118853D01*
X74805Y118722D01*
X75138Y118642D01*
X75480Y118615D01*
X75822Y118642D01*
X76155Y118722D01*
X76472Y118853D01*
X76764Y119033D01*
X77025Y119255D01*
X77220Y119263D01*
X81324Y115159D01*
X81220Y114742D01*
X80802Y114637D01*
X78787Y116653D01*
X78604Y116803D01*
X78396Y116914D01*
X78170Y116983D01*
X77934Y117006D01*
X77934Y117006D01*
X70979D01*
X69686Y118299D01*
Y118985D01*
X69764Y119033D01*
X70025Y119255D01*
X70247Y119516D01*
X70427Y119808D01*
X70558Y120125D01*
X70638Y120458D01*
X70665Y120800D01*
X70638Y121142D01*
X70558Y121475D01*
X70427Y121792D01*
X70247Y122084D01*
X70025Y122345D01*
X69764Y122567D01*
X69472Y122747D01*
X69155Y122878D01*
X68822Y122958D01*
X68480Y122985D01*
X68138Y122958D01*
X67805Y122878D01*
X67488Y122747D01*
X67196Y122567D01*
X66935Y122345D01*
X66713Y122084D01*
X66533Y121792D01*
X66402Y121475D01*
X66322Y121142D01*
X66295Y120800D01*
X66322Y120458D01*
X66402Y120125D01*
X66533Y119808D01*
X66713Y119516D01*
X66935Y119255D01*
X67196Y119033D01*
X67274Y118985D01*
Y117800D01*
X67274Y117800D01*
X67297Y117565D01*
X67366Y117339D01*
X67477Y117130D01*
X67627Y116947D01*
X69627Y114947D01*
X69627Y114947D01*
X69810Y114797D01*
X70019Y114686D01*
X70245Y114617D01*
X70480Y114594D01*
X70480Y114594D01*
X77435D01*
X79097Y112932D01*
X78992Y112515D01*
X78575Y112410D01*
X77333Y113653D01*
X77150Y113803D01*
X76941Y113914D01*
X76715Y113983D01*
X76480Y114006D01*
X76480Y114006D01*
X39480D01*
X39480Y114006D01*
X39245Y113983D01*
X39019Y113914D01*
X38810Y113803D01*
X38627Y113653D01*
X38627Y113653D01*
X33627Y108653D01*
X33477Y108470D01*
X33366Y108261D01*
X33297Y108035D01*
X33274Y107800D01*
X33274Y107800D01*
Y106615D01*
X33196Y106567D01*
X32935Y106345D01*
X32713Y106084D01*
X32533Y105792D01*
X32402Y105475D01*
X32322Y105142D01*
X32295Y104800D01*
X32322Y104458D01*
X32402Y104125D01*
X32533Y103808D01*
X32713Y103516D01*
X32935Y103255D01*
X33196Y103033D01*
X33488Y102853D01*
X33805Y102722D01*
X34138Y102642D01*
X34480Y102615D01*
X34822Y102642D01*
X35057Y102699D01*
X35248Y102471D01*
X35326Y102260D01*
X31172Y98106D01*
X27229D01*
X27025Y98345D01*
X26764Y98567D01*
X26472Y98747D01*
X26155Y98878D01*
X25822Y98958D01*
X25480Y98985D01*
X25138Y98958D01*
X24805Y98878D01*
X24488Y98747D01*
X24196Y98567D01*
X23935Y98345D01*
X23713Y98084D01*
X23533Y97792D01*
X23402Y97475D01*
X23322Y97142D01*
X23295Y96800D01*
X23322Y96458D01*
X23402Y96125D01*
X23533Y95808D01*
X23713Y95516D01*
X23935Y95255D01*
X24196Y95033D01*
X24488Y94853D01*
X24805Y94722D01*
X25138Y94642D01*
X25480Y94615D01*
X25822Y94642D01*
X26155Y94722D01*
X26472Y94853D01*
X26764Y95033D01*
X27025Y95255D01*
X27229Y95494D01*
X30310D01*
X30501Y95032D01*
X28576Y93106D01*
X19000D01*
X18955Y93239D01*
X18737Y93680D01*
X18464Y94089D01*
X18139Y94459D01*
X17769Y94784D01*
X17360Y95057D01*
X16919Y95275D01*
X16453Y95433D01*
X15971Y95529D01*
X15480Y95561D01*
X14989Y95529D01*
X14507Y95433D01*
X14041Y95275D01*
X13600Y95057D01*
X13191Y94784D01*
X12821Y94459D01*
X12496Y94089D01*
X12223Y93680D01*
X12005Y93239D01*
X11847Y92773D01*
X11751Y92291D01*
X11719Y91800D01*
X11751Y91309D01*
X11847Y90827D01*
X12005Y90361D01*
X12223Y89920D01*
X12496Y89511D01*
X12821Y89141D01*
X13191Y88816D01*
X13600Y88543D01*
X14041Y88326D01*
X14507Y88167D01*
X14989Y88071D01*
X15480Y88039D01*
X15971Y88071D01*
X16453Y88167D01*
X16919Y88326D01*
X17360Y88543D01*
X17769Y88816D01*
X18139Y89141D01*
X18464Y89511D01*
X18737Y89920D01*
X18955Y90361D01*
X19000Y90494D01*
X29117D01*
X29372Y90519D01*
X29617Y90593D01*
X29842Y90714D01*
X30040Y90876D01*
X40804Y101639D01*
X40804Y101640D01*
X40966Y101838D01*
X41087Y102063D01*
X41161Y102308D01*
X41186Y102563D01*
Y102659D01*
X45021Y106494D01*
X67576D01*
X70380Y103690D01*
X70376Y103650D01*
X70412Y103281D01*
X70520Y102926D01*
X70695Y102599D01*
X70930Y102312D01*
X73992Y99250D01*
X74279Y99015D01*
X74606Y98840D01*
X74961Y98732D01*
X75330Y98696D01*
X75699Y98732D01*
X76054Y98840D01*
X76381Y99015D01*
X76667Y99250D01*
X76903Y99537D01*
X77078Y99864D01*
X77185Y100218D01*
X77213Y100497D01*
X77222Y100587D01*
X77557Y100923D01*
X77647Y100932D01*
X77926Y100959D01*
X78281Y101067D01*
X78608Y101242D01*
X78895Y101477D01*
X79130Y101764D01*
X79305Y102091D01*
X79412Y102446D01*
X79440Y102725D01*
X79449Y102815D01*
X79784Y103150D01*
X79874Y103159D01*
X80153Y103186D01*
X80508Y103294D01*
X80835Y103469D01*
X81122Y103704D01*
X81357Y103991D01*
X81532Y104318D01*
X81639Y104673D01*
X81667Y104952D01*
X81676Y105042D01*
X82011Y105377D01*
X82101Y105386D01*
X82380Y105413D01*
X82735Y105521D01*
X83062Y105696D01*
X83349Y105931D01*
X83584Y106218D01*
X83759Y106545D01*
X83867Y106900D01*
X83894Y107179D01*
X83903Y107269D01*
X84238Y107604D01*
X84328Y107613D01*
X84607Y107641D01*
X84962Y107748D01*
X85289Y107923D01*
X85576Y108158D01*
X85811Y108445D01*
X85986Y108772D01*
X86094Y109127D01*
X86121Y109406D01*
X86130Y109496D01*
X86465Y109831D01*
X86555Y109840D01*
X86834Y109868D01*
X87189Y109975D01*
X87516Y110150D01*
X87803Y110385D01*
X88038Y110672D01*
X88213Y110999D01*
X88321Y111354D01*
X88348Y111633D01*
X88357Y111723D01*
X88692Y112058D01*
X88783Y112067D01*
X89061Y112095D01*
X89416Y112202D01*
X89744Y112377D01*
X90030Y112612D01*
X90265Y112899D01*
X90440Y113226D01*
X90548Y113581D01*
X90575Y113860D01*
X90584Y113950D01*
X90687Y114043D01*
X91063Y114186D01*
X92174Y113076D01*
Y107548D01*
X91935Y107345D01*
X91713Y107084D01*
X91533Y106792D01*
X91402Y106475D01*
X91322Y106142D01*
X91295Y105800D01*
X91322Y105458D01*
X91402Y105125D01*
X91533Y104808D01*
X91713Y104516D01*
X91935Y104255D01*
X92174Y104051D01*
Y92800D01*
X92199Y92545D01*
X92273Y92300D01*
X92394Y92074D01*
X92556Y91876D01*
X94133Y90300D01*
X92556Y88724D01*
X92394Y88526D01*
X92273Y88300D01*
X92199Y88055D01*
X92174Y87800D01*
X92199Y87545D01*
X92273Y87300D01*
X92274Y87298D01*
Y82437D01*
X92274Y82437D01*
X92281Y82366D01*
X92199Y82263D01*
X91960Y82101D01*
X91819Y82058D01*
X91644Y82152D01*
X91289Y82260D01*
X91010Y82287D01*
X90920Y82296D01*
X90584Y82631D01*
X90575Y82722D01*
X90548Y83001D01*
X90440Y83355D01*
X90265Y83683D01*
X90030Y83969D01*
X89744Y84205D01*
X89416Y84379D01*
X89061Y84487D01*
X88783Y84514D01*
X88692Y84523D01*
X88357Y84859D01*
X88348Y84949D01*
X88321Y85228D01*
X88213Y85583D01*
X88038Y85910D01*
X87803Y86196D01*
X87516Y86432D01*
X87189Y86606D01*
X86834Y86714D01*
X86555Y86742D01*
X86465Y86750D01*
X86130Y87086D01*
X86121Y87176D01*
X86094Y87455D01*
X85986Y87810D01*
X85811Y88137D01*
X85576Y88423D01*
X85289Y88659D01*
X84962Y88833D01*
X84607Y88941D01*
X84328Y88969D01*
X84238Y88977D01*
X83903Y89313D01*
X83894Y89403D01*
X83867Y89682D01*
X83759Y90037D01*
X83584Y90364D01*
X83349Y90650D01*
X83062Y90886D01*
X82735Y91061D01*
X82380Y91168D01*
X82101Y91196D01*
X82011Y91205D01*
X81676Y91540D01*
X81667Y91630D01*
X81639Y91909D01*
X81532Y92264D01*
X81357Y92591D01*
X81122Y92878D01*
X80835Y93113D01*
X80508Y93288D01*
X80153Y93395D01*
X79874Y93423D01*
X79784Y93432D01*
X79449Y93767D01*
X79440Y93857D01*
X79412Y94136D01*
X79305Y94491D01*
X79130Y94818D01*
X78895Y95105D01*
X78608Y95340D01*
X78281Y95515D01*
X77926Y95622D01*
X77647Y95650D01*
X77557Y95659D01*
X77222Y95994D01*
X77213Y96084D01*
X77185Y96363D01*
X77078Y96718D01*
X76903Y97045D01*
X76667Y97332D01*
X76381Y97567D01*
X76054Y97742D01*
X75699Y97850D01*
X75330Y97886D01*
X74961Y97850D01*
X74606Y97742D01*
X74279Y97567D01*
X73992Y97332D01*
X73385Y96724D01*
X70639Y99470D01*
X70665Y99800D01*
X70638Y100142D01*
X70558Y100475D01*
X70427Y100792D01*
X70247Y101084D01*
X70025Y101345D01*
X69764Y101567D01*
X69472Y101747D01*
X69155Y101878D01*
X68822Y101958D01*
X68480Y101985D01*
X68138Y101958D01*
X67805Y101878D01*
X67488Y101747D01*
X67196Y101567D01*
X66935Y101345D01*
X66713Y101084D01*
X66533Y100792D01*
X66402Y100475D01*
X66322Y100142D01*
X66295Y99800D01*
X66322Y99458D01*
X66402Y99125D01*
X66533Y98808D01*
X66713Y98516D01*
X66935Y98255D01*
X67196Y98033D01*
X67488Y97853D01*
X67805Y97722D01*
X68138Y97642D01*
X68480Y97615D01*
X68776Y97639D01*
X71537Y94877D01*
X70930Y94270D01*
X70695Y93983D01*
X70520Y93656D01*
X70412Y93301D01*
X70376Y92932D01*
X70412Y92563D01*
X70520Y92208D01*
X70695Y91881D01*
X70930Y91594D01*
X71216Y91359D01*
X71544Y91184D01*
X71899Y91076D01*
X72177Y91049D01*
X72268Y91040D01*
X72603Y90705D01*
X72620Y90535D01*
X70890Y88806D01*
X68087D01*
Y90356D01*
X62747D01*
Y83244D01*
X68087D01*
Y86394D01*
X71390D01*
X71390Y86394D01*
X71625Y86417D01*
X71851Y86486D01*
X72060Y86597D01*
X72243Y86747D01*
X74086Y88591D01*
X74419Y88588D01*
X74624Y88085D01*
X71627Y85088D01*
X71477Y84906D01*
X71366Y84697D01*
X71297Y84471D01*
X71274Y84236D01*
X71274Y84236D01*
Y82300D01*
X68980Y80006D01*
X68087D01*
Y82356D01*
X62747D01*
Y75244D01*
X68087D01*
Y77594D01*
X69480D01*
X69480Y77594D01*
X69715Y77617D01*
X69941Y77686D01*
X70150Y77797D01*
X70333Y77947D01*
X73333Y80947D01*
X73483Y81130D01*
X73594Y81339D01*
X73663Y81565D01*
X73686Y81800D01*
Y83736D01*
X76304Y86354D01*
X76617Y86331D01*
X76808Y85815D01*
X74627Y83634D01*
X74477Y83452D01*
X74366Y83243D01*
X74297Y83017D01*
X74274Y82782D01*
X74274Y82782D01*
Y71299D01*
X73980Y71006D01*
X68087D01*
Y73356D01*
X62747D01*
Y66244D01*
X68087D01*
Y68594D01*
X73461D01*
X73652Y68132D01*
X70526Y65006D01*
X57480D01*
X57245Y64983D01*
X57019Y64914D01*
X56810Y64803D01*
X56627Y64653D01*
X56627Y64653D01*
X51404Y59429D01*
X51036Y59768D01*
X51036Y60239D01*
Y61820D01*
X47980D01*
Y59748D01*
X50536D01*
X51016Y59748D01*
X51355Y59380D01*
X49981Y58006D01*
X31480D01*
X31245Y57983D01*
X31018Y57914D01*
X30810Y57803D01*
X30627Y57653D01*
X30627Y57653D01*
X21627Y48653D01*
X21477Y48470D01*
X21366Y48261D01*
X21297Y48035D01*
X21274Y47800D01*
X21274Y47800D01*
Y4800D01*
X21274Y4800D01*
X21297Y4565D01*
X21366Y4339D01*
X21477Y4130D01*
X21627Y3947D01*
X23627Y1947D01*
X23627Y1947D01*
X23810Y1797D01*
X24019Y1686D01*
X24245Y1617D01*
X24480Y1594D01*
X24480Y1594D01*
X34480D01*
X34480Y1594D01*
X34715Y1617D01*
X34941Y1686D01*
X35150Y1797D01*
X35333Y1947D01*
X39333Y5947D01*
X39333Y5947D01*
X39483Y6130D01*
X39513Y6188D01*
X39919Y6325D01*
X40360Y6543D01*
X40769Y6816D01*
X41139Y7141D01*
X41464Y7511D01*
X41737Y7920D01*
X41954Y8361D01*
X42113Y8827D01*
X42209Y9309D01*
X42241Y9800D01*
X42209Y10291D01*
X42113Y10773D01*
X41954Y11239D01*
X41737Y11680D01*
X41464Y12089D01*
X41139Y12459D01*
X40769Y12784D01*
X40360Y13057D01*
X39919Y13274D01*
X39686Y13354D01*
Y27246D01*
X39919Y27325D01*
X40360Y27543D01*
X40769Y27816D01*
X41139Y28141D01*
X41464Y28511D01*
X41737Y28920D01*
X41954Y29361D01*
X42113Y29827D01*
X42209Y30309D01*
X42241Y30800D01*
X42209Y31291D01*
X42113Y31773D01*
X41954Y32239D01*
X41737Y32680D01*
X41464Y33089D01*
X41139Y33459D01*
X40769Y33784D01*
X40360Y34057D01*
X39919Y34275D01*
X39453Y34433D01*
X38971Y34529D01*
X38480Y34561D01*
X37989Y34529D01*
X37507Y34433D01*
X37041Y34275D01*
X36600Y34057D01*
X36191Y33784D01*
X35821Y33459D01*
X35496Y33089D01*
X35223Y32680D01*
X35006Y32239D01*
X34847Y31773D01*
X34751Y31291D01*
X34719Y30800D01*
X34751Y30309D01*
X34847Y29827D01*
X35006Y29361D01*
X35223Y28920D01*
X35496Y28511D01*
X35821Y28141D01*
X36191Y27816D01*
X36600Y27543D01*
X37041Y27325D01*
X37274Y27246D01*
Y13354D01*
X37041Y13274D01*
X36600Y13057D01*
X36191Y12784D01*
X35821Y12459D01*
X35496Y12089D01*
X35223Y11680D01*
X35006Y11239D01*
X34847Y10773D01*
X34751Y10291D01*
X34719Y9800D01*
X34751Y9309D01*
X34847Y8827D01*
X35006Y8361D01*
X35223Y7920D01*
X35496Y7511D01*
X35821Y7141D01*
X36134Y6866D01*
X36238Y6644D01*
X36272Y6297D01*
X33981Y4006D01*
X24980D01*
X23686Y5300D01*
Y47300D01*
X31980Y55594D01*
X35916D01*
X36107Y55132D01*
X27627Y46653D01*
X27477Y46470D01*
X27366Y46261D01*
X27297Y46035D01*
X27274Y45800D01*
X27274Y45800D01*
Y34354D01*
X27041Y34275D01*
X26600Y34057D01*
X26191Y33784D01*
X25821Y33459D01*
X25496Y33089D01*
X25223Y32680D01*
X25005Y32239D01*
X24847Y31773D01*
X24751Y31291D01*
X24719Y30800D01*
X24751Y30309D01*
X24847Y29827D01*
X25005Y29361D01*
X25223Y28920D01*
X25496Y28511D01*
X25821Y28141D01*
X26191Y27816D01*
X26600Y27543D01*
X27041Y27325D01*
X27274Y27246D01*
Y13354D01*
X27041Y13274D01*
X26600Y13057D01*
X26191Y12784D01*
X25821Y12459D01*
X25496Y12089D01*
X25223Y11680D01*
X25005Y11239D01*
X24847Y10773D01*
X24751Y10291D01*
X24719Y9800D01*
X24751Y9309D01*
X24847Y8827D01*
X25005Y8361D01*
X25223Y7920D01*
X25496Y7511D01*
X25821Y7141D01*
X26191Y6816D01*
X26600Y6543D01*
X27041Y6325D01*
X27507Y6167D01*
X27989Y6071D01*
X28480Y6039D01*
X28971Y6071D01*
X29453Y6167D01*
X29919Y6325D01*
X30360Y6543D01*
X30769Y6816D01*
X31139Y7141D01*
X31464Y7511D01*
X31737Y7920D01*
X31955Y8361D01*
X32113Y8827D01*
X32209Y9309D01*
X32241Y9800D01*
X32209Y10291D01*
X32113Y10773D01*
X31955Y11239D01*
X31737Y11680D01*
X31464Y12089D01*
X31139Y12459D01*
X30769Y12784D01*
X30360Y13057D01*
X29919Y13274D01*
X29686Y13354D01*
Y27246D01*
X29919Y27325D01*
X30360Y27543D01*
X30769Y27816D01*
X31139Y28141D01*
X31464Y28511D01*
X31737Y28920D01*
X31955Y29361D01*
X32113Y29827D01*
X32209Y30309D01*
X32241Y30800D01*
X32209Y31291D01*
X32113Y31773D01*
X31955Y32239D01*
X31737Y32680D01*
X31464Y33089D01*
X31139Y33459D01*
X30769Y33784D01*
X30360Y34057D01*
X29919Y34275D01*
X29686Y34354D01*
Y45300D01*
X37980Y53594D01*
X51480D01*
X51480Y53594D01*
X51715Y53617D01*
X51941Y53686D01*
X52150Y53797D01*
X52333Y53947D01*
X58979Y60594D01*
X62916D01*
X63107Y60132D01*
X57627Y54653D01*
X57477Y54470D01*
X57366Y54261D01*
X57297Y54035D01*
X57274Y53800D01*
X57274Y53800D01*
Y34553D01*
X54727D01*
Y27047D01*
X57274D01*
Y13553D01*
X54727D01*
Y6047D01*
X62233D01*
Y13553D01*
X59686D01*
Y27047D01*
X62233D01*
Y34553D01*
X59686D01*
Y53300D01*
X65479Y59094D01*
X73101D01*
X73101Y59094D01*
X73337Y59117D01*
X73563Y59186D01*
X73771Y59297D01*
X73954Y59447D01*
X74101Y59594D01*
X76665D01*
X76713Y59516D01*
X76935Y59255D01*
X77196Y59033D01*
X77488Y58853D01*
X77805Y58722D01*
X78138Y58642D01*
X78211Y58636D01*
Y47356D01*
X76747D01*
Y40244D01*
X82087D01*
Y47356D01*
X80623D01*
Y59863D01*
X80623Y59863D01*
X80600Y60098D01*
X80573Y60187D01*
X80638Y60458D01*
X80665Y60800D01*
X80638Y61142D01*
X80558Y61475D01*
X80427Y61792D01*
X80247Y62084D01*
X80025Y62345D01*
X79764Y62567D01*
X79472Y62747D01*
X79155Y62878D01*
X78822Y62958D01*
X78480Y62985D01*
X78138Y62958D01*
X77805Y62878D01*
X77488Y62747D01*
X77196Y62567D01*
X76935Y62345D01*
X76713Y62084D01*
X76665Y62006D01*
X75044D01*
X74853Y62468D01*
X82333Y69947D01*
X82333Y69947D01*
X82483Y70130D01*
X82594Y70338D01*
X82663Y70565D01*
X82686Y70800D01*
Y79374D01*
X82989Y79677D01*
X83316Y79631D01*
X83519Y79500D01*
X83525Y79147D01*
X83477Y79089D01*
X83366Y78881D01*
X83297Y78654D01*
X83274Y78419D01*
X83274Y78419D01*
Y53505D01*
X83274Y53505D01*
X83297Y53270D01*
X83366Y53044D01*
X83477Y52835D01*
X83627Y52653D01*
X87333Y48947D01*
X87333Y48947D01*
X87515Y48797D01*
X87724Y48686D01*
X87950Y48617D01*
X88185Y48594D01*
X88185Y48594D01*
X101881D01*
X102657Y47818D01*
X102465Y47356D01*
X98747D01*
Y40244D01*
X104087D01*
Y41529D01*
X104549Y41721D01*
X107914Y38356D01*
Y30309D01*
X106845D01*
Y25165D01*
X111595D01*
Y30309D01*
X110527D01*
Y38897D01*
X110501Y39152D01*
X110947Y39405D01*
X111056Y39418D01*
X115274Y35201D01*
Y25800D01*
X115274Y25800D01*
X115297Y25565D01*
X115366Y25339D01*
X115477Y25130D01*
X115627Y24947D01*
X120690Y19884D01*
X120690Y19884D01*
X120873Y19734D01*
X121081Y19623D01*
X121308Y19554D01*
X121543Y19531D01*
X122924D01*
Y18067D01*
X130036D01*
Y19531D01*
X133044D01*
X137274Y15301D01*
Y13939D01*
X134727D01*
Y3283D01*
X142233D01*
Y13939D01*
X139686D01*
Y15800D01*
X139663Y16035D01*
X139594Y16261D01*
X139483Y16470D01*
X139333Y16653D01*
X139333Y16653D01*
X134396Y21590D01*
X134213Y21740D01*
X134004Y21851D01*
X133778Y21920D01*
X133543Y21943D01*
X133543Y21943D01*
X130036D01*
Y23407D01*
X127786D01*
Y25035D01*
X130036D01*
Y30769D01*
X122924D01*
Y25035D01*
X125174D01*
Y23407D01*
X122924D01*
Y21943D01*
X122043D01*
X117686Y26300D01*
Y35700D01*
X117663Y35935D01*
X117594Y36161D01*
X117483Y36370D01*
X117333Y36553D01*
X103233Y50653D01*
X103050Y50803D01*
X102841Y50914D01*
X102615Y50983D01*
X102380Y51006D01*
X102380Y51006D01*
X88685D01*
X87908Y51782D01*
X88100Y52244D01*
X89437D01*
Y55300D01*
X87070D01*
Y53274D01*
X86608Y53083D01*
X85686Y54005D01*
Y76350D01*
X86186Y76475D01*
X86220Y76412D01*
X89035Y79227D01*
X89388Y78873D01*
X89742Y79227D01*
X91080Y77889D01*
X92257Y79067D01*
X92493Y79353D01*
X92667Y79680D01*
X92775Y80035D01*
X92811Y80404D01*
X92780Y80725D01*
X92874Y80817D01*
X93236Y80976D01*
X93638Y80574D01*
X93621Y80404D01*
X93657Y80035D01*
X93765Y79680D01*
X93940Y79353D01*
X94175Y79067D01*
X95838Y77404D01*
Y67356D01*
X94156D01*
Y60244D01*
X95818D01*
Y59356D01*
X94156D01*
Y52244D01*
X99890D01*
Y54594D01*
X101686D01*
X118333Y37947D01*
X118515Y37797D01*
X118724Y37686D01*
X118950Y37617D01*
X119185Y37594D01*
X122924D01*
Y32122D01*
X130036D01*
Y33783D01*
X134727D01*
Y29661D01*
X142233D01*
Y40317D01*
X139686D01*
Y42301D01*
X142639Y45254D01*
X142789Y45436D01*
X142900Y45645D01*
X142969Y45871D01*
X142992Y46106D01*
Y57729D01*
X142993Y57731D01*
X143068Y57976D01*
X143093Y58231D01*
X143068Y58486D01*
X142993Y58731D01*
X142872Y58957D01*
X142710Y59155D01*
X134786Y67078D01*
Y70051D01*
X135025Y70255D01*
X135247Y70516D01*
X135427Y70808D01*
X135558Y71125D01*
X135638Y71458D01*
X135665Y71800D01*
X135638Y72142D01*
X135558Y72475D01*
X135427Y72792D01*
X135247Y73084D01*
X135025Y73345D01*
X134764Y73567D01*
X134472Y73747D01*
X134155Y73878D01*
X133822Y73958D01*
X133480Y73985D01*
X133167Y73960D01*
X123404Y83724D01*
X123206Y83886D01*
X122980Y84007D01*
X123097Y84494D01*
X133480D01*
X133735Y84519D01*
X133980Y84593D01*
X134206Y84714D01*
X134404Y84876D01*
X140404Y90876D01*
X140566Y91074D01*
X140687Y91300D01*
X140761Y91545D01*
X140786Y91800D01*
Y123412D01*
X149404Y132029D01*
X149566Y132227D01*
X149687Y132453D01*
X149761Y132698D01*
X149786Y132953D01*
Y140193D01*
X152036D01*
Y145533D01*
D02*
G37*
G36*
X185201Y137230D02*
X179980D01*
Y134961D01*
X185201D01*
Y137230D01*
D02*
G37*
G36*
X178980D02*
X173759D01*
Y134961D01*
X178980D01*
Y137230D01*
D02*
G37*
G36*
X165980Y137300D02*
X164360D01*
X164402Y137125D01*
X164533Y136808D01*
X164713Y136516D01*
X164935Y136255D01*
X165196Y136033D01*
X165488Y135853D01*
X165805Y135722D01*
X165980Y135680D01*
Y137300D01*
D02*
G37*
G36*
X143036Y145533D02*
X135924D01*
Y144556D01*
X135851Y144534D01*
X135538Y144367D01*
X135264Y144142D01*
X132061Y140939D01*
X131805Y140878D01*
X131488Y140747D01*
X131196Y140567D01*
X130935Y140345D01*
X130713Y140084D01*
X130533Y139792D01*
X130402Y139475D01*
X130322Y139142D01*
X130295Y138800D01*
X130322Y138458D01*
X130402Y138125D01*
X130533Y137808D01*
X130713Y137516D01*
X130935Y137255D01*
X131196Y137033D01*
X131488Y136853D01*
X131805Y136722D01*
X132138Y136642D01*
X132480Y136615D01*
X132822Y136642D01*
X133155Y136722D01*
X133472Y136853D01*
X133764Y137033D01*
X134025Y137255D01*
X134247Y137516D01*
X134427Y137808D01*
X134558Y138125D01*
X134619Y138381D01*
X136431Y140193D01*
X143036D01*
Y145533D01*
D02*
G37*
G36*
X168600Y137300D02*
X166980D01*
Y135680D01*
X167155Y135722D01*
X167472Y135853D01*
X167764Y136033D01*
X168025Y136255D01*
X168247Y136516D01*
X168427Y136808D01*
X168558Y137125D01*
X168600Y137300D01*
D02*
G37*
G36*
X161036Y142363D02*
X157980D01*
Y140193D01*
X161036D01*
Y142363D01*
D02*
G37*
G36*
X156980D02*
X153924D01*
Y140193D01*
X156980D01*
Y142363D01*
D02*
G37*
G36*
X23980Y142300D02*
X22360D01*
X22402Y142125D01*
X22533Y141808D01*
X22713Y141516D01*
X22935Y141255D01*
X23196Y141033D01*
X23488Y140853D01*
X23805Y140722D01*
X23980Y140680D01*
Y142300D01*
D02*
G37*
G36*
X31980D02*
X30360D01*
X30402Y142125D01*
X30533Y141808D01*
X30713Y141516D01*
X30935Y141255D01*
X31196Y141033D01*
X31488Y140853D01*
X31805Y140722D01*
X31980Y140680D01*
Y142300D01*
D02*
G37*
G36*
X26600D02*
X24980D01*
Y140680D01*
X25155Y140722D01*
X25472Y140853D01*
X25764Y141033D01*
X26025Y141255D01*
X26247Y141516D01*
X26427Y141808D01*
X26558Y142125D01*
X26600Y142300D01*
D02*
G37*
G36*
X121115Y142246D02*
X119240D01*
Y140174D01*
X121115D01*
Y142246D01*
D02*
G37*
G36*
X9207Y141300D02*
X5980D01*
Y138073D01*
X6453Y138167D01*
X6919Y138326D01*
X7360Y138543D01*
X7769Y138816D01*
X8139Y139141D01*
X8464Y139511D01*
X8737Y139920D01*
X8954Y140361D01*
X9113Y140827D01*
X9207Y141300D01*
D02*
G37*
G36*
X4980D02*
X1753D01*
X1847Y140827D01*
X2005Y140361D01*
X2223Y139920D01*
X2496Y139511D01*
X2821Y139141D01*
X3191Y138816D01*
X3600Y138543D01*
X4041Y138326D01*
X4507Y138167D01*
X4980Y138073D01*
Y141300D01*
D02*
G37*
G36*
X165980Y139920D02*
X165805Y139878D01*
X165488Y139747D01*
X165196Y139567D01*
X164935Y139345D01*
X164713Y139084D01*
X164533Y138792D01*
X164402Y138475D01*
X164360Y138300D01*
X165980D01*
Y139920D01*
D02*
G37*
G36*
X118240Y142246D02*
X116365D01*
Y140174D01*
X118240D01*
Y142246D01*
D02*
G37*
G36*
X166980Y139920D02*
Y138300D01*
X168600D01*
X168558Y138475D01*
X168427Y138792D01*
X168247Y139084D01*
X168025Y139345D01*
X167764Y139567D01*
X167472Y139747D01*
X167155Y139878D01*
X166980Y139920D01*
D02*
G37*
G36*
X143863Y135950D02*
X139232D01*
Y133387D01*
X143863D01*
Y135950D01*
D02*
G37*
G36*
X77036Y131213D02*
X73980D01*
Y128846D01*
X77036D01*
Y131213D01*
D02*
G37*
G36*
X72980D02*
X69924D01*
Y128846D01*
X72980D01*
Y131213D01*
D02*
G37*
G36*
X95980Y132300D02*
X93613D01*
Y129244D01*
X95980D01*
Y132300D01*
D02*
G37*
G36*
X138232Y132387D02*
X133601D01*
Y129823D01*
X138232D01*
Y132387D01*
D02*
G37*
G36*
X99347Y132300D02*
X96980D01*
Y129244D01*
X99347D01*
Y132300D01*
D02*
G37*
G36*
X35036Y130891D02*
X31980D01*
Y128820D01*
X35036D01*
Y130891D01*
D02*
G37*
G36*
X15480Y135561D02*
X14989Y135529D01*
X14507Y135433D01*
X14041Y135275D01*
X13600Y135057D01*
X13191Y134784D01*
X12821Y134459D01*
X12496Y134089D01*
X12223Y133680D01*
X12005Y133239D01*
X11847Y132773D01*
X11751Y132291D01*
X11719Y131800D01*
X11751Y131309D01*
X11847Y130827D01*
X12005Y130361D01*
X12223Y129920D01*
X12496Y129511D01*
X12821Y129141D01*
X13191Y128816D01*
X13600Y128543D01*
X14041Y128325D01*
X14507Y128167D01*
X14989Y128071D01*
X15480Y128039D01*
X15971Y128071D01*
X16453Y128167D01*
X16919Y128325D01*
X17360Y128543D01*
X17769Y128816D01*
X18139Y129141D01*
X18464Y129511D01*
X18737Y129920D01*
X18955Y130361D01*
X19113Y130827D01*
X19209Y131309D01*
X19241Y131800D01*
X19209Y132291D01*
X19113Y132773D01*
X18955Y133239D01*
X18737Y133680D01*
X18464Y134089D01*
X18139Y134459D01*
X17769Y134784D01*
X17360Y135057D01*
X16919Y135275D01*
X16453Y135433D01*
X15971Y135529D01*
X15480Y135561D01*
D02*
G37*
G36*
X68600Y129300D02*
X66980D01*
Y127680D01*
X67155Y127722D01*
X67472Y127853D01*
X67764Y128033D01*
X68025Y128255D01*
X68247Y128516D01*
X68427Y128808D01*
X68558Y129125D01*
X68600Y129300D01*
D02*
G37*
G36*
X4980Y131300D02*
X1753D01*
X1847Y130827D01*
X2005Y130361D01*
X2223Y129920D01*
X2496Y129511D01*
X2821Y129141D01*
X3191Y128816D01*
X3600Y128543D01*
X4041Y128325D01*
X4507Y128167D01*
X4980Y128073D01*
Y131300D01*
D02*
G37*
G36*
X30980Y130891D02*
X27924D01*
Y128820D01*
X30980D01*
Y130891D01*
D02*
G37*
G36*
X9207Y131300D02*
X5980D01*
Y128073D01*
X6453Y128167D01*
X6919Y128325D01*
X7360Y128543D01*
X7769Y128816D01*
X8139Y129141D01*
X8464Y129511D01*
X8737Y129920D01*
X8954Y130361D01*
X9113Y130827D01*
X9207Y131300D01*
D02*
G37*
G36*
X5980Y135527D02*
Y132300D01*
X9207D01*
X9113Y132773D01*
X8954Y133239D01*
X8737Y133680D01*
X8464Y134089D01*
X8139Y134459D01*
X7769Y134784D01*
X7360Y135057D01*
X6919Y135275D01*
X6453Y135433D01*
X5980Y135527D01*
D02*
G37*
G36*
X4980D02*
X4507Y135433D01*
X4041Y135275D01*
X3600Y135057D01*
X3191Y134784D01*
X2821Y134459D01*
X2496Y134089D01*
X2223Y133680D01*
X2005Y133239D01*
X1847Y132773D01*
X1753Y132300D01*
X4980D01*
Y135527D01*
D02*
G37*
G36*
X95980Y136356D02*
X93613D01*
Y133300D01*
X95980D01*
Y136356D01*
D02*
G37*
G36*
X138232Y135950D02*
X133601D01*
Y133387D01*
X138232D01*
Y135950D01*
D02*
G37*
G36*
X99347Y136356D02*
X96980D01*
Y133300D01*
X99347D01*
Y136356D01*
D02*
G37*
G36*
X77036Y134580D02*
X73980D01*
Y132213D01*
X77036D01*
Y134580D01*
D02*
G37*
G36*
X66980Y131920D02*
Y130300D01*
X68600D01*
X68558Y130475D01*
X68427Y130792D01*
X68247Y131084D01*
X68025Y131345D01*
X67764Y131567D01*
X67472Y131747D01*
X67155Y131878D01*
X66980Y131920D01*
D02*
G37*
G36*
X65980D02*
X65805Y131878D01*
X65488Y131747D01*
X65196Y131567D01*
X64935Y131345D01*
X64713Y131084D01*
X64533Y130792D01*
X64402Y130475D01*
X64360Y130300D01*
X65980D01*
Y131920D01*
D02*
G37*
G36*
X178980Y133961D02*
X173759D01*
Y131693D01*
X178980D01*
Y133961D01*
D02*
G37*
G36*
X72980Y134580D02*
X69924D01*
Y132213D01*
X72980D01*
Y134580D01*
D02*
G37*
G36*
X185201Y133961D02*
X179980D01*
Y131693D01*
X185201D01*
Y133961D01*
D02*
G37*
G36*
X31980Y144920D02*
X31805Y144878D01*
X31488Y144747D01*
X31196Y144567D01*
X30935Y144345D01*
X30713Y144084D01*
X30533Y143792D01*
X30402Y143475D01*
X30360Y143300D01*
X31980D01*
Y144920D01*
D02*
G37*
G36*
X32980D02*
Y143300D01*
X34600D01*
X34558Y143475D01*
X34427Y143792D01*
X34247Y144084D01*
X34025Y144345D01*
X33764Y144567D01*
X33472Y144747D01*
X33155Y144878D01*
X32980Y144920D01*
D02*
G37*
G36*
X39980D02*
X39805Y144878D01*
X39488Y144747D01*
X39196Y144567D01*
X38935Y144345D01*
X38713Y144084D01*
X38533Y143792D01*
X38402Y143475D01*
X38360Y143300D01*
X39980D01*
Y144920D01*
D02*
G37*
G36*
X24980D02*
Y143300D01*
X26600D01*
X26558Y143475D01*
X26427Y143792D01*
X26247Y144084D01*
X26025Y144345D01*
X25764Y144567D01*
X25472Y144747D01*
X25155Y144878D01*
X24980Y144920D01*
D02*
G37*
G36*
X109980Y146300D02*
X106924D01*
Y144130D01*
X109980D01*
Y146300D01*
D02*
G37*
G36*
X98024Y150356D02*
X92684D01*
Y143244D01*
X98024D01*
Y145494D01*
X98924D01*
Y144130D01*
X106036D01*
Y149470D01*
X98924D01*
Y148106D01*
X98024D01*
Y150356D01*
D02*
G37*
G36*
X122233Y146820D02*
X118980D01*
Y143960D01*
X122233D01*
Y146820D01*
D02*
G37*
G36*
X161036Y145533D02*
X157980D01*
Y143363D01*
X161036D01*
Y145533D01*
D02*
G37*
G36*
X156980D02*
X153924D01*
Y143363D01*
X156980D01*
Y145533D01*
D02*
G37*
G36*
X40980Y144920D02*
Y143300D01*
X42600D01*
X42558Y143475D01*
X42427Y143792D01*
X42247Y144084D01*
X42025Y144345D01*
X41764Y144567D01*
X41472Y144747D01*
X41155Y144878D01*
X40980Y144920D01*
D02*
G37*
G36*
X189527Y148079D02*
X184306D01*
Y143842D01*
X189527D01*
Y148079D01*
D02*
G37*
G36*
X117980Y146820D02*
X114727D01*
Y143960D01*
X117980D01*
Y146820D01*
D02*
G37*
G36*
X174095Y148079D02*
X168874D01*
Y143842D01*
X174095D01*
Y148079D01*
D02*
G37*
G36*
X167874D02*
X162652D01*
Y143842D01*
X167874D01*
Y148079D01*
D02*
G37*
G36*
X114036Y146300D02*
X110980D01*
Y144130D01*
X114036D01*
Y146300D01*
D02*
G37*
G36*
X4980Y145527D02*
X4507Y145433D01*
X4041Y145274D01*
X3600Y145057D01*
X3191Y144784D01*
X2821Y144459D01*
X2496Y144089D01*
X2223Y143680D01*
X2005Y143239D01*
X1847Y142773D01*
X1753Y142300D01*
X4980D01*
Y145527D01*
D02*
G37*
G36*
X39980Y142300D02*
X38360D01*
X38402Y142125D01*
X38533Y141808D01*
X38713Y141516D01*
X38935Y141255D01*
X39196Y141033D01*
X39488Y140853D01*
X39805Y140722D01*
X39980Y140680D01*
Y142300D01*
D02*
G37*
G36*
X114036Y149470D02*
X110980D01*
Y147300D01*
X114036D01*
Y149470D01*
D02*
G37*
G36*
X5980Y145527D02*
Y142300D01*
X9207D01*
X9113Y142773D01*
X8954Y143239D01*
X8737Y143680D01*
X8464Y144089D01*
X8139Y144459D01*
X7769Y144784D01*
X7360Y145057D01*
X6919Y145274D01*
X6453Y145433D01*
X5980Y145527D01*
D02*
G37*
G36*
X89327Y172300D02*
X86756D01*
X84184D01*
Y170721D01*
Y166980D01*
X85550D01*
Y160524D01*
X85550Y160524D01*
X85573Y160289D01*
X85642Y160063D01*
X85753Y159854D01*
X85903Y159672D01*
X86274Y159300D01*
Y158356D01*
X84810D01*
Y151244D01*
X86274D01*
Y150356D01*
X84810D01*
Y143244D01*
X90150D01*
Y150356D01*
X88686D01*
Y151244D01*
X90150D01*
Y158356D01*
X88686D01*
Y159800D01*
X88663Y160035D01*
X88594Y160261D01*
X88483Y160470D01*
X88333Y160653D01*
X87961Y161024D01*
Y166980D01*
X89327D01*
Y170721D01*
Y172300D01*
D02*
G37*
G36*
X34600Y142300D02*
X32980D01*
Y140680D01*
X33155Y140722D01*
X33472Y140853D01*
X33764Y141033D01*
X34025Y141255D01*
X34247Y141516D01*
X34427Y141808D01*
X34558Y142125D01*
X34600Y142300D01*
D02*
G37*
G36*
X23980Y144920D02*
X23805Y144878D01*
X23488Y144747D01*
X23196Y144567D01*
X22935Y144345D01*
X22713Y144084D01*
X22533Y143792D01*
X22402Y143475D01*
X22360Y143300D01*
X23980D01*
Y144920D01*
D02*
G37*
G36*
X42600Y142300D02*
X40980D01*
Y140680D01*
X41155Y140722D01*
X41472Y140853D01*
X41764Y141033D01*
X42025Y141255D01*
X42247Y141516D01*
X42427Y141808D01*
X42558Y142125D01*
X42600Y142300D01*
D02*
G37*
G36*
X109980Y149470D02*
X106924D01*
Y147300D01*
X109980D01*
Y149470D01*
D02*
G37*
G36*
X79682Y155517D02*
X73278D01*
Y150335D01*
X75174D01*
Y148548D01*
X74935Y148345D01*
X74713Y148084D01*
X74533Y147792D01*
X74402Y147475D01*
X74322Y147142D01*
X74295Y146800D01*
X74322Y146458D01*
X74402Y146125D01*
X74533Y145808D01*
X74713Y145516D01*
X74935Y145255D01*
X75196Y145033D01*
X75488Y144853D01*
X75805Y144722D01*
X76138Y144642D01*
X76480Y144615D01*
X76822Y144642D01*
X77155Y144722D01*
X77472Y144853D01*
X77764Y145033D01*
X78025Y145255D01*
X78247Y145516D01*
X78427Y145808D01*
X78558Y146125D01*
X78638Y146458D01*
X78665Y146800D01*
X78638Y147142D01*
X78558Y147475D01*
X78427Y147792D01*
X78247Y148084D01*
X78025Y148345D01*
X77786Y148548D01*
Y150335D01*
X79682D01*
Y155517D01*
D02*
G37*
%LPD*%
G36*
X64980Y170028D02*
X65661D01*
Y170619D01*
X67480Y168800D01*
Y163556D01*
X64980D01*
Y160800D01*
X63980D01*
Y163556D01*
X61480D01*
Y165377D01*
X61599Y165973D01*
X61480Y166570D01*
Y168800D01*
X62008Y169328D01*
X62621D01*
Y169941D01*
X63299Y170619D01*
Y170028D01*
X63980D01*
Y171800D01*
X64980D01*
Y170028D01*
D02*
G37*
G36*
X67480Y157800D02*
X61480D01*
Y158044D01*
X67480D01*
Y157800D01*
D02*
G37*
G36*
X87278Y180923D02*
X87194Y180878D01*
X87103Y180850D01*
X86968Y180837D01*
X83833D01*
X83715Y180814D01*
X83596Y180802D01*
X83496Y180772D01*
X83361Y180758D01*
X83030D01*
X82718Y180696D01*
X82453Y180519D01*
X82276Y180255D01*
X82230Y180021D01*
Y180993D01*
X87363D01*
X87278Y180923D01*
D02*
G37*
G36*
X70730Y180021D02*
X70684Y180255D01*
X70507Y180519D01*
X70242Y180696D01*
X69930Y180758D01*
X66461D01*
X66149Y180696D01*
X65884Y180519D01*
X65707Y180255D01*
X65661Y180021D01*
Y180993D01*
X70730D01*
Y180021D01*
D02*
G37*
G36*
X93764Y185126D02*
X93764Y185126D01*
X93764Y185126D01*
X93764Y185047D01*
X93766Y185035D01*
X93764Y185022D01*
X93797Y184879D01*
X93826Y184735D01*
X93833Y184724D01*
X93836Y184712D01*
X94025Y184291D01*
X94111Y184171D01*
X94192Y184049D01*
X94203Y184042D01*
X94210Y184032D01*
X94335Y183954D01*
X94457Y183872D01*
X94469Y183870D01*
X94480Y183863D01*
X94625Y183839D01*
X94769Y183810D01*
X95613D01*
X95925Y183872D01*
X96190Y184049D01*
X96367Y184314D01*
X96401Y184485D01*
X96413D01*
Y183820D01*
X98480D01*
Y183320D01*
X98980D01*
Y182139D01*
X99708D01*
X99474Y182092D01*
X99209Y181915D01*
X99033Y181651D01*
X98971Y181339D01*
Y180840D01*
X98957Y180705D01*
X98930Y180614D01*
X98885Y180530D01*
X98799Y180425D01*
X98015Y179641D01*
X97838Y179377D01*
X97776Y179065D01*
X97838Y178752D01*
X97838Y178752D01*
X97960Y178457D01*
Y177820D01*
X96704D01*
Y176540D01*
X95704D01*
Y177820D01*
X94986D01*
X95025Y177827D01*
X95144Y177839D01*
X95180Y177858D01*
X95220Y177866D01*
X95319Y177933D01*
X95425Y177989D01*
X95451Y178020D01*
X95484Y178043D01*
X95551Y178143D01*
X95627Y178235D01*
X95639Y178274D01*
X95661Y178307D01*
X95684Y178425D01*
X95719Y178540D01*
X95727Y178619D01*
X95755Y178711D01*
X95800Y178795D01*
X95886Y178900D01*
X97286Y180300D01*
X97463Y180564D01*
Y180564D01*
X97463Y180564D01*
X97482Y180658D01*
X97525Y180877D01*
X97463Y181189D01*
X97463Y181189D01*
X97271Y181651D01*
X97201Y181757D01*
X97095Y181915D01*
X96918Y182033D01*
X96830Y182092D01*
X96621Y182134D01*
X96597Y182139D01*
X97980D01*
Y182820D01*
X96413D01*
Y182154D01*
X96401D01*
X96367Y182325D01*
X96190Y182590D01*
X95925Y182767D01*
X95613Y182829D01*
X90980D01*
Y183300D01*
X92827Y185147D01*
X93764D01*
Y185126D01*
D02*
G37*
G36*
X82214Y177847D02*
X82231Y177764D01*
X80748D01*
X80555Y177725D01*
X80143Y178137D01*
X80108Y178190D01*
X80002Y178349D01*
X79896Y178419D01*
X79791Y178489D01*
X79708Y178572D01*
X82214D01*
Y177847D01*
D02*
G37*
G36*
X151527Y162300D02*
Y160300D01*
X159433D01*
Y162300D01*
X162752D01*
Y161784D01*
X162452D01*
Y160300D01*
X167980D01*
Y159800D01*
X168480D01*
Y157816D01*
X172980D01*
Y154800D01*
X137980D01*
X137980Y159800D01*
X139263Y161083D01*
Y160300D01*
X141929D01*
Y162080D01*
X140260D01*
X140480Y162300D01*
X151527Y162300D01*
D02*
G37*
%LPC*%
G36*
X154980Y159300D02*
X151527D01*
Y156241D01*
X154980D01*
Y159300D01*
D02*
G37*
G36*
X145594Y162080D02*
X142929D01*
Y160300D01*
X145594D01*
Y162080D01*
D02*
G37*
G36*
X159433Y159300D02*
X155980D01*
Y156241D01*
X159433D01*
Y159300D01*
D02*
G37*
G36*
X141929D02*
X139263D01*
Y157520D01*
X141929D01*
Y159300D01*
D02*
G37*
G36*
X145594D02*
X142929D01*
Y157520D01*
X145594D01*
Y159300D01*
D02*
G37*
G36*
X167480D02*
X162452D01*
Y157816D01*
X167480D01*
Y159300D01*
D02*
G37*
%LPD*%
G36*
X62971Y132724D02*
X61989Y132735D01*
Y135047D01*
X62971D01*
Y132724D01*
D02*
G37*
G36*
X69924Y138309D02*
X66233D01*
Y139291D01*
X69924D01*
Y138309D01*
D02*
G37*
G36*
X77924D02*
X77036D01*
Y139291D01*
X77924D01*
Y138309D01*
D02*
G37*
G36*
X105980Y81593D02*
X106225Y81519D01*
X106480Y81494D01*
X121939D01*
X131320Y72113D01*
X131295Y71800D01*
X131322Y71458D01*
X131402Y71125D01*
X131533Y70808D01*
X131713Y70516D01*
X131935Y70255D01*
X132174Y70051D01*
Y66537D01*
X132199Y66282D01*
X132273Y66037D01*
X132394Y65812D01*
X132556Y65614D01*
X140580Y57589D01*
Y46606D01*
X137627Y43653D01*
X137477Y43470D01*
X137366Y43261D01*
X137297Y43035D01*
X137274Y42800D01*
X137274Y42800D01*
Y40317D01*
X134727D01*
Y36195D01*
X130036D01*
Y37856D01*
X125654D01*
X125446Y38356D01*
X130333Y43242D01*
X130333Y43242D01*
X130483Y43425D01*
X130594Y43633D01*
X130663Y43859D01*
X130686Y44095D01*
Y50800D01*
X130663Y51035D01*
X130594Y51262D01*
X130592Y51266D01*
X130638Y51458D01*
X130665Y51800D01*
X130638Y52142D01*
X130558Y52475D01*
X130427Y52792D01*
X130247Y53084D01*
X130025Y53345D01*
X129764Y53567D01*
X129472Y53747D01*
X129155Y53878D01*
X128822Y53958D01*
X128480Y53985D01*
X128138Y53958D01*
X127805Y53878D01*
X127488Y53747D01*
X127196Y53567D01*
X126935Y53345D01*
X126713Y53084D01*
X126533Y52792D01*
X126402Y52475D01*
X126322Y52142D01*
X126295Y51800D01*
X126322Y51458D01*
X126402Y51125D01*
X126533Y50808D01*
X126713Y50516D01*
X126935Y50255D01*
X127196Y50033D01*
X127488Y49853D01*
X127805Y49722D01*
X128138Y49642D01*
X128274Y49632D01*
Y44594D01*
X123795Y40115D01*
X123530Y40149D01*
X123350Y40676D01*
X124373Y41699D01*
X122352Y43721D01*
X120052Y41421D01*
X121005Y40468D01*
X120814Y40006D01*
X119685D01*
X103038Y56653D01*
X102855Y56803D01*
X102647Y56914D01*
X102420Y56983D01*
X102185Y57006D01*
X102185Y57006D01*
X99890D01*
Y59356D01*
X98229D01*
Y60244D01*
X99890D01*
Y67356D01*
X98250D01*
Y75156D01*
X98575Y75450D01*
X98944Y75487D01*
X99299Y75594D01*
X99626Y75769D01*
X99913Y76004D01*
X100148Y76291D01*
X100323Y76618D01*
X100431Y76973D01*
X100454Y77209D01*
X100510Y77299D01*
X100658Y77394D01*
X100956Y77476D01*
X102174Y76259D01*
Y64129D01*
X102199Y63874D01*
X102273Y63629D01*
X102394Y63403D01*
X102556Y63206D01*
X103400Y62362D01*
X100752Y59715D01*
X106895Y53573D01*
X109127Y55805D01*
X113763Y51169D01*
X112034Y49439D01*
X116784Y44689D01*
X122091Y49996D01*
X117341Y54746D01*
X115611Y53017D01*
X110975Y57652D01*
X114037Y60714D01*
X107894Y66857D01*
X105247Y64210D01*
X104786Y64670D01*
Y76800D01*
X104786Y76800D01*
X104761Y77055D01*
X104687Y77300D01*
X104566Y77526D01*
X104404Y77724D01*
X102998Y79129D01*
X103083Y79398D01*
X103493Y79485D01*
X105102Y77876D01*
X105300Y77714D01*
X105526Y77593D01*
X105771Y77519D01*
X106026Y77494D01*
X106026Y77494D01*
X112210D01*
X115371Y74333D01*
X112723Y71686D01*
X118866Y65543D01*
X121513Y68190D01*
X126149Y63555D01*
X124534Y61939D01*
X129284Y57189D01*
X134591Y62496D01*
X129841Y67246D01*
X127996Y65402D01*
X123360Y70038D01*
X126007Y72685D01*
X119865Y78827D01*
X117218Y76180D01*
X113674Y79724D01*
X113477Y79886D01*
X113251Y80007D01*
X113006Y80081D01*
X112751Y80106D01*
X106567D01*
X105353Y81320D01*
X105393Y81595D01*
X105754Y81714D01*
X105980Y81593D01*
D02*
G37*
G36*
X107924Y139183D02*
X105021D01*
X105021Y139183D01*
X104709Y139121D01*
X104603Y139050D01*
X104444Y138944D01*
X104444Y138944D01*
X103981Y138481D01*
X103876Y138395D01*
X103792Y138350D01*
X103701Y138323D01*
X103566Y138309D01*
X90723D01*
X90411Y138247D01*
X90146Y138070D01*
X89970Y137806D01*
X89908Y137494D01*
Y136356D01*
X88926D01*
Y137494D01*
X88864Y137806D01*
X88687Y138070D01*
X88423Y138247D01*
X88111Y138309D01*
X85036D01*
Y139291D01*
X103065D01*
X103065Y139291D01*
X103377Y139353D01*
X103642Y139530D01*
X103642Y139530D01*
X104105Y139993D01*
X104210Y140079D01*
X104294Y140124D01*
X104385Y140151D01*
X104520Y140165D01*
X107924D01*
Y139183D01*
D02*
G37*
%LPC*%
G36*
X132123Y58950D02*
X129823Y56650D01*
X131845Y54628D01*
X134145Y56928D01*
X132123Y58950D01*
D02*
G37*
G36*
X134852Y56221D02*
X132552Y53921D01*
X134573Y51899D01*
X136873Y54199D01*
X134852Y56221D01*
D02*
G37*
G36*
X119780Y58200D02*
X118160D01*
X118202Y58025D01*
X118333Y57708D01*
X118513Y57416D01*
X118735Y57155D01*
X118996Y56933D01*
X119288Y56753D01*
X119605Y56622D01*
X119780Y56580D01*
Y58200D01*
D02*
G37*
G36*
X137859Y59228D02*
X135559Y56928D01*
X137581Y54906D01*
X139881Y57207D01*
X137859Y59228D01*
D02*
G37*
G36*
X125359Y46728D02*
X123059Y44428D01*
X125081Y42406D01*
X127381Y44707D01*
X125359Y46728D01*
D02*
G37*
G36*
X119623Y46450D02*
X117323Y44150D01*
X119345Y42128D01*
X121645Y44428D01*
X119623Y46450D01*
D02*
G37*
G36*
X122630Y49457D02*
X120330Y47157D01*
X122352Y45135D01*
X124652Y47435D01*
X122630Y49457D01*
D02*
G37*
G36*
X120780Y60820D02*
Y59200D01*
X122400D01*
X122358Y59375D01*
X122227Y59692D01*
X122047Y59984D01*
X121825Y60245D01*
X121564Y60467D01*
X121272Y60647D01*
X120955Y60778D01*
X120780Y60820D01*
D02*
G37*
G36*
X119780D02*
X119605Y60778D01*
X119288Y60647D01*
X118996Y60467D01*
X118735Y60245D01*
X118513Y59984D01*
X118333Y59692D01*
X118202Y59375D01*
X118160Y59200D01*
X119780D01*
Y60820D01*
D02*
G37*
G36*
X135130Y61957D02*
X132830Y59657D01*
X134852Y57635D01*
X137152Y59935D01*
X135130Y61957D01*
D02*
G37*
G36*
X122400Y58200D02*
X120780D01*
Y56580D01*
X120955Y56622D01*
X121272Y56753D01*
X121564Y56933D01*
X121825Y57155D01*
X122047Y57416D01*
X122227Y57708D01*
X122358Y58025D01*
X122400Y58200D01*
D02*
G37*
%LPD*%
D10*
X98480Y190800D02*
D03*
Y183320D02*
D03*
X107535Y187060D02*
D03*
D11*
X76480Y152926D02*
D03*
Y165800D02*
D03*
D12*
X73480Y131713D02*
D03*
Y138800D02*
D03*
X126480Y27902D02*
D03*
Y34989D02*
D03*
D13*
X81480Y130926D02*
D03*
Y138800D02*
D03*
X111480Y131800D02*
D03*
Y139674D02*
D03*
X126480Y20737D02*
D03*
Y12863D02*
D03*
X166480Y29800D02*
D03*
Y21926D02*
D03*
X147980Y181926D02*
D03*
Y189800D02*
D03*
X138480Y181926D02*
D03*
Y189800D02*
D03*
X93480Y19863D02*
D03*
Y27737D02*
D03*
X85480Y19863D02*
D03*
Y27737D02*
D03*
X24480Y159674D02*
D03*
Y151800D02*
D03*
X32480Y159674D02*
D03*
Y151800D02*
D03*
X40480Y159674D02*
D03*
Y151800D02*
D03*
X41480Y127926D02*
D03*
Y135800D02*
D03*
X49480Y177800D02*
D03*
Y185674D02*
D03*
X17480Y192737D02*
D03*
Y184863D02*
D03*
X15480Y30926D02*
D03*
Y38800D02*
D03*
X102480Y146800D02*
D03*
Y154674D02*
D03*
X110480Y146800D02*
D03*
Y154674D02*
D03*
X139480Y142863D02*
D03*
Y150737D02*
D03*
X148480D02*
D03*
Y142863D02*
D03*
X157480Y150737D02*
D03*
Y142863D02*
D03*
D14*
X122480Y131800D02*
D03*
X118740Y139674D02*
D03*
X126220D02*
D03*
X105480Y19863D02*
D03*
X101740Y27737D02*
D03*
X109220D02*
D03*
X71480Y35737D02*
D03*
X75220Y27863D02*
D03*
X67740D02*
D03*
D15*
X96480Y132800D02*
D03*
X89393D02*
D03*
X150023Y70800D02*
D03*
X142937D02*
D03*
X186480Y17800D02*
D03*
X179393D02*
D03*
X89937Y63800D02*
D03*
X97023D02*
D03*
X89937Y55800D02*
D03*
X97023D02*
D03*
D16*
X119365Y72185D02*
D03*
X107395Y60215D02*
D03*
D17*
X138480Y8611D02*
D03*
Y34989D02*
D03*
X154480Y8611D02*
D03*
Y34989D02*
D03*
D18*
X186882Y85564D02*
D03*
Y89894D02*
D03*
Y94225D02*
D03*
Y98556D02*
D03*
Y102887D02*
D03*
Y107217D02*
D03*
Y111548D02*
D03*
Y115879D02*
D03*
D19*
X179480Y134461D02*
D03*
Y75800D02*
D03*
D20*
X138732Y132887D02*
D03*
D21*
X134401Y117611D02*
D03*
D22*
X190027Y183619D02*
D03*
Y148579D02*
D03*
X168374D02*
D03*
Y183619D02*
D03*
D23*
X167980Y159800D02*
D03*
Y162949D02*
D03*
Y166099D02*
D03*
Y169249D02*
D03*
Y172398D02*
D03*
D24*
X150354Y174800D02*
D03*
X142480D02*
D03*
X101417Y35800D02*
D03*
X93543D02*
D03*
Y43800D02*
D03*
X101417D02*
D03*
X79417D02*
D03*
X71543D02*
D03*
X67543Y20800D02*
D03*
X75417D02*
D03*
X65417Y69800D02*
D03*
X57543D02*
D03*
X65417Y78800D02*
D03*
X57543D02*
D03*
X65417Y86800D02*
D03*
X57543D02*
D03*
X40606Y167800D02*
D03*
X48480D02*
D03*
X7543Y22800D02*
D03*
X15417D02*
D03*
X87480Y154800D02*
D03*
X95354D02*
D03*
Y146800D02*
D03*
X87480D02*
D03*
D25*
X129480Y189800D02*
D03*
Y182320D02*
D03*
X47480Y69800D02*
D03*
Y62320D02*
D03*
X38480Y69540D02*
D03*
Y62060D02*
D03*
X29480Y69540D02*
D03*
Y62060D02*
D03*
X31480Y135800D02*
D03*
Y128320D02*
D03*
X7480Y38800D02*
D03*
Y31320D02*
D03*
D26*
X57000Y171800D02*
D03*
X60740D02*
D03*
X64480D02*
D03*
Y181249D02*
D03*
X60740D02*
D03*
X57000D02*
D03*
D27*
X33929Y177800D02*
D03*
Y181540D02*
D03*
Y185280D02*
D03*
X24480D02*
D03*
Y177800D02*
D03*
X96204Y176540D02*
D03*
Y169060D02*
D03*
X86756D02*
D03*
Y172800D02*
D03*
Y176540D02*
D03*
D28*
X97044Y78873D02*
D03*
X99271Y81100D02*
D03*
X101498Y83328D02*
D03*
X103725Y85555D02*
D03*
X105953Y87782D02*
D03*
X108180Y90009D02*
D03*
X110407Y92236D02*
D03*
X112634Y94463D02*
D03*
X89388Y117708D02*
D03*
X87161Y115481D02*
D03*
X84934Y113254D02*
D03*
X82707Y111027D02*
D03*
X80480Y108800D02*
D03*
X78253Y106573D02*
D03*
X76026Y104346D02*
D03*
X73799Y102119D02*
D03*
D29*
X112634D02*
D03*
X110407Y104346D02*
D03*
X108180Y106573D02*
D03*
X105953Y108800D02*
D03*
X103725Y111027D02*
D03*
X101498Y113254D02*
D03*
X99271Y115481D02*
D03*
X97044Y117708D02*
D03*
X73799Y94463D02*
D03*
X76026Y92236D02*
D03*
X78253Y90009D02*
D03*
X80480Y87782D02*
D03*
X82707Y85555D02*
D03*
X84934Y83328D02*
D03*
X87161Y81100D02*
D03*
X89388Y78873D02*
D03*
D30*
X64480Y160800D02*
D03*
Y153123D02*
D03*
D31*
X76480Y172272D02*
D03*
Y181328D02*
D03*
D32*
X77354Y188800D02*
D03*
X64480D02*
D03*
D33*
X16480Y159280D02*
D03*
Y151800D02*
D03*
X48480Y159800D02*
D03*
Y152320D02*
D03*
X17480Y170320D02*
D03*
Y177800D02*
D03*
X41480D02*
D03*
Y185280D02*
D03*
X118480Y147320D02*
D03*
Y154800D02*
D03*
X155480Y167280D02*
D03*
Y159800D02*
D03*
D34*
X26480Y169800D02*
D03*
X33960D02*
D03*
X91220Y188800D02*
D03*
X83740D02*
D03*
D35*
X134852Y56928D02*
D03*
X129562Y62218D02*
D03*
X122352Y44428D02*
D03*
X117062Y49718D02*
D03*
D36*
X142429Y167280D02*
D03*
Y159800D02*
D03*
X132980D02*
D03*
Y163540D02*
D03*
Y167280D02*
D03*
D37*
X107480Y181800D02*
X123480Y165800D01*
X73601Y60800D02*
X78480D01*
X73101Y60300D02*
X73601Y60800D01*
X64980Y60300D02*
X73101D01*
X58480Y53800D02*
X64980Y60300D01*
X34480Y104800D02*
Y107800D01*
X39480Y112800D01*
X183480Y44800D02*
X186480Y41800D01*
X169480Y44800D02*
X183480D01*
X186480Y39800D02*
Y41800D01*
X84480Y78419D02*
X87161Y81100D01*
X84480Y53505D02*
Y78419D01*
Y53505D02*
X88185Y49800D01*
X102380D01*
X119185Y38800D02*
X124185D01*
X102185Y55800D02*
X119185Y38800D01*
X97023Y55800D02*
X102185D01*
X113220Y169060D02*
X114480Y167800D01*
X96204Y169060D02*
X113220D01*
X104480Y181800D02*
X107480D01*
X129480Y155800D02*
X143480D01*
X123480Y161800D02*
X129480Y155800D01*
X123480Y161800D02*
Y165800D01*
X103480Y182800D02*
X104480Y181800D01*
X112634Y94463D02*
X119297Y87800D01*
X132480D01*
X98480Y190800D02*
Y192800D01*
X96480Y194800D02*
X98480Y192800D01*
X64480Y194800D02*
X96480D01*
X100480Y190800D02*
X103480Y187800D01*
Y182800D02*
Y187800D01*
X98480Y190800D02*
X100480D01*
X29380Y194800D02*
X64480D01*
X22480D02*
X29380D01*
X20417Y192737D02*
X22480Y194800D01*
X17480Y192737D02*
X20417D01*
X157480Y56800D02*
X169480Y44800D01*
X24480Y189900D02*
X29380Y194800D01*
X24480Y185280D02*
Y189900D01*
X116480Y25800D02*
Y35700D01*
X102380Y49800D02*
X116480Y35700D01*
X7480Y38800D02*
X15480D01*
X58480Y30800D02*
Y53800D01*
Y61800D02*
X72480D01*
X51480Y54800D02*
X58480Y61800D01*
X37480Y54800D02*
X51480D01*
X57480Y63800D02*
X71026D01*
X50480Y56800D02*
X57480Y63800D01*
X31480Y56800D02*
X50480D01*
X72480Y61800D02*
X81480Y70800D01*
X71026Y63800D02*
X77280Y70054D01*
X48354Y159674D02*
X48480Y159800D01*
Y167800D01*
X32480Y151800D02*
X40480D01*
X31480Y135800D02*
X41480D01*
X116480Y25800D02*
X121543Y20737D01*
X126480D01*
X93480Y82437D02*
Y87800D01*
Y82437D02*
X97044Y78873D01*
X58480Y9800D02*
Y30800D01*
X28480Y9800D02*
Y30800D01*
X81480Y70800D02*
Y79873D01*
X22480Y47800D02*
X31480Y56800D01*
X28480Y45800D02*
X37480Y54800D01*
X77280Y80128D02*
X82707Y85555D01*
X77280Y70054D02*
Y80128D01*
X75480Y70800D02*
Y82782D01*
X74480Y69800D02*
X75480Y70800D01*
X65417Y69800D02*
X74480D01*
X22480Y4800D02*
Y47800D01*
Y4800D02*
X24480Y2800D01*
X34480D01*
X38480Y6800D01*
Y9800D01*
Y30800D01*
X81480Y79873D02*
X84934Y83328D01*
X28480Y30800D02*
Y45800D01*
X37480Y86800D02*
X57543D01*
X29480Y78800D02*
X37480Y86800D01*
X29480Y69540D02*
Y78800D01*
X43480D02*
X57543D01*
X38480Y73800D02*
X43480Y78800D01*
X38480Y69540D02*
Y73800D01*
X47480Y69800D02*
X57543D01*
X72480Y84236D02*
X78253Y90009D01*
X65417Y78800D02*
X69480D01*
X72480Y81800D02*
Y84236D01*
X69480Y78800D02*
X72480Y81800D01*
X75480Y82782D02*
X80480Y87782D01*
X71390Y87600D02*
X76026Y92236D01*
X66217Y87600D02*
X71390D01*
X65417Y86800D02*
X66217Y87600D01*
X81417Y127863D02*
X84480Y124800D01*
X157480Y56800D02*
Y64800D01*
X154417Y34926D02*
X154480Y34989D01*
X179393Y17800D02*
Y24887D01*
X113861Y107800D02*
X116480D01*
X110407Y104346D02*
X113861Y107800D01*
X170724Y88556D02*
Y98556D01*
Y88556D02*
X178480Y80800D01*
X189480D01*
X192480Y77800D01*
Y53800D02*
Y77800D01*
X188480Y49800D02*
X192480Y53800D01*
X186480Y49800D02*
X188480D01*
X192480Y102800D02*
Y112800D01*
Y86800D02*
Y102800D01*
X186882Y102887D02*
X192393D01*
X192480Y102800D01*
X189401Y115879D02*
X192480Y112800D01*
X186882Y115879D02*
X189401D01*
X179574Y89894D02*
X186882D01*
X179480Y89800D02*
X179574Y89894D01*
X68480Y117800D02*
Y120800D01*
Y117800D02*
X70480Y115800D01*
X77934D01*
X82707Y111027D01*
X77388Y120800D02*
X84934Y113254D01*
X75480Y120800D02*
X77388D01*
X153480Y114800D02*
X176480D01*
X179732Y111548D01*
X186882D01*
X148480Y150737D02*
X157480D01*
X139480D02*
X148480D01*
X191244Y85564D02*
X192480Y86800D01*
X186882Y85564D02*
X191244D01*
X40480Y159674D02*
X48354D01*
X24480D02*
X32480D01*
X60740Y181249D02*
Y189540D01*
X59580Y190700D02*
X60740Y189540D01*
X51380Y190700D02*
X59580D01*
X49480Y188800D02*
X51380Y190700D01*
X49480Y185674D02*
Y188800D01*
Y185674D02*
X50254Y184900D01*
X57000Y181249D02*
Y186280D01*
X56480Y186800D02*
X57000Y186280D01*
X64480Y160800D02*
Y171800D01*
X64417Y153060D02*
X64480Y153123D01*
X49480Y153060D02*
X64417D01*
X33929Y185280D02*
Y190800D01*
X108480Y120236D02*
Y124800D01*
X101498Y113254D02*
X108480Y120236D01*
X64480Y188800D02*
Y194800D01*
X75220Y20997D02*
Y27863D01*
Y20997D02*
X75417Y20800D01*
Y9863D02*
Y20800D01*
Y9863D02*
X75480Y9800D01*
X102480Y27997D02*
X102740Y27737D01*
X101417Y28060D02*
X101740Y27737D01*
X101417Y28060D02*
Y35800D01*
X126480Y20737D02*
X133543D01*
X138480Y15800D01*
Y8611D02*
Y15800D01*
X89388Y64348D02*
X89937Y63800D01*
X89388Y64348D02*
Y78873D01*
X89937Y55800D02*
Y63800D01*
X97023Y55800D02*
Y63800D01*
X97044Y63821D01*
Y78873D01*
X128480Y51800D02*
X129480Y50800D01*
X76480Y112800D02*
X80480Y108800D01*
X39480Y112800D02*
X76480D01*
X79480Y34800D02*
X88480Y43800D01*
X93543D01*
X79417D02*
Y59863D01*
X78480Y60800D02*
X79417Y59863D01*
X86756Y160524D02*
X87480Y159800D01*
Y154800D02*
Y159800D01*
X86756Y160524D02*
Y169060D01*
X87480Y146800D02*
Y154800D01*
X81417Y127863D02*
Y130863D01*
X61480Y120800D02*
Y123800D01*
X63480Y125800D01*
X76843D01*
X87161Y115481D01*
X66480Y129800D02*
X71567D01*
X73480Y131713D01*
X24480Y126800D02*
X25742D01*
X27356Y128414D01*
X31386D01*
X31480Y128320D01*
X132480Y87800D02*
X136480Y91800D01*
Y108760D01*
X119480Y125760D02*
X136480Y108760D01*
X116480Y107800D02*
X125480Y98800D01*
Y93800D02*
Y98800D01*
X129480Y44095D02*
Y50800D01*
X124185Y38800D02*
X129480Y44095D01*
X138480Y34989D02*
Y42800D01*
X141786Y46106D01*
Y58231D01*
X126480Y34989D02*
X138480D01*
X48480Y159800D02*
X55480D01*
X49220Y160800D02*
X49480Y160540D01*
X143480Y155800D02*
X144480Y156800D01*
X49480Y152320D02*
Y153060D01*
D38*
X64480Y181249D02*
X83401D01*
X15480Y91800D02*
X29117D01*
X25480Y96800D02*
X31713D01*
X38180Y103267D01*
X29117Y91800D02*
X39880Y102563D01*
Y103200D02*
X44480Y107800D01*
X39880Y102563D02*
Y103200D01*
X38180Y105500D02*
X43480Y110800D01*
X38180Y103267D02*
Y105500D01*
X154480Y106800D02*
X158480Y110800D01*
X154480Y88800D02*
Y106800D01*
X158480Y110800D02*
X163480D01*
X171393Y102887D01*
X179393Y24887D02*
Y26887D01*
X176480Y29800D02*
X179393Y26887D01*
X102480Y146800D02*
X104480D01*
X97354D02*
X102480D01*
X97480Y162800D02*
X115480D01*
X98480Y180800D02*
Y183320D01*
X96204Y178524D02*
X98480Y180800D01*
X96204Y176540D02*
Y178524D01*
X129480Y159800D02*
X132980D01*
Y167280D02*
Y169300D01*
X124480Y177800D02*
X132980Y169300D01*
X124480Y177800D02*
Y181800D01*
X89000Y183320D02*
X98480D01*
X87008Y181328D02*
X89000Y183320D01*
X69480Y2800D02*
X93480D01*
X95480Y4800D01*
Y9800D01*
X57000Y168454D02*
Y171800D01*
Y168454D02*
X59480Y165973D01*
X109220Y27737D02*
Y38897D01*
X104317Y43800D02*
X109220Y38897D01*
X101417Y43800D02*
X104317D01*
X105480Y9800D02*
Y19863D01*
X93480Y105800D02*
Y113617D01*
Y92800D02*
Y105800D01*
X99271Y81009D02*
X103480Y76800D01*
Y64129D02*
Y76800D01*
X106026Y78800D02*
X112751D01*
X101498Y83328D02*
X106026Y78800D01*
X126480Y20737D02*
Y27902D01*
X154417Y26863D02*
Y34926D01*
Y26863D02*
X159354Y21926D01*
X166480D01*
X99480Y101800D02*
X100843D01*
X110407Y92236D01*
X95980Y90300D02*
X98480Y92800D01*
X100934D01*
X93480Y87800D02*
X95980Y90300D01*
X93480Y92800D02*
X95980Y90300D01*
X89388Y117708D02*
X93480Y113617D01*
X100934Y92800D02*
X105953Y87782D01*
X85480Y27737D02*
Y34800D01*
X108180Y90009D02*
X112388Y85800D01*
X170724Y98556D02*
X186882D01*
X163480Y105800D02*
X170724Y98556D01*
X159480Y105800D02*
X163480D01*
X112553Y110800D02*
X116480D01*
X112480Y110873D02*
X112553Y110800D01*
X108180Y106573D02*
X112480Y110873D01*
X174063Y107217D02*
X186882D01*
X170480Y110800D02*
X174063Y107217D01*
X115480Y115800D02*
X120480Y110800D01*
X108498Y115800D02*
X115480D01*
X103725Y111027D02*
X108498Y115800D01*
X68480Y99782D02*
X73799Y94463D01*
X68480Y99782D02*
Y99800D01*
X71480Y52800D02*
X71543Y52737D01*
Y43800D02*
Y52737D01*
X71480Y43737D02*
X71543Y43800D01*
X71480Y35737D02*
Y43737D01*
X142429Y167280D02*
X142480Y167332D01*
Y174800D01*
X138480Y181926D02*
X147980D01*
X124480Y181800D02*
Y191449D01*
Y181800D02*
X128960D01*
X129480Y182320D01*
Y189800D02*
X138480D01*
X127831Y194800D02*
X145480D01*
X124480Y191449D02*
X127831Y194800D01*
X147980Y189800D02*
Y192300D01*
X145480Y194800D02*
X147980Y192300D01*
X165137Y171859D02*
X165180D01*
X89388Y117708D02*
Y132795D01*
X97044Y117708D02*
Y132236D01*
X96480Y132800D02*
X97044Y132236D01*
X99271Y81009D02*
Y81100D01*
X103480Y64129D02*
X107395Y60215D01*
X112751Y78800D02*
X119365Y72185D01*
X107395Y59385D02*
Y60215D01*
X129751Y61800D02*
X129980D01*
X68117Y107800D02*
X73799Y102119D01*
X69572Y110800D02*
X76026Y104346D01*
X44480Y107800D02*
X68117D01*
X43480Y110800D02*
X69572D01*
X160480Y160800D02*
Y179800D01*
X158354Y181926D02*
X160480Y179800D01*
X147980Y181926D02*
X158354D01*
X147980Y189800D02*
X156480D01*
X99271Y115481D02*
X103480Y119690D01*
X15480Y81800D02*
X25480D01*
X67740Y20997D02*
Y27863D01*
X67543Y20800D02*
X67740Y20997D01*
X67543Y4737D02*
Y20800D01*
Y4737D02*
X69480Y2800D01*
X85480Y9800D02*
Y19863D01*
X93543Y36800D02*
X93606Y36863D01*
X93480Y19863D02*
X105480D01*
X109220Y27737D02*
X109480Y27997D01*
X85480Y27737D02*
X93480D01*
X111480Y131800D02*
X122480D01*
X105480D02*
X111480D01*
X103480Y129800D02*
X105480Y131800D01*
X103480Y119690D02*
Y129800D01*
X126220Y139674D02*
Y148540D01*
X76480Y172272D02*
X80748Y176540D01*
X86756D01*
X59606Y127926D02*
X62480Y130800D01*
Y138800D01*
X41480Y127926D02*
X59606D01*
X62480Y138800D02*
X73480D01*
X81480D01*
X103606D02*
X104480Y139674D01*
X81480Y138800D02*
X89417D01*
X103606D01*
X104480Y139674D02*
X111480D01*
X89417Y132824D02*
Y138800D01*
X89388Y132795D02*
X89393Y132800D01*
X89417Y132824D01*
X76480Y165800D02*
Y172272D01*
Y146800D02*
Y152926D01*
X95354Y154800D02*
Y160674D01*
X97480Y162800D01*
X115480D02*
X119480Y158800D01*
X102480Y154674D02*
X110417D01*
X112388Y85800D02*
X133480D01*
X139480Y91800D01*
Y123953D01*
X148480Y132953D01*
Y142863D01*
X120480Y110800D02*
X125480D01*
X122480Y104800D02*
X125480D01*
X116480Y110800D02*
X122480Y104800D01*
X107395Y59385D02*
X117062Y49718D01*
X117480Y49300D01*
X129333Y62218D02*
X129562D01*
X119365Y72185D02*
X129333Y62218D01*
X133480Y66537D02*
Y71800D01*
Y66537D02*
X141786Y58231D01*
X24480Y148800D02*
Y151800D01*
Y148800D02*
X25480Y147800D01*
X48480D01*
X83740Y181587D02*
Y188800D01*
X83480Y181328D02*
X83740Y181587D01*
X83480Y181328D02*
X87008D01*
X77354Y188800D02*
X83740D01*
X71480D02*
X77354D01*
X93606Y36863D02*
Y44800D01*
X110417Y154674D02*
X110480Y154737D01*
X119480Y154540D02*
Y158800D01*
X122480Y82800D02*
X133480Y71800D01*
X106480Y82800D02*
X122480D01*
X103725Y85555D02*
X106480Y82800D01*
X83401Y181249D02*
X83480Y181328D01*
D39*
X31710Y108000D02*
X38610Y114900D01*
X30980Y108000D02*
X31710D01*
X29980Y109000D02*
X30980Y108000D01*
X29980Y109000D02*
Y112000D01*
X142937Y77257D02*
X154480Y88800D01*
X142937Y70800D02*
Y77257D01*
X171393Y102887D02*
X186882D01*
X142937Y65343D02*
X150480Y57800D01*
X142937Y65343D02*
Y70800D01*
X150480Y51800D02*
Y57800D01*
Y51800D02*
X166480Y35800D01*
Y29800D02*
Y35800D01*
Y29800D02*
X176480D01*
X16480Y151800D02*
X24480D01*
X126480Y162800D02*
X129480Y159800D01*
X126480Y162800D02*
Y171800D01*
X120480Y177800D02*
X126480Y171800D01*
X120480Y177800D02*
Y181800D01*
Y183800D01*
X117220Y187060D02*
X120480Y183800D01*
X107535Y187060D02*
X117220D01*
X33929Y177800D02*
X41480D01*
X143480Y116800D02*
X155480Y128800D01*
X132480Y138800D02*
X136543Y142863D01*
X143480Y87800D02*
Y116800D01*
X15417Y30863D02*
X15480Y30926D01*
X15417Y22800D02*
Y30863D01*
Y22800D02*
X15480Y22737D01*
Y15800D02*
Y22737D01*
X52480Y171800D02*
X57000D01*
X49480Y174800D02*
X52480Y171800D01*
X49480Y174800D02*
Y177800D01*
X17480D02*
X24480D01*
X7480D02*
X17480D01*
X33960Y169800D02*
Y177768D01*
X33929Y177800D02*
X33960Y177768D01*
X41480Y177800D02*
X49480D01*
X136543Y142863D02*
X139480D01*
X52480Y138800D02*
Y140800D01*
X48480Y144800D02*
X52480Y140800D01*
X155480Y128800D02*
Y136800D01*
X48480Y144800D02*
Y147800D01*
Y152320D01*
D40*
X186480Y29800D02*
D03*
X15480Y51800D02*
D03*
X7480Y177800D02*
D03*
D41*
X176480Y29800D02*
D03*
X186480Y39800D02*
D03*
X176480D02*
D03*
X186480Y49800D02*
D03*
X176480D02*
D03*
X186480Y59800D02*
D03*
X176480D02*
D03*
X48480Y30800D02*
D03*
X38480D02*
D03*
X28480D02*
D03*
X48480Y9800D02*
D03*
X38480D02*
D03*
X28480D02*
D03*
X95480D02*
D03*
X85480D02*
D03*
X75480D02*
D03*
X52480Y138800D02*
D03*
X5480Y141800D02*
D03*
X15480D02*
D03*
X5480Y131800D02*
D03*
X15480D02*
D03*
X5480Y121800D02*
D03*
X15480D02*
D03*
X5480Y111800D02*
D03*
X15480D02*
D03*
X5480Y101800D02*
D03*
X15480D02*
D03*
X5480Y91800D02*
D03*
X15480D02*
D03*
X5480Y81800D02*
D03*
X15480D02*
D03*
X5480Y71800D02*
D03*
X15480D02*
D03*
X5480Y61800D02*
D03*
X15480D02*
D03*
X5480Y51800D02*
D03*
X7480Y167800D02*
D03*
X103480Y174800D02*
D03*
D42*
X178216Y174760D02*
D03*
Y157438D02*
D03*
D43*
X58480Y30800D02*
D03*
Y9800D02*
D03*
X105480D02*
D03*
X62480Y138800D02*
D03*
X113480Y174800D02*
D03*
D44*
X34480Y104800D02*
D03*
X97480Y162800D02*
D03*
X114480Y167800D02*
D03*
X119480Y125800D02*
D03*
X132480Y175800D02*
D03*
X59480Y165973D02*
D03*
X189380Y126900D02*
D03*
X181480Y127100D02*
D03*
X174280Y127000D02*
D03*
X167480Y119800D02*
D03*
Y126900D02*
D03*
X166480Y137800D02*
D03*
X150780Y22300D02*
D03*
X143380Y21800D02*
D03*
X120280Y58700D02*
D03*
X7580Y151900D02*
D03*
X7780Y160000D02*
D03*
X132480Y138800D02*
D03*
X143480Y87800D02*
D03*
X15480Y15800D02*
D03*
X93480Y105800D02*
D03*
X78480Y60800D02*
D03*
X133480Y71800D02*
D03*
X99480Y101800D02*
D03*
X85480Y34800D02*
D03*
X84480Y124800D02*
D03*
X157480Y64800D02*
D03*
X179480Y89800D02*
D03*
X68480Y120800D02*
D03*
X75480D02*
D03*
X153480Y114800D02*
D03*
X159480Y105800D02*
D03*
X170480Y110800D02*
D03*
X68480Y99800D02*
D03*
X71480Y52800D02*
D03*
X120480Y181800D02*
D03*
X160480Y160800D02*
D03*
X150480Y156800D02*
D03*
Y160800D02*
D03*
X147480Y156800D02*
D03*
Y160800D02*
D03*
X160480Y156800D02*
D03*
X56480Y186800D02*
D03*
X25480Y81800D02*
D03*
Y96800D02*
D03*
X156480Y189800D02*
D03*
X33929Y190800D02*
D03*
X108480Y124800D02*
D03*
X128480Y51800D02*
D03*
X126220Y148540D02*
D03*
X61480Y120800D02*
D03*
X79480Y34800D02*
D03*
X76480Y146800D02*
D03*
X66480Y129800D02*
D03*
X24480Y142800D02*
D03*
X32480D02*
D03*
X40480D02*
D03*
X24480Y126800D02*
D03*
X125480Y110800D02*
D03*
Y104800D02*
D03*
Y93800D02*
D03*
X155480Y136800D02*
D03*
X150480Y57800D02*
D03*
X55480Y159800D02*
D03*
X71480Y188800D02*
D03*
X144480Y156800D02*
D03*
M02*
