G04 Layer_Color=16711935*
%FSLAX25Y25*%
%MOIN*%
G70*
G01*
G75*
%ADD48C,0.00500*%
%ADD81C,0.00394*%
%ADD83C,0.00100*%
D48*
X145370Y9989D02*
Y33611D01*
X131590D02*
X145370D01*
X131590Y9989D02*
Y33611D01*
Y9989D02*
X145370D01*
X161370D02*
Y33611D01*
X147590D02*
X161370D01*
X147590Y9989D02*
Y33611D01*
Y9989D02*
X161370D01*
X70574Y170894D02*
X82386D01*
X70574Y182706D02*
X82386D01*
X70574Y170894D02*
Y182706D01*
X82386Y170894D02*
Y182706D01*
D81*
X95185Y83815D02*
G03*
X95185Y83815I-1969J0D01*
G01*
X100252Y181154D02*
Y192965D01*
X105764Y181154D02*
Y192965D01*
X100252D02*
X105764D01*
X100252Y181154D02*
X105764D01*
X73330Y154068D02*
Y164658D01*
X79630D01*
X73330Y154068D02*
X79630D01*
Y164658D01*
X116732Y133178D02*
Y138296D01*
X128228Y133178D02*
Y138296D01*
X116732Y133178D02*
X128228D01*
X116732Y138296D02*
X128228D01*
X54637Y172981D02*
X66842D01*
X54637Y180068D02*
X66842D01*
X54637Y172981D02*
Y180068D01*
X66842Y172981D02*
Y180068D01*
X32551Y175635D02*
Y187446D01*
X25858Y175635D02*
Y187446D01*
Y175635D02*
X32551D01*
X25858Y187446D02*
X32551D01*
X93216Y78804D02*
X112704Y98291D01*
X73729D02*
X93216Y117778D01*
X73729Y98291D02*
X93216Y78804D01*
Y117778D02*
X112704Y98291D01*
X99732Y21241D02*
Y26359D01*
X111228Y21241D02*
Y26359D01*
X99732Y21241D02*
X111228D01*
X99732Y26359D02*
X111228D01*
X77228Y29241D02*
Y34359D01*
X65732Y29241D02*
Y34359D01*
X77228D01*
X65732Y29241D02*
X77228D01*
X60149Y162276D02*
X68811D01*
X60149Y151646D02*
X68811D01*
Y162276D01*
X60149Y151646D02*
Y162276D01*
X65622Y185650D02*
X76212D01*
X65622D02*
Y191950D01*
X76212Y185650D02*
Y191950D01*
X65622D02*
X76212D01*
X88134Y166894D02*
X94827D01*
X88134Y178706D02*
X94827D01*
Y166894D02*
Y178706D01*
X88134Y166894D02*
Y178706D01*
X134161Y157438D02*
X141248D01*
X134161Y169643D02*
X141248D01*
Y157438D02*
Y169643D01*
X134161Y157438D02*
Y169643D01*
D83*
X12050Y0D02*
G03*
X231Y-0I-5909J63D01*
G01*
X299Y196678D02*
G03*
X12118Y196678I5909J-63D01*
G01*
X157713Y196670D02*
G03*
X169532Y196670I5909J-63D01*
G01*
X169540Y1D02*
G03*
X157720Y1I-5910J0D01*
G01*
X0Y0D02*
X231D01*
X12050D02*
X157712D01*
X0D02*
Y132920D01*
Y196675D01*
X-2Y196678D02*
X0Y196675D01*
X-2Y196678D02*
X299D01*
X12126Y196670D02*
X12126Y196670D01*
X157713D01*
X169548Y196670D02*
X196040D01*
Y-7D02*
Y196670D01*
X169547Y-7D02*
X196040D01*
M02*
