M48
;Layer_Color=9474304
;FILE_FORMAT=2:5
INCH,TZ
;TYPE=PLATED
T1F00S00C0.01575
T2F00S00C0.03543
;TYPE=NON_PLATED
T3F00S00C0.03543
%
T01
X15480Y15800
X79480Y34800
X85480
X71480Y52800
X78480Y60800
X120280Y58700
X128480Y51800
X150480Y57800
X150780Y22300
X143380Y21800
X157480Y64800
X133480Y71800
X143480Y87800
X125480Y93800
Y104800
Y110800
X119480Y125800
X108480Y124800
X84480
X75480Y120800
X68480
X61480
X66480Y129800
X76480Y146800
X55480Y159800
X59480Y165973
X56480Y186800
X71480Y188800
X97480Y162800
X114480Y167800
X120480Y181800
X132480Y175800
X147480Y160800
X150480
Y156800
X147480
X144480
X160480
Y160800
X166480Y137800
X167480Y126900
X174280Y127000
X181480Y127100
X189380Y126900
X167480Y119800
X170480Y110800
X159480Y105800
X153480Y114800
X155480Y136800
X132480Y138800
X126220Y148540
X156480Y189800
X179480Y89800
X99480Y101800
X93480Y105800
X68480Y99800
X34480Y104800
X25480Y96800
Y81800
X24480Y126800
Y142800
X32480
X40480
X7580Y151900
X7780Y160000
X33929Y190800
T02
X28480Y9800
X38480
Y30800
X28480
X15480Y51800
Y61800
X5480
Y51800
X48480Y30800
X58480
Y9800
X48480
X75480
X85480
X95480
X105480
X176480Y29800
X186480
Y39800
X176480
Y49800
X186480
Y59800
X176480
X113480Y174800
X103480
X62480Y138800
X52480
X15480Y141800
X5480
Y131800
X15480
Y121800
X5480
Y111800
X15480
Y101800
X5480
Y91800
X15480
Y81800
X5480
Y71800
X15480
X7480Y167800
Y177800
T03
X178216Y157438
Y174760
M30
