G04 Layer_Color=255*
%FSLAX25Y25*%
%MOIN*%
G70*
G01*
G75*
%ADD10R,0.04134X0.02362*%
%ADD11R,0.04803X0.03583*%
%ADD12R,0.05512X0.04134*%
%ADD13R,0.05512X0.03740*%
%ADD14R,0.03150X0.03543*%
%ADD15R,0.04134X0.05512*%
G04:AMPARAMS|DCode=16|XSize=85mil|YSize=70.87mil|CornerRadius=0mil|HoleSize=0mil|Usage=FLASHONLY|Rotation=45.000|XOffset=0mil|YOffset=0mil|HoleType=Round|Shape=Rectangle|*
%AMROTATEDRECTD16*
4,1,4,-0.00500,-0.05511,-0.05511,-0.00500,0.00500,0.05511,0.05511,0.00500,-0.00500,-0.05511,0.0*
%
%ADD16ROTATEDRECTD16*%

%ADD17R,0.05905X0.09055*%
%ADD18R,0.04882X0.03150*%
%ADD19R,0.09842X0.03937*%
%ADD20R,0.08661X0.04528*%
%ADD21R,0.04528X0.05905*%
%ADD22R,0.09842X0.07874*%
%ADD23R,0.09055X0.01968*%
%ADD24R,0.03740X0.05512*%
%ADD25R,0.05512X0.03543*%
%ADD26R,0.02362X0.03543*%
%ADD27R,0.03543X0.02559*%
G04:AMPARAMS|DCode=28|XSize=21.65mil|YSize=64.96mil|CornerRadius=0mil|HoleSize=0mil|Usage=FLASHONLY|Rotation=225.000|XOffset=0mil|YOffset=0mil|HoleType=Round|Shape=Round|*
%AMOVALD28*
21,1,0.04331,0.02165,0.00000,0.00000,315.0*
1,1,0.02165,-0.01531,0.01531*
1,1,0.02165,0.01531,-0.01531*
%
%ADD28OVALD28*%

G04:AMPARAMS|DCode=29|XSize=21.65mil|YSize=64.96mil|CornerRadius=0mil|HoleSize=0mil|Usage=FLASHONLY|Rotation=135.000|XOffset=0mil|YOffset=0mil|HoleType=Round|Shape=Round|*
%AMOVALD29*
21,1,0.04331,0.02165,0.00000,0.00000,225.0*
1,1,0.02165,0.01531,0.01531*
1,1,0.02165,-0.01531,-0.01531*
%
%ADD29OVALD29*%

%ADD30R,0.09055X0.05512*%
%ADD31R,0.11500X0.05512*%
%ADD32R,0.03583X0.04803*%
%ADD33R,0.05905X0.05118*%
%ADD34R,0.05118X0.05905*%
G04:AMPARAMS|DCode=35|XSize=59.05mil|YSize=51.18mil|CornerRadius=0mil|HoleSize=0mil|Usage=FLASHONLY|Rotation=225.000|XOffset=0mil|YOffset=0mil|HoleType=Round|Shape=Rectangle|*
%AMROTATEDRECTD35*
4,1,4,0.00278,0.03897,0.03897,0.00278,-0.00278,-0.03897,-0.03897,-0.00278,0.00278,0.03897,0.0*
%
%ADD35ROTATEDRECTD35*%

%ADD36R,0.04331X0.02559*%
%ADD40R,0.05905X0.05905*%
%ADD41C,0.05905*%
%ADD42C,0.02362*%
%ADD43R,0.05905X0.05905*%
D10*
X98480Y190800D02*
D03*
Y183320D02*
D03*
X107535Y187060D02*
D03*
D11*
X76480Y152926D02*
D03*
Y165800D02*
D03*
D12*
X73480Y131713D02*
D03*
Y138800D02*
D03*
X126480Y27902D02*
D03*
Y34989D02*
D03*
D13*
X81480Y130926D02*
D03*
Y138800D02*
D03*
X111480Y131800D02*
D03*
Y139674D02*
D03*
X126480Y20737D02*
D03*
Y12863D02*
D03*
X166480Y29800D02*
D03*
Y21926D02*
D03*
X147980Y181926D02*
D03*
Y189800D02*
D03*
X138480Y181926D02*
D03*
Y189800D02*
D03*
X93480Y19863D02*
D03*
Y27737D02*
D03*
X85480Y19863D02*
D03*
Y27737D02*
D03*
X24480Y159674D02*
D03*
Y151800D02*
D03*
X32480Y159674D02*
D03*
Y151800D02*
D03*
X40480Y159674D02*
D03*
Y151800D02*
D03*
X41480Y127926D02*
D03*
Y135800D02*
D03*
X49480Y177800D02*
D03*
Y185674D02*
D03*
X17480Y192737D02*
D03*
Y184863D02*
D03*
X15480Y30926D02*
D03*
Y38800D02*
D03*
X102480Y146800D02*
D03*
Y154674D02*
D03*
X110480Y146800D02*
D03*
Y154674D02*
D03*
X139480Y142863D02*
D03*
Y150737D02*
D03*
X148480D02*
D03*
Y142863D02*
D03*
X157480Y150737D02*
D03*
Y142863D02*
D03*
D14*
X122480Y131800D02*
D03*
X118740Y139674D02*
D03*
X126220D02*
D03*
X105480Y19863D02*
D03*
X101740Y27737D02*
D03*
X109220D02*
D03*
X71480Y35737D02*
D03*
X75220Y27863D02*
D03*
X67740D02*
D03*
D15*
X96480Y132800D02*
D03*
X89393D02*
D03*
X150023Y70800D02*
D03*
X142937D02*
D03*
X186480Y17800D02*
D03*
X179393D02*
D03*
X89937Y63800D02*
D03*
X97023D02*
D03*
X89937Y55800D02*
D03*
X97023D02*
D03*
D16*
X119365Y72185D02*
D03*
X107395Y60215D02*
D03*
D17*
X138480Y8611D02*
D03*
Y34989D02*
D03*
X154480Y8611D02*
D03*
Y34989D02*
D03*
D18*
X186882Y85564D02*
D03*
Y89894D02*
D03*
Y94225D02*
D03*
Y98556D02*
D03*
Y102887D02*
D03*
Y107217D02*
D03*
Y111548D02*
D03*
Y115879D02*
D03*
D19*
X179480Y134461D02*
D03*
Y75800D02*
D03*
D20*
X138732Y132887D02*
D03*
D21*
X134401Y117611D02*
D03*
D22*
X190027Y183619D02*
D03*
Y148579D02*
D03*
X168374D02*
D03*
Y183619D02*
D03*
D23*
X167980Y159800D02*
D03*
Y162949D02*
D03*
Y166099D02*
D03*
Y169249D02*
D03*
Y172398D02*
D03*
D24*
X150354Y174800D02*
D03*
X142480D02*
D03*
X101417Y35800D02*
D03*
X93543D02*
D03*
Y43800D02*
D03*
X101417D02*
D03*
X79417D02*
D03*
X71543D02*
D03*
X67543Y20800D02*
D03*
X75417D02*
D03*
X65417Y69800D02*
D03*
X57543D02*
D03*
X65417Y78800D02*
D03*
X57543D02*
D03*
X65417Y86800D02*
D03*
X57543D02*
D03*
X40606Y167800D02*
D03*
X48480D02*
D03*
X7543Y22800D02*
D03*
X15417D02*
D03*
X87480Y154800D02*
D03*
X95354D02*
D03*
Y146800D02*
D03*
X87480D02*
D03*
D25*
X129480Y189800D02*
D03*
Y182320D02*
D03*
X47480Y69800D02*
D03*
Y62320D02*
D03*
X38480Y69540D02*
D03*
Y62060D02*
D03*
X29480Y69540D02*
D03*
Y62060D02*
D03*
X31480Y135800D02*
D03*
Y128320D02*
D03*
X7480Y38800D02*
D03*
Y31320D02*
D03*
D26*
X57000Y171800D02*
D03*
X60740D02*
D03*
X64480D02*
D03*
Y181249D02*
D03*
X60740D02*
D03*
X57000D02*
D03*
D27*
X33929Y177800D02*
D03*
Y181540D02*
D03*
Y185280D02*
D03*
X24480D02*
D03*
Y177800D02*
D03*
X96204Y176540D02*
D03*
Y169060D02*
D03*
X86756D02*
D03*
Y172800D02*
D03*
Y176540D02*
D03*
D28*
X97044Y78873D02*
D03*
X99271Y81100D02*
D03*
X101498Y83328D02*
D03*
X103725Y85555D02*
D03*
X105953Y87782D02*
D03*
X108180Y90009D02*
D03*
X110407Y92236D02*
D03*
X112634Y94463D02*
D03*
X89388Y117708D02*
D03*
X87161Y115481D02*
D03*
X84934Y113254D02*
D03*
X82707Y111027D02*
D03*
X80480Y108800D02*
D03*
X78253Y106573D02*
D03*
X76026Y104346D02*
D03*
X73799Y102119D02*
D03*
D29*
X112634D02*
D03*
X110407Y104346D02*
D03*
X108180Y106573D02*
D03*
X105953Y108800D02*
D03*
X103725Y111027D02*
D03*
X101498Y113254D02*
D03*
X99271Y115481D02*
D03*
X97044Y117708D02*
D03*
X73799Y94463D02*
D03*
X76026Y92236D02*
D03*
X78253Y90009D02*
D03*
X80480Y87782D02*
D03*
X82707Y85555D02*
D03*
X84934Y83328D02*
D03*
X87161Y81100D02*
D03*
X89388Y78873D02*
D03*
D30*
X64480Y160800D02*
D03*
Y153123D02*
D03*
D31*
X76480Y172272D02*
D03*
Y181328D02*
D03*
D32*
X77354Y188800D02*
D03*
X64480D02*
D03*
D33*
X16480Y159280D02*
D03*
Y151800D02*
D03*
X48480Y159800D02*
D03*
Y152320D02*
D03*
X17480Y170320D02*
D03*
Y177800D02*
D03*
X41480D02*
D03*
Y185280D02*
D03*
X118480Y147320D02*
D03*
Y154800D02*
D03*
X155480Y167280D02*
D03*
Y159800D02*
D03*
D34*
X26480Y169800D02*
D03*
X33960D02*
D03*
X91220Y188800D02*
D03*
X83740D02*
D03*
D35*
X134852Y56928D02*
D03*
X129562Y62218D02*
D03*
X122352Y44428D02*
D03*
X117062Y49718D02*
D03*
D36*
X142429Y167280D02*
D03*
Y159800D02*
D03*
X132980D02*
D03*
Y163540D02*
D03*
Y167280D02*
D03*
D40*
X186480Y29800D02*
D03*
X15480Y51800D02*
D03*
X7480Y177800D02*
D03*
D41*
X176480Y29800D02*
D03*
X186480Y39800D02*
D03*
X176480D02*
D03*
X186480Y49800D02*
D03*
X176480D02*
D03*
X186480Y59800D02*
D03*
X176480D02*
D03*
X48480Y30800D02*
D03*
X38480D02*
D03*
X28480D02*
D03*
X48480Y9800D02*
D03*
X38480D02*
D03*
X28480D02*
D03*
X95480D02*
D03*
X85480D02*
D03*
X75480D02*
D03*
X52480Y138800D02*
D03*
X5480Y141800D02*
D03*
X15480D02*
D03*
X5480Y131800D02*
D03*
X15480D02*
D03*
X5480Y121800D02*
D03*
X15480D02*
D03*
X5480Y111800D02*
D03*
X15480D02*
D03*
X5480Y101800D02*
D03*
X15480D02*
D03*
X5480Y91800D02*
D03*
X15480D02*
D03*
X5480Y81800D02*
D03*
X15480D02*
D03*
X5480Y71800D02*
D03*
X15480D02*
D03*
X5480Y61800D02*
D03*
X15480D02*
D03*
X5480Y51800D02*
D03*
X7480Y167800D02*
D03*
X103480Y174800D02*
D03*
D42*
X178216Y174760D02*
D03*
Y157438D02*
D03*
D43*
X58480Y30800D02*
D03*
Y9800D02*
D03*
X105480D02*
D03*
X62480Y138800D02*
D03*
X113480Y174800D02*
D03*
M02*
