G04 Layer_Physical_Order=2*
G04 Layer_Color=16711680*
%FSLAX25Y25*%
%MOIN*%
G70*
G01*
G75*
%ADD37C,0.00800*%
%ADD38C,0.01000*%
%ADD39C,0.02000*%
%ADD40R,0.05905X0.05905*%
%ADD41C,0.05905*%
%ADD42C,0.02362*%
%ADD43R,0.05905X0.05905*%
%ADD44C,0.02756*%
G36*
X196040Y354D02*
X195686Y-0D01*
X10Y-0D01*
X10Y196660D01*
X16635D01*
X16799Y196348D01*
X16824Y196160D01*
X6272Y185608D01*
X6060Y185349D01*
X5902Y185054D01*
X5805Y184733D01*
X5772Y184400D01*
Y181453D01*
X3827D01*
Y174147D01*
X11133D01*
Y181453D01*
X9188D01*
Y183692D01*
X18788Y193292D01*
X33265D01*
X33324Y192792D01*
X33285Y192782D01*
X32983Y192657D01*
X32704Y192486D01*
X32455Y192274D01*
X32243Y192025D01*
X32072Y191746D01*
X31946Y191444D01*
X31870Y191126D01*
X31844Y190800D01*
X31870Y190474D01*
X31946Y190156D01*
X32072Y189854D01*
X32243Y189575D01*
X32455Y189326D01*
X32704Y189114D01*
X32819Y189043D01*
Y157951D01*
X32857Y157664D01*
X32968Y157396D01*
X33144Y157167D01*
X37731Y152580D01*
X37961Y152404D01*
X38228Y152293D01*
X38515Y152255D01*
X64020D01*
X68370Y147905D01*
Y133800D01*
X68408Y133513D01*
X68519Y133245D01*
X68695Y133016D01*
X77696Y124015D01*
X77925Y123839D01*
X78193Y123728D01*
X78480Y123690D01*
X82723D01*
X82794Y123575D01*
X83006Y123326D01*
X83255Y123114D01*
X83534Y122943D01*
X83836Y122818D01*
X84154Y122741D01*
X84480Y122716D01*
X84806Y122741D01*
X85124Y122818D01*
X85426Y122943D01*
X85705Y123114D01*
X85954Y123326D01*
X86166Y123575D01*
X86237Y123690D01*
X106723D01*
X106794Y123575D01*
X107006Y123326D01*
X107255Y123114D01*
X107534Y122943D01*
X107836Y122818D01*
X108154Y122741D01*
X108480Y122716D01*
X108806Y122741D01*
X109124Y122818D01*
X109426Y122943D01*
X109705Y123114D01*
X109954Y123326D01*
X110166Y123575D01*
X110337Y123854D01*
X110462Y124156D01*
X110539Y124474D01*
X110564Y124800D01*
X110539Y125126D01*
X110462Y125444D01*
X110337Y125746D01*
X110166Y126025D01*
X109954Y126274D01*
X109705Y126486D01*
X109426Y126657D01*
X109124Y126782D01*
X108806Y126859D01*
X108480Y126884D01*
X108154Y126859D01*
X107836Y126782D01*
X107534Y126657D01*
X107255Y126486D01*
X107006Y126274D01*
X106794Y126025D01*
X106723Y125909D01*
X86237D01*
X86166Y126025D01*
X85954Y126274D01*
X85705Y126486D01*
X85426Y126657D01*
X85124Y126782D01*
X84806Y126859D01*
X84480Y126884D01*
X84154Y126859D01*
X83836Y126782D01*
X83534Y126657D01*
X83255Y126486D01*
X83006Y126274D01*
X82794Y126025D01*
X82723Y125909D01*
X78940D01*
X70590Y134260D01*
Y148365D01*
X70552Y148652D01*
X70441Y148919D01*
X70265Y149149D01*
X65819Y153595D01*
X66010Y154057D01*
X69980D01*
X70214Y154088D01*
X70432Y154178D01*
X70620Y154322D01*
X70763Y154509D01*
X70854Y154727D01*
X70885Y154961D01*
Y158961D01*
X70854Y159195D01*
X70763Y159414D01*
X70620Y159601D01*
X70432Y159745D01*
X70214Y159835D01*
X69980Y159866D01*
X58980D01*
X58746Y159835D01*
X58528Y159745D01*
X58340Y159601D01*
X58197Y159414D01*
X58106Y159195D01*
X58075Y158961D01*
Y154961D01*
X57755Y154524D01*
X57670Y154474D01*
X38975D01*
X35038Y158411D01*
Y189043D01*
X35154Y189114D01*
X35403Y189326D01*
X35615Y189575D01*
X35786Y189854D01*
X35911Y190156D01*
X35987Y190474D01*
X36013Y190800D01*
X35987Y191126D01*
X35911Y191444D01*
X35786Y191746D01*
X35615Y192025D01*
X35403Y192274D01*
X35154Y192486D01*
X34875Y192657D01*
X34573Y192782D01*
X34534Y192792D01*
X34593Y193292D01*
X113572D01*
X118772Y188092D01*
Y182989D01*
X118623Y182746D01*
X118498Y182444D01*
X118421Y182126D01*
X118396Y181800D01*
X118421Y181474D01*
X118498Y181156D01*
X118623Y180854D01*
X118772Y180611D01*
Y179204D01*
X118805Y178871D01*
X118902Y178551D01*
X119060Y178255D01*
X119272Y177997D01*
X130772Y166497D01*
Y139989D01*
X130623Y139746D01*
X130498Y139444D01*
X130421Y139126D01*
X130396Y138800D01*
X130421Y138474D01*
X130498Y138156D01*
X130623Y137854D01*
X130794Y137575D01*
X131006Y137326D01*
X131255Y137114D01*
X131534Y136943D01*
X131836Y136818D01*
X132154Y136741D01*
X132480Y136716D01*
X132806Y136741D01*
X133124Y136818D01*
X133426Y136943D01*
X133705Y137114D01*
X133954Y137326D01*
X134166Y137575D01*
X134337Y137854D01*
X134462Y138156D01*
X134539Y138474D01*
X134564Y138800D01*
X134539Y139126D01*
X134462Y139444D01*
X134337Y139746D01*
X134188Y139989D01*
Y167204D01*
X134155Y167538D01*
X134058Y167858D01*
X133900Y168154D01*
X133688Y168412D01*
X122188Y179912D01*
Y180611D01*
X122337Y180854D01*
X122462Y181156D01*
X122539Y181474D01*
X122564Y181800D01*
X122539Y182126D01*
X122462Y182444D01*
X122337Y182746D01*
X122188Y182989D01*
Y188800D01*
X122155Y189133D01*
X122058Y189454D01*
X121900Y189749D01*
X121688Y190008D01*
X115536Y196160D01*
X115561Y196348D01*
X115725Y196660D01*
X196025Y196660D01*
X196040Y354D01*
D02*
G37*
%LPC*%
G36*
X15480Y105461D02*
X15002Y105429D01*
X14533Y105336D01*
X14079Y105182D01*
X13650Y104970D01*
X13252Y104704D01*
X12892Y104388D01*
X12576Y104028D01*
X12310Y103630D01*
X12098Y103201D01*
X11944Y102747D01*
X11851Y102278D01*
X11819Y101800D01*
X11851Y101322D01*
X11944Y100853D01*
X12098Y100399D01*
X12310Y99970D01*
X12576Y99572D01*
X12892Y99212D01*
X13252Y98896D01*
X13650Y98630D01*
X14079Y98418D01*
X14533Y98264D01*
X15002Y98171D01*
X15480Y98139D01*
X15958Y98171D01*
X16427Y98264D01*
X16881Y98418D01*
X17310Y98630D01*
X17708Y98896D01*
X18068Y99212D01*
X18384Y99572D01*
X18650Y99970D01*
X18862Y100399D01*
X19016Y100853D01*
X19109Y101322D01*
X19141Y101800D01*
X19109Y102278D01*
X19016Y102747D01*
X18862Y103201D01*
X18650Y103630D01*
X18384Y104028D01*
X18068Y104388D01*
X17708Y104704D01*
X17310Y104970D01*
X16881Y105182D01*
X16427Y105336D01*
X15958Y105429D01*
X15480Y105461D01*
D02*
G37*
G36*
X4980Y101300D02*
X2563D01*
X2663Y100885D01*
X2841Y100455D01*
X3084Y100059D01*
X3386Y99706D01*
X3739Y99404D01*
X4135Y99161D01*
X4565Y98983D01*
X4980Y98883D01*
Y101300D01*
D02*
G37*
G36*
X5980Y94717D02*
Y92300D01*
X8397D01*
X8297Y92715D01*
X8119Y93145D01*
X7876Y93541D01*
X7574Y93894D01*
X7221Y94196D01*
X6825Y94439D01*
X6395Y94617D01*
X5980Y94717D01*
D02*
G37*
G36*
X8397Y91300D02*
X5980D01*
Y88883D01*
X6395Y88983D01*
X6825Y89161D01*
X7221Y89404D01*
X7574Y89706D01*
X7876Y90059D01*
X8119Y90455D01*
X8297Y90885D01*
X8397Y91300D01*
D02*
G37*
G36*
X4980Y94717D02*
X4565Y94617D01*
X4135Y94439D01*
X3739Y94196D01*
X3386Y93894D01*
X3084Y93541D01*
X2841Y93145D01*
X2663Y92715D01*
X2563Y92300D01*
X4980D01*
Y94717D01*
D02*
G37*
G36*
X8397Y101300D02*
X5980D01*
Y98883D01*
X6395Y98983D01*
X6825Y99161D01*
X7221Y99404D01*
X7574Y99706D01*
X7876Y100059D01*
X8119Y100455D01*
X8297Y100885D01*
X8397Y101300D01*
D02*
G37*
G36*
X93480Y107884D02*
X93154Y107859D01*
X92836Y107782D01*
X92534Y107657D01*
X92255Y107486D01*
X92006Y107274D01*
X91794Y107025D01*
X91723Y106910D01*
X87480D01*
X87193Y106872D01*
X86925Y106761D01*
X86695Y106585D01*
X77696Y97584D01*
X77519Y97355D01*
X77408Y97087D01*
X77371Y96800D01*
Y62557D01*
X77255Y62486D01*
X77006Y62274D01*
X76794Y62025D01*
X76623Y61746D01*
X76498Y61444D01*
X76421Y61126D01*
X76396Y60800D01*
X76421Y60474D01*
X76498Y60156D01*
X76623Y59854D01*
X76794Y59575D01*
X77006Y59326D01*
X77255Y59114D01*
X77534Y58943D01*
X77836Y58818D01*
X78154Y58741D01*
X78480Y58716D01*
X78806Y58741D01*
X79124Y58818D01*
X79426Y58943D01*
X79705Y59114D01*
X79954Y59326D01*
X80166Y59575D01*
X80337Y59854D01*
X80462Y60156D01*
X80539Y60474D01*
X80564Y60800D01*
X80539Y61126D01*
X80462Y61444D01*
X80337Y61746D01*
X80166Y62025D01*
X79954Y62274D01*
X79705Y62486D01*
X79589Y62557D01*
Y96340D01*
X87940Y104691D01*
X91723D01*
X91794Y104575D01*
X92006Y104326D01*
X92255Y104114D01*
X92534Y103943D01*
X92836Y103818D01*
X93154Y103741D01*
X93480Y103716D01*
X93806Y103741D01*
X94124Y103818D01*
X94426Y103943D01*
X94705Y104114D01*
X94954Y104326D01*
X95166Y104575D01*
X95337Y104854D01*
X95462Y105156D01*
X95539Y105474D01*
X95564Y105800D01*
X95539Y106126D01*
X95462Y106444D01*
X95337Y106746D01*
X95166Y107025D01*
X94954Y107274D01*
X94705Y107486D01*
X94426Y107657D01*
X94124Y107782D01*
X93806Y107859D01*
X93480Y107884D01*
D02*
G37*
G36*
X159480D02*
X159154Y107859D01*
X158836Y107782D01*
X158534Y107657D01*
X158255Y107486D01*
X158006Y107274D01*
X157794Y107025D01*
X157623Y106746D01*
X157498Y106444D01*
X157421Y106126D01*
X157412Y106006D01*
X127178D01*
X127166Y106025D01*
X126954Y106274D01*
X126705Y106486D01*
X126426Y106657D01*
X126124Y106782D01*
X125806Y106859D01*
X125480Y106884D01*
X125154Y106859D01*
X124836Y106782D01*
X124534Y106657D01*
X124255Y106486D01*
X124006Y106274D01*
X123794Y106025D01*
X123623Y105746D01*
X123498Y105444D01*
X123421Y105126D01*
X123396Y104800D01*
X123421Y104474D01*
X123498Y104156D01*
X123623Y103854D01*
X123794Y103575D01*
X124006Y103326D01*
X124255Y103114D01*
X124534Y102943D01*
X124836Y102818D01*
X125154Y102741D01*
X125480Y102716D01*
X125806Y102741D01*
X126124Y102818D01*
X126426Y102943D01*
X126705Y103114D01*
X126954Y103326D01*
X127166Y103575D01*
X127178Y103594D01*
X158480D01*
X158480Y103594D01*
X158715Y103617D01*
X158941Y103686D01*
X159079Y103759D01*
X159154Y103741D01*
X159480Y103716D01*
X159806Y103741D01*
X160124Y103818D01*
X160426Y103943D01*
X160705Y104114D01*
X160954Y104326D01*
X161166Y104575D01*
X161337Y104854D01*
X161462Y105156D01*
X161539Y105474D01*
X161564Y105800D01*
X161539Y106126D01*
X161462Y106444D01*
X161337Y106746D01*
X161166Y107025D01*
X160954Y107274D01*
X160705Y107486D01*
X160426Y107657D01*
X160124Y107782D01*
X159806Y107859D01*
X159480Y107884D01*
D02*
G37*
G36*
X5980Y104717D02*
Y102300D01*
X8397D01*
X8297Y102715D01*
X8119Y103145D01*
X7876Y103541D01*
X7574Y103894D01*
X7221Y104196D01*
X6825Y104439D01*
X6395Y104617D01*
X5980Y104717D01*
D02*
G37*
G36*
X99480Y103884D02*
X99154Y103859D01*
X98836Y103782D01*
X98534Y103657D01*
X98255Y103486D01*
X98006Y103274D01*
X97794Y103025D01*
X97623Y102746D01*
X97498Y102444D01*
X97421Y102126D01*
X97396Y101800D01*
X97421Y101474D01*
X97427Y101452D01*
X95981Y100006D01*
X87480D01*
X87480Y100006D01*
X87245Y99983D01*
X87019Y99914D01*
X86810Y99803D01*
X86627Y99653D01*
X86627Y99653D01*
X84627Y97653D01*
X84477Y97470D01*
X84366Y97261D01*
X84297Y97035D01*
X84274Y96800D01*
X84274Y96800D01*
Y36498D01*
X84255Y36486D01*
X84006Y36274D01*
X83794Y36025D01*
X83623Y35746D01*
X83498Y35444D01*
X83421Y35126D01*
X83396Y34800D01*
X83421Y34474D01*
X83498Y34156D01*
X83623Y33854D01*
X83794Y33575D01*
X84006Y33326D01*
X84255Y33114D01*
X84534Y32943D01*
X84836Y32818D01*
X85154Y32741D01*
X85480Y32716D01*
X85806Y32741D01*
X86124Y32818D01*
X86426Y32943D01*
X86705Y33114D01*
X86954Y33326D01*
X87166Y33575D01*
X87337Y33854D01*
X87462Y34156D01*
X87539Y34474D01*
X87564Y34800D01*
X87539Y35126D01*
X87462Y35444D01*
X87337Y35746D01*
X87166Y36025D01*
X86954Y36274D01*
X86705Y36486D01*
X86686Y36498D01*
Y96301D01*
X87980Y97594D01*
X96480D01*
X96480Y97594D01*
X96715Y97617D01*
X96941Y97686D01*
X97150Y97797D01*
X97333Y97947D01*
X99132Y99747D01*
X99154Y99741D01*
X99480Y99716D01*
X99806Y99741D01*
X100124Y99818D01*
X100426Y99943D01*
X100705Y100114D01*
X100954Y100326D01*
X101166Y100575D01*
X101337Y100854D01*
X101462Y101156D01*
X101539Y101474D01*
X101564Y101800D01*
X101539Y102126D01*
X101462Y102444D01*
X101337Y102746D01*
X101166Y103025D01*
X100954Y103274D01*
X100705Y103486D01*
X100426Y103657D01*
X100124Y103782D01*
X99806Y103859D01*
X99480Y103884D01*
D02*
G37*
G36*
X4980Y104717D02*
X4565Y104617D01*
X4135Y104439D01*
X3739Y104196D01*
X3386Y103894D01*
X3084Y103541D01*
X2841Y103145D01*
X2663Y102715D01*
X2563Y102300D01*
X4980D01*
Y104717D01*
D02*
G37*
G36*
X5980Y74717D02*
Y72300D01*
X8397D01*
X8297Y72715D01*
X8119Y73145D01*
X7876Y73541D01*
X7574Y73894D01*
X7221Y74196D01*
X6825Y74439D01*
X6395Y74617D01*
X5980Y74717D01*
D02*
G37*
G36*
X15480Y85461D02*
X15002Y85429D01*
X14533Y85336D01*
X14079Y85182D01*
X13650Y84970D01*
X13252Y84704D01*
X12892Y84388D01*
X12576Y84028D01*
X12310Y83630D01*
X12098Y83201D01*
X11944Y82747D01*
X11851Y82278D01*
X11819Y81800D01*
X11851Y81322D01*
X11944Y80853D01*
X12098Y80399D01*
X12310Y79970D01*
X12576Y79572D01*
X12892Y79212D01*
X13252Y78896D01*
X13650Y78630D01*
X14079Y78418D01*
X14533Y78264D01*
X15002Y78171D01*
X15480Y78139D01*
X15958Y78171D01*
X16427Y78264D01*
X16881Y78418D01*
X17310Y78630D01*
X17708Y78896D01*
X18068Y79212D01*
X18384Y79572D01*
X18650Y79970D01*
X18862Y80399D01*
X19016Y80853D01*
X19109Y81322D01*
X19141Y81800D01*
X19109Y82278D01*
X19016Y82747D01*
X18862Y83201D01*
X18650Y83630D01*
X18384Y84028D01*
X18068Y84388D01*
X17708Y84704D01*
X17310Y84970D01*
X16881Y85182D01*
X16427Y85336D01*
X15958Y85429D01*
X15480Y85461D01*
D02*
G37*
G36*
X4980Y81300D02*
X2563D01*
X2663Y80885D01*
X2841Y80455D01*
X3084Y80059D01*
X3386Y79706D01*
X3739Y79404D01*
X4135Y79161D01*
X4565Y78983D01*
X4980Y78883D01*
Y81300D01*
D02*
G37*
G36*
Y71300D02*
X2563D01*
X2663Y70885D01*
X2841Y70455D01*
X3084Y70059D01*
X3386Y69706D01*
X3739Y69404D01*
X4135Y69161D01*
X4565Y68983D01*
X4980Y68883D01*
Y71300D01*
D02*
G37*
G36*
X8397D02*
X5980D01*
Y68883D01*
X6395Y68983D01*
X6825Y69161D01*
X7221Y69404D01*
X7574Y69706D01*
X7876Y70059D01*
X8119Y70455D01*
X8297Y70885D01*
X8397Y71300D01*
D02*
G37*
G36*
X4980Y74717D02*
X4565Y74617D01*
X4135Y74439D01*
X3739Y74196D01*
X3386Y73894D01*
X3084Y73541D01*
X2841Y73145D01*
X2663Y72715D01*
X2563Y72300D01*
X4980D01*
Y74717D01*
D02*
G37*
G36*
X5980Y84717D02*
Y82300D01*
X8397D01*
X8297Y82715D01*
X8119Y83145D01*
X7876Y83541D01*
X7574Y83894D01*
X7221Y84196D01*
X6825Y84439D01*
X6395Y84617D01*
X5980Y84717D01*
D02*
G37*
G36*
X15480Y95461D02*
X15002Y95429D01*
X14533Y95336D01*
X14079Y95182D01*
X13650Y94970D01*
X13252Y94704D01*
X12892Y94388D01*
X12576Y94028D01*
X12310Y93630D01*
X12098Y93201D01*
X11944Y92747D01*
X11851Y92278D01*
X11819Y91800D01*
X11851Y91322D01*
X11944Y90853D01*
X12098Y90399D01*
X12310Y89970D01*
X12576Y89572D01*
X12892Y89212D01*
X13252Y88896D01*
X13650Y88630D01*
X14079Y88418D01*
X14533Y88264D01*
X15002Y88171D01*
X15480Y88139D01*
X15958Y88171D01*
X16427Y88264D01*
X16881Y88418D01*
X17310Y88630D01*
X17708Y88896D01*
X18068Y89212D01*
X18384Y89572D01*
X18650Y89970D01*
X18862Y90399D01*
X19016Y90853D01*
X19109Y91322D01*
X19141Y91800D01*
X19109Y92278D01*
X19016Y92747D01*
X18862Y93201D01*
X18650Y93630D01*
X18384Y94028D01*
X18068Y94388D01*
X17708Y94704D01*
X17310Y94970D01*
X16881Y95182D01*
X16427Y95336D01*
X15958Y95429D01*
X15480Y95461D01*
D02*
G37*
G36*
X4980Y91300D02*
X2563D01*
X2663Y90885D01*
X2841Y90455D01*
X3084Y90059D01*
X3386Y89706D01*
X3739Y89404D01*
X4135Y89161D01*
X4565Y88983D01*
X4980Y88883D01*
Y91300D01*
D02*
G37*
G36*
X8397Y81300D02*
X5980D01*
Y78883D01*
X6395Y78983D01*
X6825Y79161D01*
X7221Y79404D01*
X7574Y79706D01*
X7876Y80059D01*
X8119Y80455D01*
X8297Y80885D01*
X8397Y81300D01*
D02*
G37*
G36*
X25480Y98884D02*
X25154Y98859D01*
X24836Y98782D01*
X24534Y98657D01*
X24255Y98486D01*
X24006Y98274D01*
X23794Y98025D01*
X23623Y97746D01*
X23498Y97444D01*
X23421Y97126D01*
X23396Y96800D01*
X23421Y96474D01*
X23498Y96156D01*
X23623Y95854D01*
X23794Y95575D01*
X24006Y95326D01*
X24255Y95114D01*
X24274Y95102D01*
Y83498D01*
X24255Y83486D01*
X24006Y83274D01*
X23794Y83025D01*
X23623Y82746D01*
X23498Y82444D01*
X23421Y82126D01*
X23396Y81800D01*
X23421Y81474D01*
X23498Y81156D01*
X23623Y80854D01*
X23794Y80575D01*
X24006Y80326D01*
X24255Y80114D01*
X24534Y79943D01*
X24836Y79818D01*
X25154Y79741D01*
X25480Y79716D01*
X25806Y79741D01*
X26124Y79818D01*
X26426Y79943D01*
X26705Y80114D01*
X26954Y80326D01*
X27166Y80575D01*
X27337Y80854D01*
X27462Y81156D01*
X27539Y81474D01*
X27564Y81800D01*
X27539Y82126D01*
X27462Y82444D01*
X27337Y82746D01*
X27166Y83025D01*
X26954Y83274D01*
X26705Y83486D01*
X26686Y83498D01*
Y95102D01*
X26705Y95114D01*
X26954Y95326D01*
X27166Y95575D01*
X27337Y95854D01*
X27462Y96156D01*
X27539Y96474D01*
X27564Y96800D01*
X27539Y97126D01*
X27462Y97444D01*
X27337Y97746D01*
X27166Y98025D01*
X26954Y98274D01*
X26705Y98486D01*
X26426Y98657D01*
X26124Y98782D01*
X25806Y98859D01*
X25480Y98884D01*
D02*
G37*
G36*
X4980Y84717D02*
X4565Y84617D01*
X4135Y84439D01*
X3739Y84196D01*
X3386Y83894D01*
X3084Y83541D01*
X2841Y83145D01*
X2663Y82715D01*
X2563Y82300D01*
X4980D01*
Y84717D01*
D02*
G37*
G36*
X114480Y169884D02*
X114154Y169859D01*
X113836Y169782D01*
X113534Y169657D01*
X113255Y169486D01*
X113006Y169274D01*
X112794Y169025D01*
X112623Y168746D01*
X112498Y168444D01*
X112421Y168126D01*
X112396Y167800D01*
X112421Y167474D01*
X112498Y167156D01*
X112623Y166854D01*
X112794Y166575D01*
X113006Y166326D01*
X113255Y166114D01*
X113371Y166043D01*
Y141800D01*
X113408Y141513D01*
X113519Y141245D01*
X113696Y141016D01*
X118370Y136340D01*
Y127557D01*
X118255Y127486D01*
X118006Y127274D01*
X117794Y127025D01*
X117623Y126746D01*
X117498Y126444D01*
X117421Y126126D01*
X117396Y125800D01*
X117421Y125474D01*
X117498Y125156D01*
X117623Y124854D01*
X117794Y124575D01*
X118006Y124326D01*
X118255Y124114D01*
X118534Y123943D01*
X118836Y123818D01*
X119154Y123741D01*
X119480Y123716D01*
X119806Y123741D01*
X120124Y123818D01*
X120426Y123943D01*
X120705Y124114D01*
X120954Y124326D01*
X121166Y124575D01*
X121337Y124854D01*
X121462Y125156D01*
X121539Y125474D01*
X121564Y125800D01*
X121539Y126126D01*
X121462Y126444D01*
X121337Y126746D01*
X121166Y127025D01*
X120954Y127274D01*
X120705Y127486D01*
X120589Y127557D01*
Y136800D01*
X120552Y137087D01*
X120441Y137355D01*
X120264Y137584D01*
X115589Y142260D01*
Y166043D01*
X115705Y166114D01*
X115954Y166326D01*
X116166Y166575D01*
X116337Y166854D01*
X116462Y167156D01*
X116539Y167474D01*
X116564Y167800D01*
X116539Y168126D01*
X116462Y168444D01*
X116337Y168746D01*
X116166Y169025D01*
X115954Y169274D01*
X115705Y169486D01*
X115426Y169657D01*
X115124Y169782D01*
X114806Y169859D01*
X114480Y169884D01*
D02*
G37*
G36*
X23980Y126300D02*
X23192D01*
X23201Y126270D01*
X23329Y126031D01*
X23501Y125821D01*
X23711Y125649D01*
X23950Y125521D01*
X23980Y125512D01*
Y126300D01*
D02*
G37*
G36*
X25768D02*
X24980D01*
Y125512D01*
X25010Y125521D01*
X25249Y125649D01*
X25459Y125821D01*
X25631Y126031D01*
X25759Y126270D01*
X25768Y126300D01*
D02*
G37*
G36*
X167980Y121088D02*
Y120300D01*
X168768D01*
X168759Y120330D01*
X168631Y120569D01*
X168459Y120779D01*
X168249Y120951D01*
X168010Y121079D01*
X167980Y121088D01*
D02*
G37*
G36*
X4980Y124717D02*
X4565Y124617D01*
X4135Y124439D01*
X3739Y124196D01*
X3386Y123894D01*
X3084Y123541D01*
X2841Y123145D01*
X2663Y122715D01*
X2563Y122300D01*
X4980D01*
Y124717D01*
D02*
G37*
G36*
X5980D02*
Y122300D01*
X8397D01*
X8297Y122715D01*
X8119Y123145D01*
X7876Y123541D01*
X7574Y123894D01*
X7221Y124196D01*
X6825Y124439D01*
X6395Y124617D01*
X5980Y124717D01*
D02*
G37*
G36*
X190668Y126400D02*
X189880D01*
Y125612D01*
X189910Y125621D01*
X190149Y125749D01*
X190359Y125921D01*
X190531Y126131D01*
X190659Y126370D01*
X190668Y126400D01*
D02*
G37*
G36*
X173780Y126500D02*
X172992D01*
X173001Y126470D01*
X173129Y126231D01*
X173301Y126021D01*
X173511Y125849D01*
X173750Y125721D01*
X173780Y125712D01*
Y126500D01*
D02*
G37*
G36*
X175568D02*
X174780D01*
Y125712D01*
X174810Y125721D01*
X175049Y125849D01*
X175259Y126021D01*
X175431Y126231D01*
X175559Y126470D01*
X175568Y126500D01*
D02*
G37*
G36*
X166980Y126400D02*
X166192D01*
X166201Y126370D01*
X166329Y126131D01*
X166501Y125921D01*
X166711Y125749D01*
X166950Y125621D01*
X166980Y125612D01*
Y126400D01*
D02*
G37*
G36*
X168768D02*
X167980D01*
Y125612D01*
X168010Y125621D01*
X168249Y125749D01*
X168459Y125921D01*
X168631Y126131D01*
X168759Y126370D01*
X168768Y126400D01*
D02*
G37*
G36*
X188880D02*
X188092D01*
X188101Y126370D01*
X188229Y126131D01*
X188401Y125921D01*
X188611Y125749D01*
X188850Y125621D01*
X188880Y125612D01*
Y126400D01*
D02*
G37*
G36*
X170480Y112884D02*
X170154Y112859D01*
X169836Y112782D01*
X169534Y112657D01*
X169255Y112486D01*
X169006Y112274D01*
X168794Y112025D01*
X168782Y112006D01*
X127178D01*
X127166Y112025D01*
X126954Y112274D01*
X126705Y112486D01*
X126426Y112657D01*
X126124Y112782D01*
X125806Y112859D01*
X125480Y112884D01*
X125154Y112859D01*
X124836Y112782D01*
X124534Y112657D01*
X124255Y112486D01*
X124006Y112274D01*
X123794Y112025D01*
X123623Y111746D01*
X123498Y111444D01*
X123421Y111126D01*
X123396Y110800D01*
X123421Y110474D01*
X123498Y110156D01*
X123623Y109854D01*
X123794Y109575D01*
X124006Y109326D01*
X124255Y109114D01*
X124534Y108943D01*
X124836Y108818D01*
X125154Y108741D01*
X125480Y108716D01*
X125806Y108741D01*
X126124Y108818D01*
X126426Y108943D01*
X126705Y109114D01*
X126954Y109326D01*
X127166Y109575D01*
X127178Y109594D01*
X168782D01*
X168794Y109575D01*
X169006Y109326D01*
X169255Y109114D01*
X169534Y108943D01*
X169836Y108818D01*
X170154Y108741D01*
X170480Y108716D01*
X170806Y108741D01*
X171124Y108818D01*
X171426Y108943D01*
X171705Y109114D01*
X171954Y109326D01*
X172166Y109575D01*
X172237Y109690D01*
X186020D01*
X191370Y104340D01*
Y57260D01*
X190020Y55910D01*
X187938D01*
X187856Y56410D01*
X187881Y56418D01*
X188310Y56630D01*
X188708Y56896D01*
X189068Y57212D01*
X189384Y57572D01*
X189650Y57970D01*
X189862Y58399D01*
X190016Y58853D01*
X190109Y59322D01*
X190141Y59800D01*
X190109Y60278D01*
X190016Y60747D01*
X189862Y61201D01*
X189650Y61630D01*
X189384Y62028D01*
X189068Y62388D01*
X188708Y62704D01*
X188310Y62970D01*
X187881Y63182D01*
X187590Y63281D01*
Y89800D01*
X187552Y90087D01*
X187441Y90355D01*
X187265Y90584D01*
X187035Y90761D01*
X186767Y90872D01*
X186480Y90909D01*
X181237D01*
X181166Y91025D01*
X180954Y91274D01*
X180705Y91486D01*
X180426Y91657D01*
X180124Y91782D01*
X179806Y91859D01*
X179480Y91884D01*
X179154Y91859D01*
X178836Y91782D01*
X178534Y91657D01*
X178255Y91486D01*
X178006Y91274D01*
X177794Y91025D01*
X177623Y90746D01*
X177498Y90444D01*
X177421Y90126D01*
X177396Y89800D01*
X177421Y89474D01*
X177498Y89156D01*
X177623Y88854D01*
X177794Y88575D01*
X178006Y88326D01*
X178255Y88114D01*
X178534Y87943D01*
X178836Y87818D01*
X179154Y87741D01*
X179480Y87716D01*
X179806Y87741D01*
X180124Y87818D01*
X180426Y87943D01*
X180705Y88114D01*
X180954Y88326D01*
X181166Y88575D01*
X181237Y88691D01*
X185371D01*
Y63281D01*
X185079Y63182D01*
X184650Y62970D01*
X184252Y62704D01*
X183892Y62388D01*
X183576Y62028D01*
X183310Y61630D01*
X183098Y61201D01*
X182944Y60747D01*
X182851Y60278D01*
X182819Y59800D01*
X182851Y59322D01*
X182944Y58853D01*
X183098Y58399D01*
X183310Y57970D01*
X183576Y57572D01*
X183892Y57212D01*
X184252Y56896D01*
X184650Y56630D01*
X185079Y56418D01*
X185104Y56410D01*
X185022Y55910D01*
X181480D01*
X181193Y55872D01*
X180925Y55761D01*
X180695Y55585D01*
X178157Y53046D01*
X177881Y53182D01*
X177427Y53336D01*
X176958Y53429D01*
X176480Y53461D01*
X176002Y53429D01*
X175533Y53336D01*
X175079Y53182D01*
X174650Y52970D01*
X174252Y52704D01*
X173892Y52388D01*
X173576Y52028D01*
X173310Y51630D01*
X173098Y51201D01*
X172944Y50747D01*
X172851Y50278D01*
X172819Y49800D01*
X172851Y49322D01*
X172944Y48853D01*
X173098Y48399D01*
X173310Y47970D01*
X173576Y47572D01*
X173892Y47212D01*
X174252Y46896D01*
X174650Y46630D01*
X175079Y46418D01*
X175533Y46264D01*
X176002Y46171D01*
X176480Y46139D01*
X176958Y46171D01*
X177427Y46264D01*
X177881Y46418D01*
X178310Y46630D01*
X178708Y46896D01*
X179068Y47212D01*
X179384Y47572D01*
X179650Y47970D01*
X179862Y48399D01*
X180016Y48853D01*
X180109Y49322D01*
X180141Y49800D01*
X180109Y50278D01*
X180016Y50747D01*
X179862Y51201D01*
X179726Y51477D01*
X181940Y53690D01*
X185022D01*
X185104Y53190D01*
X185079Y53182D01*
X184650Y52970D01*
X184252Y52704D01*
X183892Y52388D01*
X183576Y52028D01*
X183310Y51630D01*
X183098Y51201D01*
X182944Y50747D01*
X182851Y50278D01*
X182819Y49800D01*
X182851Y49322D01*
X182944Y48853D01*
X183098Y48399D01*
X183310Y47970D01*
X183576Y47572D01*
X183892Y47212D01*
X184252Y46896D01*
X184650Y46630D01*
X185079Y46418D01*
X185533Y46264D01*
X186002Y46171D01*
X186480Y46139D01*
X186958Y46171D01*
X187427Y46264D01*
X187881Y46418D01*
X188310Y46630D01*
X188708Y46896D01*
X189068Y47212D01*
X189384Y47572D01*
X189650Y47970D01*
X189862Y48399D01*
X190016Y48853D01*
X190109Y49322D01*
X190141Y49800D01*
X190109Y50278D01*
X190016Y50747D01*
X189862Y51201D01*
X189650Y51630D01*
X189384Y52028D01*
X189068Y52388D01*
X188708Y52704D01*
X188310Y52970D01*
X187881Y53182D01*
X187856Y53190D01*
X187938Y53690D01*
X190480D01*
X190767Y53728D01*
X191035Y53839D01*
X191264Y54015D01*
X193264Y56015D01*
X193441Y56245D01*
X193552Y56513D01*
X193589Y56800D01*
Y104800D01*
X193552Y105087D01*
X193441Y105355D01*
X193264Y105585D01*
X187265Y111584D01*
X187035Y111761D01*
X186767Y111872D01*
X186480Y111909D01*
X172237D01*
X172166Y112025D01*
X171954Y112274D01*
X171705Y112486D01*
X171426Y112657D01*
X171124Y112782D01*
X170806Y112859D01*
X170480Y112884D01*
D02*
G37*
G36*
X4980Y114717D02*
X4565Y114617D01*
X4135Y114439D01*
X3739Y114196D01*
X3386Y113894D01*
X3084Y113541D01*
X2841Y113145D01*
X2663Y112715D01*
X2563Y112300D01*
X4980D01*
Y114717D01*
D02*
G37*
G36*
X5980D02*
Y112300D01*
X8397D01*
X8297Y112715D01*
X8119Y113145D01*
X7876Y113541D01*
X7574Y113894D01*
X7221Y114196D01*
X6825Y114439D01*
X6395Y114617D01*
X5980Y114717D01*
D02*
G37*
G36*
X15480Y115461D02*
X15002Y115429D01*
X14533Y115336D01*
X14079Y115182D01*
X13650Y114970D01*
X13252Y114704D01*
X12892Y114388D01*
X12576Y114028D01*
X12310Y113630D01*
X12098Y113201D01*
X11944Y112747D01*
X11851Y112278D01*
X11819Y111800D01*
X11851Y111322D01*
X11944Y110853D01*
X12098Y110399D01*
X12310Y109970D01*
X12576Y109572D01*
X12892Y109212D01*
X13252Y108896D01*
X13650Y108630D01*
X14079Y108418D01*
X14533Y108264D01*
X15002Y108171D01*
X15480Y108139D01*
X15958Y108171D01*
X16427Y108264D01*
X16881Y108418D01*
X17310Y108630D01*
X17708Y108896D01*
X18068Y109212D01*
X18384Y109572D01*
X18650Y109970D01*
X18862Y110399D01*
X19016Y110853D01*
X19109Y111322D01*
X19141Y111800D01*
X19109Y112278D01*
X19016Y112747D01*
X18862Y113201D01*
X18650Y113630D01*
X18384Y114028D01*
X18068Y114388D01*
X17708Y114704D01*
X17310Y114970D01*
X16881Y115182D01*
X16427Y115336D01*
X15958Y115429D01*
X15480Y115461D01*
D02*
G37*
G36*
X4980Y111300D02*
X2563D01*
X2663Y110885D01*
X2841Y110455D01*
X3084Y110059D01*
X3386Y109706D01*
X3739Y109404D01*
X4135Y109161D01*
X4565Y108983D01*
X4980Y108883D01*
Y111300D01*
D02*
G37*
G36*
X8397D02*
X5980D01*
Y108883D01*
X6395Y108983D01*
X6825Y109161D01*
X7221Y109404D01*
X7574Y109706D01*
X7876Y110059D01*
X8119Y110455D01*
X8297Y110885D01*
X8397Y111300D01*
D02*
G37*
G36*
X4980Y121300D02*
X2563D01*
X2663Y120885D01*
X2841Y120455D01*
X3084Y120059D01*
X3386Y119706D01*
X3739Y119404D01*
X4135Y119161D01*
X4565Y118983D01*
X4980Y118883D01*
Y121300D01*
D02*
G37*
G36*
X8397D02*
X5980D01*
Y118883D01*
X6395Y118983D01*
X6825Y119161D01*
X7221Y119404D01*
X7574Y119706D01*
X7876Y120059D01*
X8119Y120455D01*
X8297Y120885D01*
X8397Y121300D01*
D02*
G37*
G36*
X166980Y121088D02*
X166950Y121079D01*
X166711Y120951D01*
X166501Y120779D01*
X166329Y120569D01*
X166201Y120330D01*
X166192Y120300D01*
X166980D01*
Y121088D01*
D02*
G37*
G36*
X75480Y122884D02*
X75154Y122859D01*
X74836Y122782D01*
X74534Y122657D01*
X74255Y122486D01*
X74006Y122274D01*
X73794Y122025D01*
X73623Y121746D01*
X73498Y121444D01*
X73421Y121126D01*
X73396Y120800D01*
X73421Y120474D01*
X73498Y120156D01*
X73623Y119854D01*
X73794Y119575D01*
X74006Y119326D01*
X74255Y119114D01*
X74534Y118943D01*
X74836Y118818D01*
X75154Y118741D01*
X75480Y118716D01*
X75806Y118741D01*
X76124Y118818D01*
X76426Y118943D01*
X76705Y119114D01*
X76954Y119326D01*
X77166Y119575D01*
X77237Y119691D01*
X118020D01*
X123696Y114015D01*
X123925Y113839D01*
X124193Y113728D01*
X124480Y113690D01*
X151723D01*
X151794Y113575D01*
X152006Y113326D01*
X152255Y113114D01*
X152534Y112943D01*
X152836Y112818D01*
X153154Y112741D01*
X153480Y112716D01*
X153806Y112741D01*
X154124Y112818D01*
X154426Y112943D01*
X154705Y113114D01*
X154954Y113326D01*
X155166Y113575D01*
X155337Y113854D01*
X155462Y114156D01*
X155539Y114474D01*
X155564Y114800D01*
X155539Y115126D01*
X155462Y115444D01*
X155337Y115746D01*
X155166Y116025D01*
X154954Y116274D01*
X154705Y116486D01*
X154426Y116657D01*
X154124Y116782D01*
X153806Y116859D01*
X153480Y116884D01*
X153154Y116859D01*
X152836Y116782D01*
X152534Y116657D01*
X152255Y116486D01*
X152006Y116274D01*
X151794Y116025D01*
X151723Y115910D01*
X124940D01*
X119264Y121584D01*
X119035Y121761D01*
X118767Y121872D01*
X118480Y121909D01*
X77237D01*
X77166Y122025D01*
X76954Y122274D01*
X76705Y122486D01*
X76426Y122657D01*
X76124Y122782D01*
X75806Y122859D01*
X75480Y122884D01*
D02*
G37*
G36*
X166980Y119300D02*
X166192D01*
X166201Y119270D01*
X166329Y119031D01*
X166501Y118821D01*
X166711Y118649D01*
X166950Y118521D01*
X166980Y118512D01*
Y119300D01*
D02*
G37*
G36*
X168768D02*
X167980D01*
Y118512D01*
X168010Y118521D01*
X168249Y118649D01*
X168459Y118821D01*
X168631Y119031D01*
X168759Y119270D01*
X168768Y119300D01*
D02*
G37*
G36*
X142880Y23088D02*
X142850Y23079D01*
X142611Y22951D01*
X142401Y22779D01*
X142229Y22569D01*
X142101Y22330D01*
X142092Y22300D01*
X142880D01*
Y23088D01*
D02*
G37*
G36*
X143880D02*
Y22300D01*
X144668D01*
X144659Y22330D01*
X144531Y22569D01*
X144359Y22779D01*
X144149Y22951D01*
X143910Y23079D01*
X143880Y23088D01*
D02*
G37*
G36*
X150280Y23588D02*
X150250Y23579D01*
X150011Y23451D01*
X149801Y23279D01*
X149629Y23069D01*
X149501Y22830D01*
X149492Y22800D01*
X150280D01*
Y23588D01*
D02*
G37*
G36*
X144668Y21300D02*
X143880D01*
Y20512D01*
X143910Y20521D01*
X144149Y20649D01*
X144359Y20821D01*
X144531Y21031D01*
X144659Y21270D01*
X144668Y21300D01*
D02*
G37*
G36*
X150280Y21800D02*
X149492D01*
X149501Y21770D01*
X149629Y21531D01*
X149801Y21321D01*
X150011Y21149D01*
X150250Y21021D01*
X150280Y21012D01*
Y21800D01*
D02*
G37*
G36*
X152068D02*
X151280D01*
Y21012D01*
X151310Y21021D01*
X151549Y21149D01*
X151759Y21321D01*
X151931Y21531D01*
X152059Y21770D01*
X152068Y21800D01*
D02*
G37*
G36*
X189433Y29300D02*
X186980D01*
Y26847D01*
X189433D01*
Y29300D01*
D02*
G37*
G36*
X28480Y34461D02*
X28002Y34429D01*
X27533Y34336D01*
X27079Y34182D01*
X26650Y33970D01*
X26252Y33704D01*
X25892Y33388D01*
X25576Y33028D01*
X25310Y32630D01*
X25098Y32201D01*
X24944Y31747D01*
X24851Y31278D01*
X24819Y30800D01*
X24851Y30322D01*
X24944Y29853D01*
X25098Y29399D01*
X25310Y28970D01*
X25576Y28572D01*
X25892Y28212D01*
X26252Y27896D01*
X26650Y27630D01*
X27079Y27418D01*
X27533Y27264D01*
X28002Y27171D01*
X28480Y27139D01*
X28958Y27171D01*
X29427Y27264D01*
X29881Y27418D01*
X30310Y27630D01*
X30708Y27896D01*
X31068Y28212D01*
X31384Y28572D01*
X31650Y28970D01*
X31862Y29399D01*
X32016Y29853D01*
X32109Y30322D01*
X32141Y30800D01*
X32109Y31278D01*
X32016Y31747D01*
X31862Y32201D01*
X31650Y32630D01*
X31384Y33028D01*
X31068Y33388D01*
X30708Y33704D01*
X30310Y33970D01*
X29881Y34182D01*
X29427Y34336D01*
X28958Y34429D01*
X28480Y34461D01*
D02*
G37*
G36*
X38480D02*
X38002Y34429D01*
X37533Y34336D01*
X37079Y34182D01*
X36650Y33970D01*
X36252Y33704D01*
X35892Y33388D01*
X35576Y33028D01*
X35310Y32630D01*
X35098Y32201D01*
X34944Y31747D01*
X34851Y31278D01*
X34819Y30800D01*
X34851Y30322D01*
X34944Y29853D01*
X35098Y29399D01*
X35310Y28970D01*
X35576Y28572D01*
X35892Y28212D01*
X36252Y27896D01*
X36650Y27630D01*
X37079Y27418D01*
X37533Y27264D01*
X38002Y27171D01*
X38480Y27139D01*
X38958Y27171D01*
X39427Y27264D01*
X39881Y27418D01*
X40310Y27630D01*
X40708Y27896D01*
X41068Y28212D01*
X41384Y28572D01*
X41650Y28970D01*
X41862Y29399D01*
X42016Y29853D01*
X42109Y30322D01*
X42141Y30800D01*
X42109Y31278D01*
X42016Y31747D01*
X41862Y32201D01*
X41650Y32630D01*
X41384Y33028D01*
X41068Y33388D01*
X40708Y33704D01*
X40310Y33970D01*
X39881Y34182D01*
X39427Y34336D01*
X38958Y34429D01*
X38480Y34461D01*
D02*
G37*
G36*
X151280Y23588D02*
Y22800D01*
X152068D01*
X152059Y22830D01*
X151931Y23069D01*
X151759Y23279D01*
X151549Y23451D01*
X151310Y23579D01*
X151280Y23588D01*
D02*
G37*
G36*
X176480Y33461D02*
X176002Y33429D01*
X175533Y33336D01*
X175079Y33182D01*
X174650Y32970D01*
X174252Y32704D01*
X173892Y32388D01*
X173576Y32028D01*
X173310Y31630D01*
X173098Y31201D01*
X172944Y30747D01*
X172851Y30278D01*
X172819Y29800D01*
X172851Y29322D01*
X172944Y28853D01*
X173098Y28399D01*
X173310Y27970D01*
X173576Y27572D01*
X173892Y27212D01*
X174252Y26896D01*
X174650Y26630D01*
X175079Y26418D01*
X175533Y26264D01*
X176002Y26171D01*
X176480Y26139D01*
X176958Y26171D01*
X177427Y26264D01*
X177881Y26418D01*
X178310Y26630D01*
X178708Y26896D01*
X179068Y27212D01*
X179384Y27572D01*
X179650Y27970D01*
X179862Y28399D01*
X180016Y28853D01*
X180109Y29322D01*
X180141Y29800D01*
X180109Y30278D01*
X180016Y30747D01*
X179862Y31201D01*
X179650Y31630D01*
X179384Y32028D01*
X179068Y32388D01*
X178708Y32704D01*
X178310Y32970D01*
X177881Y33182D01*
X177427Y33336D01*
X176958Y33429D01*
X176480Y33461D01*
D02*
G37*
G36*
X185980Y29300D02*
X183527D01*
Y26847D01*
X185980D01*
Y29300D01*
D02*
G37*
G36*
X75480Y13461D02*
X75002Y13429D01*
X74533Y13336D01*
X74079Y13182D01*
X73650Y12970D01*
X73252Y12704D01*
X72892Y12388D01*
X72576Y12028D01*
X72310Y11630D01*
X72098Y11201D01*
X71944Y10747D01*
X71851Y10278D01*
X71819Y9800D01*
X71851Y9322D01*
X71944Y8853D01*
X72098Y8399D01*
X72310Y7970D01*
X72576Y7572D01*
X72892Y7212D01*
X73252Y6896D01*
X73650Y6630D01*
X74079Y6418D01*
X74533Y6264D01*
X75002Y6171D01*
X75480Y6139D01*
X75958Y6171D01*
X76427Y6264D01*
X76881Y6418D01*
X77310Y6630D01*
X77708Y6896D01*
X78068Y7212D01*
X78384Y7572D01*
X78650Y7970D01*
X78862Y8399D01*
X79016Y8853D01*
X79109Y9322D01*
X79141Y9800D01*
X79109Y10278D01*
X79016Y10747D01*
X78862Y11201D01*
X78650Y11630D01*
X78384Y12028D01*
X78068Y12388D01*
X77708Y12704D01*
X77310Y12970D01*
X76881Y13182D01*
X76427Y13336D01*
X75958Y13429D01*
X75480Y13461D01*
D02*
G37*
G36*
X85480D02*
X85002Y13429D01*
X84533Y13336D01*
X84079Y13182D01*
X83650Y12970D01*
X83252Y12704D01*
X82892Y12388D01*
X82576Y12028D01*
X82310Y11630D01*
X82098Y11201D01*
X81944Y10747D01*
X81851Y10278D01*
X81819Y9800D01*
X81851Y9322D01*
X81944Y8853D01*
X82098Y8399D01*
X82310Y7970D01*
X82576Y7572D01*
X82892Y7212D01*
X83252Y6896D01*
X83650Y6630D01*
X84079Y6418D01*
X84533Y6264D01*
X85002Y6171D01*
X85480Y6139D01*
X85958Y6171D01*
X86427Y6264D01*
X86881Y6418D01*
X87310Y6630D01*
X87708Y6896D01*
X88068Y7212D01*
X88384Y7572D01*
X88650Y7970D01*
X88862Y8399D01*
X89016Y8853D01*
X89109Y9322D01*
X89141Y9800D01*
X89109Y10278D01*
X89016Y10747D01*
X88862Y11201D01*
X88650Y11630D01*
X88384Y12028D01*
X88068Y12388D01*
X87708Y12704D01*
X87310Y12970D01*
X86881Y13182D01*
X86427Y13336D01*
X85958Y13429D01*
X85480Y13461D01*
D02*
G37*
G36*
X62133Y13453D02*
X54827D01*
Y6147D01*
X62133D01*
Y13453D01*
D02*
G37*
G36*
X143480Y89884D02*
X143154Y89859D01*
X142836Y89782D01*
X142534Y89657D01*
X142255Y89486D01*
X142006Y89274D01*
X141794Y89025D01*
X141623Y88746D01*
X141498Y88444D01*
X141421Y88126D01*
X141396Y87800D01*
X141421Y87474D01*
X141498Y87156D01*
X141623Y86854D01*
X141794Y86575D01*
X142006Y86326D01*
X142255Y86114D01*
X142534Y85943D01*
X142836Y85818D01*
X143113Y85751D01*
X148272Y80592D01*
X148531Y80380D01*
X148826Y80222D01*
X149147Y80125D01*
X149480Y80092D01*
X156772D01*
X160272Y76592D01*
Y57008D01*
X147772Y44508D01*
X118480D01*
X118147Y44475D01*
X117826Y44378D01*
X117531Y44220D01*
X117272Y44008D01*
X94272Y21008D01*
X94060Y20749D01*
X93902Y20454D01*
X93805Y20133D01*
X93772Y19800D01*
Y13030D01*
X93650Y12970D01*
X93252Y12704D01*
X92892Y12388D01*
X92576Y12028D01*
X92310Y11630D01*
X92098Y11201D01*
X91944Y10747D01*
X91851Y10278D01*
X91819Y9800D01*
X91851Y9322D01*
X91944Y8853D01*
X92098Y8399D01*
X92310Y7970D01*
X92576Y7572D01*
X92892Y7212D01*
X93252Y6896D01*
X93372Y6815D01*
X93458Y6215D01*
X93440Y6176D01*
X91772Y4508D01*
X25188D01*
X17188Y12508D01*
Y14611D01*
X17337Y14854D01*
X17462Y15156D01*
X17539Y15474D01*
X17564Y15800D01*
X17539Y16126D01*
X17462Y16444D01*
X17337Y16746D01*
X17188Y16989D01*
Y48147D01*
X19133D01*
Y55453D01*
X11827D01*
Y48147D01*
X13772D01*
Y16989D01*
X13623Y16746D01*
X13498Y16444D01*
X13421Y16126D01*
X13396Y15800D01*
X13421Y15474D01*
X13498Y15156D01*
X13623Y14854D01*
X13772Y14611D01*
Y11800D01*
X13805Y11467D01*
X13902Y11146D01*
X14060Y10851D01*
X14272Y10592D01*
X23272Y1592D01*
X23531Y1380D01*
X23826Y1222D01*
X24147Y1125D01*
X24480Y1092D01*
X92480D01*
X92813Y1125D01*
X93134Y1222D01*
X93429Y1380D01*
X93688Y1592D01*
X96688Y4592D01*
X96900Y4851D01*
X97058Y5146D01*
X97155Y5467D01*
X97188Y5800D01*
Y6570D01*
X97310Y6630D01*
X97708Y6896D01*
X98068Y7212D01*
X98384Y7572D01*
X98650Y7970D01*
X98862Y8399D01*
X99016Y8853D01*
X99109Y9322D01*
X99141Y9800D01*
X99109Y10278D01*
X99016Y10747D01*
X98862Y11201D01*
X98650Y11630D01*
X98384Y12028D01*
X98068Y12388D01*
X97708Y12704D01*
X97310Y12970D01*
X97188Y13030D01*
Y19092D01*
X119188Y41092D01*
X148480D01*
X148813Y41125D01*
X149134Y41222D01*
X149429Y41380D01*
X149688Y41592D01*
X163188Y55092D01*
X163400Y55351D01*
X163558Y55646D01*
X163655Y55967D01*
X163688Y56300D01*
Y77300D01*
X163655Y77633D01*
X163558Y77954D01*
X163400Y78249D01*
X163188Y78508D01*
X158688Y83008D01*
X158429Y83220D01*
X158134Y83378D01*
X157813Y83475D01*
X157480Y83508D01*
X150188D01*
X145529Y88167D01*
X145462Y88444D01*
X145337Y88746D01*
X145166Y89025D01*
X144954Y89274D01*
X144705Y89486D01*
X144426Y89657D01*
X144124Y89782D01*
X143806Y89859D01*
X143480Y89884D01*
D02*
G37*
G36*
X28480Y13461D02*
X28002Y13429D01*
X27533Y13336D01*
X27079Y13182D01*
X26650Y12970D01*
X26252Y12704D01*
X25892Y12388D01*
X25576Y12028D01*
X25310Y11630D01*
X25098Y11201D01*
X24944Y10747D01*
X24851Y10278D01*
X24819Y9800D01*
X24851Y9322D01*
X24944Y8853D01*
X25098Y8399D01*
X25310Y7970D01*
X25576Y7572D01*
X25892Y7212D01*
X26252Y6896D01*
X26650Y6630D01*
X27079Y6418D01*
X27533Y6264D01*
X28002Y6171D01*
X28480Y6139D01*
X28958Y6171D01*
X29427Y6264D01*
X29881Y6418D01*
X30310Y6630D01*
X30708Y6896D01*
X31068Y7212D01*
X31384Y7572D01*
X31650Y7970D01*
X31862Y8399D01*
X32016Y8853D01*
X32109Y9322D01*
X32141Y9800D01*
X32109Y10278D01*
X32016Y10747D01*
X31862Y11201D01*
X31650Y11630D01*
X31384Y12028D01*
X31068Y12388D01*
X30708Y12704D01*
X30310Y12970D01*
X29881Y13182D01*
X29427Y13336D01*
X28958Y13429D01*
X28480Y13461D01*
D02*
G37*
G36*
X38480D02*
X38002Y13429D01*
X37533Y13336D01*
X37079Y13182D01*
X36650Y12970D01*
X36252Y12704D01*
X35892Y12388D01*
X35576Y12028D01*
X35310Y11630D01*
X35098Y11201D01*
X34944Y10747D01*
X34851Y10278D01*
X34819Y9800D01*
X34851Y9322D01*
X34944Y8853D01*
X35098Y8399D01*
X35310Y7970D01*
X35576Y7572D01*
X35892Y7212D01*
X36252Y6896D01*
X36650Y6630D01*
X37079Y6418D01*
X37533Y6264D01*
X38002Y6171D01*
X38480Y6139D01*
X38958Y6171D01*
X39427Y6264D01*
X39881Y6418D01*
X40310Y6630D01*
X40708Y6896D01*
X41068Y7212D01*
X41384Y7572D01*
X41650Y7970D01*
X41862Y8399D01*
X42016Y8853D01*
X42109Y9322D01*
X42141Y9800D01*
X42109Y10278D01*
X42016Y10747D01*
X41862Y11201D01*
X41650Y11630D01*
X41384Y12028D01*
X41068Y12388D01*
X40708Y12704D01*
X40310Y12970D01*
X39881Y13182D01*
X39427Y13336D01*
X38958Y13429D01*
X38480Y13461D01*
D02*
G37*
G36*
X47980Y12717D02*
X47565Y12617D01*
X47135Y12439D01*
X46739Y12196D01*
X46386Y11894D01*
X46084Y11541D01*
X45841Y11145D01*
X45663Y10715D01*
X45563Y10300D01*
X47980D01*
Y12717D01*
D02*
G37*
G36*
X48980D02*
Y10300D01*
X51397D01*
X51297Y10715D01*
X51119Y11145D01*
X50876Y11541D01*
X50574Y11894D01*
X50221Y12196D01*
X49825Y12439D01*
X49395Y12617D01*
X48980Y12717D01*
D02*
G37*
G36*
X142880Y21300D02*
X142092D01*
X142101Y21270D01*
X142229Y21031D01*
X142401Y20821D01*
X142611Y20649D01*
X142850Y20521D01*
X142880Y20512D01*
Y21300D01*
D02*
G37*
G36*
X109133Y13453D02*
X101827D01*
Y6147D01*
X109133D01*
Y13453D01*
D02*
G37*
G36*
X47980Y9300D02*
X45563D01*
X45663Y8885D01*
X45841Y8455D01*
X46084Y8059D01*
X46386Y7706D01*
X46739Y7404D01*
X47135Y7161D01*
X47565Y6983D01*
X47980Y6883D01*
Y9300D01*
D02*
G37*
G36*
X51397D02*
X48980D01*
Y6883D01*
X49395Y6983D01*
X49825Y7161D01*
X50221Y7404D01*
X50574Y7706D01*
X50876Y8059D01*
X51119Y8455D01*
X51297Y8885D01*
X51397Y9300D01*
D02*
G37*
G36*
X121568Y58200D02*
X120780D01*
Y57412D01*
X120810Y57421D01*
X121049Y57549D01*
X121259Y57721D01*
X121431Y57931D01*
X121559Y58170D01*
X121568Y58200D01*
D02*
G37*
G36*
X15480Y65461D02*
X15002Y65429D01*
X14533Y65336D01*
X14079Y65182D01*
X13650Y64970D01*
X13252Y64704D01*
X12892Y64388D01*
X12576Y64028D01*
X12310Y63630D01*
X12098Y63201D01*
X11944Y62747D01*
X11851Y62278D01*
X11819Y61800D01*
X11851Y61322D01*
X11944Y60853D01*
X12098Y60399D01*
X12310Y59970D01*
X12576Y59572D01*
X12892Y59212D01*
X13252Y58896D01*
X13650Y58630D01*
X14079Y58418D01*
X14533Y58264D01*
X15002Y58171D01*
X15480Y58139D01*
X15958Y58171D01*
X16427Y58264D01*
X16881Y58418D01*
X17310Y58630D01*
X17708Y58896D01*
X18068Y59212D01*
X18384Y59572D01*
X18650Y59970D01*
X18862Y60399D01*
X19016Y60853D01*
X19109Y61322D01*
X19141Y61800D01*
X19109Y62278D01*
X19016Y62747D01*
X18862Y63201D01*
X18650Y63630D01*
X18384Y64028D01*
X18068Y64388D01*
X17708Y64704D01*
X17310Y64970D01*
X16881Y65182D01*
X16427Y65336D01*
X15958Y65429D01*
X15480Y65461D01*
D02*
G37*
G36*
X4980Y61300D02*
X2563D01*
X2663Y60885D01*
X2841Y60455D01*
X3084Y60059D01*
X3386Y59706D01*
X3739Y59404D01*
X4135Y59161D01*
X4565Y58983D01*
X4980Y58883D01*
Y61300D01*
D02*
G37*
G36*
X150480Y59884D02*
X150154Y59859D01*
X149836Y59782D01*
X149534Y59657D01*
X149255Y59486D01*
X149006Y59274D01*
X148794Y59025D01*
X148723Y58909D01*
X134480D01*
X134193Y58872D01*
X133925Y58761D01*
X133695Y58584D01*
X128938Y53827D01*
X128806Y53859D01*
X128480Y53884D01*
X128154Y53859D01*
X127836Y53782D01*
X127534Y53657D01*
X127255Y53486D01*
X127006Y53274D01*
X126794Y53025D01*
X126623Y52746D01*
X126498Y52444D01*
X126421Y52126D01*
X126396Y51800D01*
X126421Y51474D01*
X126498Y51156D01*
X126623Y50854D01*
X126794Y50575D01*
X127006Y50326D01*
X127255Y50114D01*
X127534Y49943D01*
X127836Y49818D01*
X128154Y49741D01*
X128480Y49716D01*
X128806Y49741D01*
X129124Y49818D01*
X129426Y49943D01*
X129705Y50114D01*
X129954Y50326D01*
X130166Y50575D01*
X130337Y50854D01*
X130462Y51156D01*
X130539Y51474D01*
X130564Y51800D01*
X130539Y52126D01*
X130507Y52258D01*
X134940Y56691D01*
X148723D01*
X148794Y56575D01*
X149006Y56326D01*
X149255Y56114D01*
X149534Y55943D01*
X149836Y55818D01*
X150154Y55741D01*
X150480Y55716D01*
X150806Y55741D01*
X151124Y55818D01*
X151426Y55943D01*
X151705Y56114D01*
X151954Y56326D01*
X152166Y56575D01*
X152337Y56854D01*
X152462Y57156D01*
X152539Y57474D01*
X152564Y57800D01*
X152539Y58126D01*
X152462Y58444D01*
X152337Y58746D01*
X152166Y59025D01*
X151954Y59274D01*
X151705Y59486D01*
X151426Y59657D01*
X151124Y59782D01*
X150806Y59859D01*
X150480Y59884D01*
D02*
G37*
G36*
X15480Y125461D02*
X15002Y125429D01*
X14533Y125336D01*
X14079Y125182D01*
X13650Y124970D01*
X13252Y124704D01*
X12892Y124388D01*
X12576Y124028D01*
X12310Y123630D01*
X12098Y123201D01*
X11944Y122747D01*
X11851Y122278D01*
X11819Y121800D01*
X11851Y121322D01*
X11944Y120853D01*
X12098Y120399D01*
X12310Y119970D01*
X12576Y119572D01*
X12892Y119212D01*
X13252Y118896D01*
X13650Y118630D01*
X14079Y118418D01*
X14533Y118264D01*
X15002Y118171D01*
X15480Y118139D01*
X15958Y118171D01*
X16427Y118264D01*
X16881Y118418D01*
X17066Y118509D01*
X23627Y111947D01*
X23627Y111947D01*
X23810Y111797D01*
X24018Y111686D01*
X24245Y111617D01*
X24480Y111594D01*
X94981D01*
X132274Y74300D01*
Y73498D01*
X132255Y73486D01*
X132006Y73274D01*
X131794Y73025D01*
X131623Y72746D01*
X131498Y72444D01*
X131421Y72126D01*
X131396Y71800D01*
X131421Y71474D01*
X131498Y71156D01*
X131623Y70854D01*
X131794Y70575D01*
X132006Y70326D01*
X132255Y70114D01*
X132534Y69943D01*
X132836Y69818D01*
X133154Y69741D01*
X133480Y69716D01*
X133806Y69741D01*
X134124Y69818D01*
X134426Y69943D01*
X134705Y70114D01*
X134954Y70326D01*
X135166Y70575D01*
X135337Y70854D01*
X135462Y71156D01*
X135539Y71474D01*
X135564Y71800D01*
X135539Y72126D01*
X135462Y72444D01*
X135337Y72746D01*
X135166Y73025D01*
X134954Y73274D01*
X134705Y73486D01*
X134686Y73498D01*
Y74800D01*
X134686Y74800D01*
X134663Y75035D01*
X134594Y75261D01*
X134483Y75470D01*
X134333Y75653D01*
X134333Y75653D01*
X131757Y78229D01*
X131948Y78690D01*
X135020D01*
X149696Y64016D01*
X149925Y63839D01*
X150193Y63728D01*
X150480Y63691D01*
X155723D01*
X155794Y63575D01*
X156006Y63326D01*
X156255Y63114D01*
X156534Y62943D01*
X156836Y62818D01*
X157154Y62741D01*
X157480Y62716D01*
X157806Y62741D01*
X158124Y62818D01*
X158426Y62943D01*
X158705Y63114D01*
X158954Y63326D01*
X159166Y63575D01*
X159337Y63854D01*
X159462Y64156D01*
X159539Y64474D01*
X159564Y64800D01*
X159539Y65126D01*
X159462Y65444D01*
X159337Y65746D01*
X159166Y66025D01*
X158954Y66274D01*
X158705Y66486D01*
X158426Y66657D01*
X158124Y66782D01*
X157806Y66859D01*
X157480Y66884D01*
X157154Y66859D01*
X156836Y66782D01*
X156534Y66657D01*
X156255Y66486D01*
X156006Y66274D01*
X155794Y66025D01*
X155723Y65909D01*
X150940D01*
X136265Y80585D01*
X136035Y80761D01*
X135767Y80872D01*
X135480Y80910D01*
X131202D01*
X96921Y115190D01*
X97128Y115691D01*
X111020D01*
X115371Y111340D01*
Y103800D01*
X115408Y103513D01*
X115519Y103245D01*
X115696Y103015D01*
X119695Y99015D01*
X119695Y99015D01*
X119925Y98839D01*
X120193Y98728D01*
X120480Y98690D01*
X168220D01*
X170370Y96540D01*
Y64800D01*
X170408Y64513D01*
X170519Y64245D01*
X170695Y64016D01*
X173234Y61477D01*
X173098Y61201D01*
X172944Y60747D01*
X172851Y60278D01*
X172819Y59800D01*
X172851Y59322D01*
X172944Y58853D01*
X173098Y58399D01*
X173310Y57970D01*
X173576Y57572D01*
X173892Y57212D01*
X174252Y56896D01*
X174650Y56630D01*
X175079Y56418D01*
X175533Y56264D01*
X176002Y56171D01*
X176480Y56139D01*
X176958Y56171D01*
X177427Y56264D01*
X177881Y56418D01*
X178310Y56630D01*
X178708Y56896D01*
X179068Y57212D01*
X179384Y57572D01*
X179650Y57970D01*
X179862Y58399D01*
X180016Y58853D01*
X180109Y59322D01*
X180141Y59800D01*
X180109Y60278D01*
X180016Y60747D01*
X179862Y61201D01*
X179650Y61630D01*
X179384Y62028D01*
X179068Y62388D01*
X178708Y62704D01*
X178310Y62970D01*
X177881Y63182D01*
X177427Y63336D01*
X176958Y63429D01*
X176480Y63461D01*
X176002Y63429D01*
X175533Y63336D01*
X175079Y63182D01*
X174803Y63046D01*
X172590Y65260D01*
Y97000D01*
X172552Y97287D01*
X172441Y97555D01*
X172265Y97785D01*
X169465Y100584D01*
X169235Y100761D01*
X168967Y100872D01*
X168680Y100909D01*
X120940D01*
X117589Y104260D01*
Y111800D01*
X117552Y112087D01*
X117441Y112355D01*
X117264Y112584D01*
X112265Y117585D01*
X112035Y117761D01*
X111767Y117872D01*
X111480Y117910D01*
X72940D01*
X70507Y120342D01*
X70539Y120474D01*
X70564Y120800D01*
X70539Y121126D01*
X70462Y121444D01*
X70337Y121746D01*
X70166Y122025D01*
X69954Y122274D01*
X69705Y122486D01*
X69426Y122657D01*
X69124Y122782D01*
X68806Y122859D01*
X68480Y122884D01*
X68154Y122859D01*
X67836Y122782D01*
X67534Y122657D01*
X67255Y122486D01*
X67006Y122274D01*
X66794Y122025D01*
X66623Y121746D01*
X66498Y121444D01*
X66421Y121126D01*
X66396Y120800D01*
X66421Y120474D01*
X66498Y120156D01*
X66623Y119854D01*
X66794Y119575D01*
X67006Y119326D01*
X67255Y119114D01*
X67534Y118943D01*
X67836Y118818D01*
X68154Y118741D01*
X68480Y118716D01*
X68806Y118741D01*
X68938Y118773D01*
X71301Y116410D01*
X71094Y115910D01*
X66940D01*
X63207Y119642D01*
X63337Y119854D01*
X63462Y120156D01*
X63539Y120474D01*
X63564Y120800D01*
X63539Y121126D01*
X63462Y121444D01*
X63337Y121746D01*
X63166Y122025D01*
X62954Y122274D01*
X62705Y122486D01*
X62426Y122657D01*
X62124Y122782D01*
X61806Y122859D01*
X61480Y122884D01*
X61154Y122859D01*
X60836Y122782D01*
X60534Y122657D01*
X60255Y122486D01*
X60006Y122274D01*
X59794Y122025D01*
X59623Y121746D01*
X59498Y121444D01*
X59421Y121126D01*
X59396Y120800D01*
X59421Y120474D01*
X59498Y120156D01*
X59623Y119854D01*
X59794Y119575D01*
X60006Y119326D01*
X60255Y119114D01*
X60534Y118943D01*
X60836Y118818D01*
X60911Y118799D01*
X65205Y114506D01*
X64998Y114006D01*
X24980D01*
X18771Y120214D01*
X18862Y120399D01*
X19016Y120853D01*
X19109Y121322D01*
X19141Y121800D01*
X19109Y122278D01*
X19016Y122747D01*
X18862Y123201D01*
X18650Y123630D01*
X18384Y124028D01*
X18068Y124388D01*
X17708Y124704D01*
X17310Y124970D01*
X16881Y125182D01*
X16427Y125336D01*
X15958Y125429D01*
X15480Y125461D01*
D02*
G37*
G36*
X119780Y58200D02*
X118992D01*
X119001Y58170D01*
X119129Y57931D01*
X119301Y57721D01*
X119511Y57549D01*
X119750Y57421D01*
X119780Y57412D01*
Y58200D01*
D02*
G37*
G36*
X4980Y64717D02*
X4565Y64617D01*
X4135Y64439D01*
X3739Y64196D01*
X3386Y63894D01*
X3084Y63541D01*
X2841Y63145D01*
X2663Y62715D01*
X2563Y62300D01*
X4980D01*
Y64717D01*
D02*
G37*
G36*
X5980D02*
Y62300D01*
X8397D01*
X8297Y62715D01*
X8119Y63145D01*
X7876Y63541D01*
X7574Y63894D01*
X7221Y64196D01*
X6825Y64439D01*
X6395Y64617D01*
X5980Y64717D01*
D02*
G37*
G36*
X15480Y75461D02*
X15002Y75429D01*
X14533Y75336D01*
X14079Y75182D01*
X13650Y74970D01*
X13252Y74704D01*
X12892Y74388D01*
X12576Y74028D01*
X12310Y73630D01*
X12098Y73201D01*
X11944Y72747D01*
X11851Y72278D01*
X11819Y71800D01*
X11851Y71322D01*
X11944Y70853D01*
X12098Y70399D01*
X12310Y69970D01*
X12576Y69572D01*
X12892Y69212D01*
X13252Y68896D01*
X13650Y68630D01*
X14079Y68418D01*
X14533Y68264D01*
X15002Y68171D01*
X15480Y68139D01*
X15958Y68171D01*
X16427Y68264D01*
X16881Y68418D01*
X17310Y68630D01*
X17708Y68896D01*
X18068Y69212D01*
X18384Y69572D01*
X18650Y69970D01*
X18862Y70399D01*
X19016Y70853D01*
X19109Y71322D01*
X19141Y71800D01*
X19109Y72278D01*
X19016Y72747D01*
X18862Y73201D01*
X18650Y73630D01*
X18384Y74028D01*
X18068Y74388D01*
X17708Y74704D01*
X17310Y74970D01*
X16881Y75182D01*
X16427Y75336D01*
X15958Y75429D01*
X15480Y75461D01*
D02*
G37*
G36*
X8397Y61300D02*
X5980D01*
Y58883D01*
X6395Y58983D01*
X6825Y59161D01*
X7221Y59404D01*
X7574Y59706D01*
X7876Y60059D01*
X8119Y60455D01*
X8297Y60885D01*
X8397Y61300D01*
D02*
G37*
G36*
X119780Y59988D02*
X119750Y59979D01*
X119511Y59851D01*
X119301Y59679D01*
X119129Y59469D01*
X119001Y59230D01*
X118992Y59200D01*
X119780D01*
Y59988D01*
D02*
G37*
G36*
X120780D02*
Y59200D01*
X121568D01*
X121559Y59230D01*
X121431Y59469D01*
X121259Y59679D01*
X121049Y59851D01*
X120810Y59979D01*
X120780Y59988D01*
D02*
G37*
G36*
X185980Y32753D02*
X183527D01*
Y30300D01*
X185980D01*
Y32753D01*
D02*
G37*
G36*
X189433D02*
X186980D01*
Y30300D01*
X189433D01*
Y32753D01*
D02*
G37*
G36*
X47980Y33717D02*
X47565Y33617D01*
X47135Y33439D01*
X46739Y33196D01*
X46386Y32894D01*
X46084Y32541D01*
X45841Y32145D01*
X45663Y31715D01*
X45563Y31300D01*
X47980D01*
Y33717D01*
D02*
G37*
G36*
X62133Y34453D02*
X54827D01*
Y27147D01*
X62133D01*
Y34453D01*
D02*
G37*
G36*
X47980Y30300D02*
X45563D01*
X45663Y29885D01*
X45841Y29455D01*
X46084Y29059D01*
X46386Y28706D01*
X46739Y28404D01*
X47135Y28161D01*
X47565Y27983D01*
X47980Y27883D01*
Y30300D01*
D02*
G37*
G36*
X51397D02*
X48980D01*
Y27883D01*
X49395Y27983D01*
X49825Y28161D01*
X50221Y28404D01*
X50574Y28706D01*
X50876Y29059D01*
X51119Y29455D01*
X51297Y29885D01*
X51397Y30300D01*
D02*
G37*
G36*
X186480Y43461D02*
X186002Y43429D01*
X185533Y43336D01*
X185079Y43182D01*
X184650Y42970D01*
X184252Y42704D01*
X183892Y42388D01*
X183576Y42028D01*
X183310Y41630D01*
X183098Y41201D01*
X182944Y40747D01*
X182851Y40278D01*
X182819Y39800D01*
X182851Y39322D01*
X182944Y38853D01*
X183098Y38399D01*
X183310Y37970D01*
X183576Y37572D01*
X183892Y37212D01*
X184252Y36896D01*
X184650Y36630D01*
X185079Y36418D01*
X185533Y36264D01*
X186002Y36171D01*
X186480Y36139D01*
X186958Y36171D01*
X187427Y36264D01*
X187881Y36418D01*
X188310Y36630D01*
X188708Y36896D01*
X189068Y37212D01*
X189384Y37572D01*
X189650Y37970D01*
X189862Y38399D01*
X190016Y38853D01*
X190109Y39322D01*
X190141Y39800D01*
X190109Y40278D01*
X190016Y40747D01*
X189862Y41201D01*
X189650Y41630D01*
X189384Y42028D01*
X189068Y42388D01*
X188708Y42704D01*
X188310Y42970D01*
X187881Y43182D01*
X187427Y43336D01*
X186958Y43429D01*
X186480Y43461D01*
D02*
G37*
G36*
X5480Y55461D02*
X5002Y55429D01*
X4533Y55336D01*
X4079Y55182D01*
X3650Y54970D01*
X3252Y54704D01*
X2892Y54388D01*
X2576Y54028D01*
X2310Y53630D01*
X2098Y53201D01*
X1944Y52747D01*
X1851Y52278D01*
X1819Y51800D01*
X1851Y51322D01*
X1944Y50853D01*
X2098Y50399D01*
X2310Y49970D01*
X2576Y49572D01*
X2892Y49212D01*
X3252Y48896D01*
X3650Y48630D01*
X4079Y48418D01*
X4533Y48264D01*
X5002Y48171D01*
X5480Y48139D01*
X5958Y48171D01*
X6427Y48264D01*
X6881Y48418D01*
X7310Y48630D01*
X7708Y48896D01*
X8068Y49212D01*
X8384Y49572D01*
X8650Y49970D01*
X8862Y50399D01*
X9016Y50853D01*
X9109Y51322D01*
X9141Y51800D01*
X9109Y52278D01*
X9016Y52747D01*
X8862Y53201D01*
X8650Y53630D01*
X8384Y54028D01*
X8068Y54388D01*
X7708Y54704D01*
X7310Y54970D01*
X6881Y55182D01*
X6427Y55336D01*
X5958Y55429D01*
X5480Y55461D01*
D02*
G37*
G36*
X68480Y101884D02*
X68154Y101859D01*
X67836Y101782D01*
X67534Y101657D01*
X67255Y101486D01*
X67006Y101274D01*
X66794Y101025D01*
X66623Y100746D01*
X66498Y100444D01*
X66421Y100126D01*
X66396Y99800D01*
X66421Y99474D01*
X66498Y99156D01*
X66623Y98854D01*
X66794Y98575D01*
X67006Y98326D01*
X67255Y98114D01*
X67534Y97943D01*
X67836Y97818D01*
X68154Y97741D01*
X68480Y97716D01*
X68806Y97741D01*
X68828Y97747D01*
X70274Y96301D01*
Y54498D01*
X70255Y54486D01*
X70006Y54274D01*
X69794Y54025D01*
X69623Y53746D01*
X69498Y53444D01*
X69421Y53126D01*
X69396Y52800D01*
X69421Y52474D01*
X69498Y52156D01*
X69623Y51854D01*
X69794Y51575D01*
X70006Y51326D01*
X70255Y51114D01*
X70534Y50943D01*
X70836Y50818D01*
X71154Y50741D01*
X71480Y50716D01*
X71806Y50741D01*
X72124Y50818D01*
X72426Y50943D01*
X72705Y51114D01*
X72954Y51326D01*
X73166Y51575D01*
X73337Y51854D01*
X73462Y52156D01*
X73539Y52474D01*
X73564Y52800D01*
X73539Y53126D01*
X73462Y53444D01*
X73337Y53746D01*
X73166Y54025D01*
X72954Y54274D01*
X72705Y54486D01*
X72686Y54498D01*
Y96800D01*
X72663Y97035D01*
X72594Y97261D01*
X72483Y97470D01*
X72333Y97653D01*
X70533Y99452D01*
X70539Y99474D01*
X70564Y99800D01*
X70539Y100126D01*
X70462Y100444D01*
X70337Y100746D01*
X70166Y101025D01*
X69954Y101274D01*
X69705Y101486D01*
X69426Y101657D01*
X69124Y101782D01*
X68806Y101859D01*
X68480Y101884D01*
D02*
G37*
G36*
X48980Y33717D02*
Y31300D01*
X51397D01*
X51297Y31715D01*
X51119Y32145D01*
X50876Y32541D01*
X50574Y32894D01*
X50221Y33196D01*
X49825Y33439D01*
X49395Y33617D01*
X48980Y33717D01*
D02*
G37*
G36*
X34480Y106884D02*
X34154Y106859D01*
X33836Y106782D01*
X33534Y106657D01*
X33255Y106486D01*
X33006Y106274D01*
X32794Y106025D01*
X32623Y105746D01*
X32498Y105444D01*
X32421Y105126D01*
X32396Y104800D01*
X32421Y104474D01*
X32498Y104156D01*
X32623Y103854D01*
X32794Y103575D01*
X33006Y103326D01*
X33255Y103114D01*
X33371Y103043D01*
Y44800D01*
X33408Y44513D01*
X33519Y44245D01*
X33696Y44015D01*
X37695Y40016D01*
X37696Y40016D01*
X37925Y39839D01*
X38193Y39728D01*
X38480Y39691D01*
X62020D01*
X67695Y34016D01*
X67925Y33839D01*
X68193Y33728D01*
X68480Y33691D01*
X77723D01*
X77794Y33575D01*
X78006Y33326D01*
X78255Y33114D01*
X78534Y32943D01*
X78836Y32818D01*
X79154Y32741D01*
X79480Y32716D01*
X79806Y32741D01*
X80124Y32818D01*
X80426Y32943D01*
X80705Y33114D01*
X80954Y33326D01*
X81166Y33575D01*
X81337Y33854D01*
X81462Y34156D01*
X81539Y34474D01*
X81564Y34800D01*
X81539Y35126D01*
X81462Y35444D01*
X81337Y35746D01*
X81166Y36025D01*
X80954Y36274D01*
X80705Y36486D01*
X80426Y36657D01*
X80124Y36782D01*
X79806Y36859D01*
X79480Y36884D01*
X79154Y36859D01*
X78836Y36782D01*
X78534Y36657D01*
X78255Y36486D01*
X78006Y36274D01*
X77794Y36025D01*
X77723Y35910D01*
X68940D01*
X63265Y41585D01*
X63035Y41761D01*
X62767Y41872D01*
X62480Y41910D01*
X38940D01*
X35590Y45260D01*
Y103043D01*
X35705Y103114D01*
X35954Y103326D01*
X36166Y103575D01*
X36337Y103854D01*
X36462Y104156D01*
X36539Y104474D01*
X36564Y104800D01*
X36539Y105126D01*
X36462Y105444D01*
X36337Y105746D01*
X36166Y106025D01*
X35954Y106274D01*
X35705Y106486D01*
X35426Y106657D01*
X35124Y106782D01*
X34806Y106859D01*
X34480Y106884D01*
D02*
G37*
G36*
X125480Y95884D02*
X125154Y95859D01*
X124836Y95782D01*
X124534Y95657D01*
X124255Y95486D01*
X124006Y95274D01*
X123794Y95025D01*
X123623Y94746D01*
X123498Y94444D01*
X123421Y94126D01*
X123396Y93800D01*
X123421Y93474D01*
X123498Y93156D01*
X123623Y92854D01*
X123794Y92575D01*
X124006Y92326D01*
X124255Y92114D01*
X124534Y91943D01*
X124836Y91818D01*
X125154Y91741D01*
X125480Y91716D01*
X125806Y91741D01*
X126124Y91818D01*
X126426Y91943D01*
X126705Y92114D01*
X126954Y92326D01*
X127166Y92575D01*
X127237Y92690D01*
X164020D01*
X167370Y89340D01*
Y42800D01*
X167408Y42513D01*
X167519Y42245D01*
X167695Y42015D01*
X170695Y39015D01*
X170925Y38839D01*
X171193Y38728D01*
X171480Y38691D01*
X172999D01*
X173098Y38399D01*
X173310Y37970D01*
X173576Y37572D01*
X173892Y37212D01*
X174252Y36896D01*
X174650Y36630D01*
X175079Y36418D01*
X175533Y36264D01*
X176002Y36171D01*
X176480Y36139D01*
X176958Y36171D01*
X177427Y36264D01*
X177881Y36418D01*
X178310Y36630D01*
X178708Y36896D01*
X179068Y37212D01*
X179384Y37572D01*
X179650Y37970D01*
X179862Y38399D01*
X180016Y38853D01*
X180109Y39322D01*
X180141Y39800D01*
X180109Y40278D01*
X180016Y40747D01*
X179862Y41201D01*
X179650Y41630D01*
X179384Y42028D01*
X179068Y42388D01*
X178708Y42704D01*
X178310Y42970D01*
X177881Y43182D01*
X177427Y43336D01*
X176958Y43429D01*
X176480Y43461D01*
X176002Y43429D01*
X175533Y43336D01*
X175079Y43182D01*
X174650Y42970D01*
X174252Y42704D01*
X173892Y42388D01*
X173576Y42028D01*
X173310Y41630D01*
X173098Y41201D01*
X172999Y40909D01*
X171940D01*
X169589Y43260D01*
Y89800D01*
X169552Y90087D01*
X169441Y90355D01*
X169264Y90584D01*
X169264Y90585D01*
X165264Y94585D01*
X165035Y94761D01*
X164767Y94872D01*
X164480Y94910D01*
X127237D01*
X127166Y95025D01*
X126954Y95274D01*
X126705Y95486D01*
X126426Y95657D01*
X126124Y95782D01*
X125806Y95859D01*
X125480Y95884D01*
D02*
G37*
G36*
X180980Y126600D02*
X180192D01*
X180201Y126570D01*
X180329Y126331D01*
X180501Y126121D01*
X180711Y125949D01*
X180950Y125821D01*
X180980Y125812D01*
Y126600D01*
D02*
G37*
G36*
X7080Y151400D02*
X6292D01*
X6301Y151370D01*
X6429Y151131D01*
X6601Y150921D01*
X6811Y150749D01*
X7050Y150621D01*
X7080Y150612D01*
Y151400D01*
D02*
G37*
G36*
X8868D02*
X8080D01*
Y150612D01*
X8110Y150621D01*
X8349Y150749D01*
X8559Y150921D01*
X8731Y151131D01*
X8859Y151370D01*
X8868Y151400D01*
D02*
G37*
G36*
X39980Y144088D02*
X39950Y144079D01*
X39711Y143951D01*
X39501Y143779D01*
X39329Y143569D01*
X39201Y143330D01*
X39192Y143300D01*
X39980D01*
Y144088D01*
D02*
G37*
G36*
X40980D02*
Y143300D01*
X41768D01*
X41759Y143330D01*
X41631Y143569D01*
X41459Y143779D01*
X41249Y143951D01*
X41010Y144079D01*
X40980Y144088D01*
D02*
G37*
G36*
X156480Y191884D02*
X156154Y191859D01*
X155836Y191782D01*
X155534Y191657D01*
X155255Y191486D01*
X155006Y191274D01*
X154794Y191025D01*
X154782Y191006D01*
X144480D01*
X144245Y190983D01*
X144019Y190914D01*
X143810Y190803D01*
X143627Y190653D01*
X143627Y190653D01*
X136627Y183653D01*
X136477Y183470D01*
X136366Y183261D01*
X136297Y183035D01*
X136274Y182800D01*
X136274Y182800D01*
Y130299D01*
X133981Y128006D01*
X129720D01*
X127426Y130299D01*
Y146842D01*
X127445Y146854D01*
X127694Y147066D01*
X127907Y147315D01*
X128077Y147594D01*
X128203Y147896D01*
X128279Y148214D01*
X128305Y148540D01*
X128279Y148866D01*
X128203Y149184D01*
X128077Y149486D01*
X127907Y149765D01*
X127694Y150014D01*
X127445Y150226D01*
X127166Y150397D01*
X126864Y150523D01*
X126546Y150599D01*
X126220Y150625D01*
X125894Y150599D01*
X125576Y150523D01*
X125274Y150397D01*
X124995Y150226D01*
X124746Y150014D01*
X124534Y149765D01*
X124363Y149486D01*
X124238Y149184D01*
X124162Y148866D01*
X124136Y148540D01*
X124162Y148214D01*
X124238Y147896D01*
X124363Y147594D01*
X124534Y147315D01*
X124746Y147066D01*
X124995Y146854D01*
X125014Y146842D01*
Y129800D01*
X125014Y129800D01*
X125038Y129565D01*
X125106Y129339D01*
X125218Y129130D01*
X125368Y128947D01*
X128368Y125947D01*
X128550Y125797D01*
X128759Y125686D01*
X128985Y125617D01*
X129220Y125594D01*
X134480D01*
X134480Y125594D01*
X134715Y125617D01*
X134941Y125686D01*
X135150Y125797D01*
X135333Y125947D01*
X138333Y128947D01*
X138483Y129130D01*
X138594Y129339D01*
X138663Y129565D01*
X138686Y129800D01*
Y154012D01*
X138779Y154094D01*
X153772D01*
Y137989D01*
X153623Y137746D01*
X153498Y137444D01*
X153421Y137126D01*
X153396Y136800D01*
X153421Y136474D01*
X153498Y136156D01*
X153623Y135854D01*
X153794Y135575D01*
X154006Y135326D01*
X154255Y135114D01*
X154534Y134943D01*
X154836Y134818D01*
X155154Y134741D01*
X155480Y134716D01*
X155806Y134741D01*
X156124Y134818D01*
X156426Y134943D01*
X156705Y135114D01*
X156954Y135326D01*
X157166Y135575D01*
X157337Y135854D01*
X157462Y136156D01*
X157539Y136474D01*
X157564Y136800D01*
X157539Y137126D01*
X157462Y137444D01*
X157337Y137746D01*
X157188Y137989D01*
Y154094D01*
X172980D01*
X173163Y154118D01*
X173333Y154189D01*
X173479Y154301D01*
X173591Y154447D01*
X173662Y154617D01*
X173686Y154800D01*
Y159800D01*
X173662Y159983D01*
X173591Y160153D01*
X173479Y160299D01*
X173333Y160411D01*
X173163Y160482D01*
X172980Y160506D01*
X168272D01*
X165979Y162799D01*
X165979Y162799D01*
X165833Y162911D01*
X165663Y162982D01*
X165480Y163006D01*
X165480Y163006D01*
X140480Y163006D01*
X140480Y163006D01*
X140297Y162982D01*
X140127Y162911D01*
X139981Y162799D01*
X139981Y162799D01*
X139148Y161966D01*
X138686Y162158D01*
Y182300D01*
X144980Y188594D01*
X154782D01*
X154794Y188575D01*
X155006Y188326D01*
X155255Y188114D01*
X155534Y187943D01*
X155836Y187818D01*
X156154Y187741D01*
X156480Y187716D01*
X156806Y187741D01*
X157124Y187818D01*
X157426Y187943D01*
X157705Y188114D01*
X157954Y188326D01*
X158166Y188575D01*
X158337Y188854D01*
X158462Y189156D01*
X158539Y189474D01*
X158564Y189800D01*
X158539Y190126D01*
X158462Y190444D01*
X158337Y190746D01*
X158166Y191025D01*
X157954Y191274D01*
X157705Y191486D01*
X157426Y191657D01*
X157124Y191782D01*
X156806Y191859D01*
X156480Y191884D01*
D02*
G37*
G36*
X178216Y159917D02*
X177828Y159887D01*
X177450Y159796D01*
X177091Y159647D01*
X176759Y159444D01*
X176463Y159191D01*
X176210Y158895D01*
X176007Y158563D01*
X175858Y158204D01*
X175767Y157826D01*
X175737Y157438D01*
X175767Y157050D01*
X175858Y156672D01*
X176007Y156312D01*
X176210Y155981D01*
X176463Y155685D01*
X176759Y155432D01*
X177091Y155229D01*
X177450Y155080D01*
X177828Y154989D01*
X178216Y154958D01*
X178604Y154989D01*
X178982Y155080D01*
X179342Y155229D01*
X179674Y155432D01*
X179969Y155685D01*
X180222Y155981D01*
X180425Y156312D01*
X180574Y156672D01*
X180665Y157050D01*
X180695Y157438D01*
X180665Y157826D01*
X180574Y158204D01*
X180425Y158563D01*
X180222Y158895D01*
X179969Y159191D01*
X179674Y159444D01*
X179342Y159647D01*
X178982Y159796D01*
X178604Y159887D01*
X178216Y159917D01*
D02*
G37*
G36*
X7080Y153188D02*
X7050Y153179D01*
X6811Y153051D01*
X6601Y152879D01*
X6429Y152669D01*
X6301Y152430D01*
X6292Y152400D01*
X7080D01*
Y153188D01*
D02*
G37*
G36*
X8080D02*
Y152400D01*
X8868D01*
X8859Y152430D01*
X8731Y152669D01*
X8559Y152879D01*
X8349Y153051D01*
X8110Y153179D01*
X8080Y153188D01*
D02*
G37*
G36*
X4980Y144717D02*
X4565Y144617D01*
X4135Y144439D01*
X3739Y144196D01*
X3386Y143894D01*
X3084Y143541D01*
X2841Y143145D01*
X2663Y142715D01*
X2563Y142300D01*
X4980D01*
Y144717D01*
D02*
G37*
G36*
X5980D02*
Y142300D01*
X8397D01*
X8297Y142715D01*
X8119Y143145D01*
X7876Y143541D01*
X7574Y143894D01*
X7221Y144196D01*
X6825Y144439D01*
X6395Y144617D01*
X5980Y144717D01*
D02*
G37*
G36*
X39980Y142300D02*
X39192D01*
X39201Y142270D01*
X39329Y142031D01*
X39501Y141821D01*
X39711Y141649D01*
X39950Y141521D01*
X39980Y141512D01*
Y142300D01*
D02*
G37*
G36*
X41768D02*
X40980D01*
Y141512D01*
X41010Y141521D01*
X41249Y141649D01*
X41459Y141821D01*
X41631Y142031D01*
X41759Y142270D01*
X41768Y142300D01*
D02*
G37*
G36*
X31980Y144088D02*
X31950Y144079D01*
X31711Y143951D01*
X31501Y143779D01*
X31329Y143569D01*
X31201Y143330D01*
X31192Y143300D01*
X31980D01*
Y144088D01*
D02*
G37*
G36*
X32980D02*
Y143300D01*
X33768D01*
X33759Y143330D01*
X33631Y143569D01*
X33459Y143779D01*
X33249Y143951D01*
X33010Y144079D01*
X32980Y144088D01*
D02*
G37*
G36*
X23980D02*
X23950Y144079D01*
X23711Y143951D01*
X23501Y143779D01*
X23329Y143569D01*
X23201Y143330D01*
X23192Y143300D01*
X23980D01*
Y144088D01*
D02*
G37*
G36*
X24980D02*
Y143300D01*
X25768D01*
X25759Y143330D01*
X25631Y143569D01*
X25459Y143779D01*
X25249Y143951D01*
X25010Y144079D01*
X24980Y144088D01*
D02*
G37*
G36*
X71480Y190884D02*
X71154Y190859D01*
X70836Y190782D01*
X70534Y190657D01*
X70255Y190486D01*
X70006Y190274D01*
X69794Y190025D01*
X69782Y190006D01*
X69480D01*
X69245Y189983D01*
X69019Y189914D01*
X68810Y189803D01*
X68627Y189653D01*
X68627Y189653D01*
X64627Y185653D01*
X64477Y185470D01*
X64366Y185261D01*
X64297Y185035D01*
X64274Y184800D01*
X64274Y184800D01*
Y176300D01*
X58627Y170653D01*
X58477Y170470D01*
X58366Y170261D01*
X58297Y170035D01*
X58274Y169800D01*
X58274Y169800D01*
Y167671D01*
X58255Y167659D01*
X58006Y167447D01*
X57794Y167198D01*
X57623Y166920D01*
X57498Y166617D01*
X57421Y166299D01*
X57396Y165973D01*
X57421Y165647D01*
X57498Y165329D01*
X57623Y165027D01*
X57794Y164748D01*
X58006Y164499D01*
X58255Y164287D01*
X58534Y164116D01*
X58836Y163991D01*
X59154Y163915D01*
X59480Y163889D01*
X59806Y163915D01*
X60124Y163991D01*
X60426Y164116D01*
X60705Y164287D01*
X60954Y164499D01*
X61166Y164748D01*
X61337Y165027D01*
X61462Y165329D01*
X61539Y165647D01*
X61564Y165973D01*
X61539Y166299D01*
X61462Y166617D01*
X61337Y166920D01*
X61166Y167198D01*
X60954Y167447D01*
X60705Y167659D01*
X60686Y167671D01*
Y169300D01*
X66333Y174947D01*
X66483Y175130D01*
X66594Y175339D01*
X66663Y175565D01*
X66686Y175800D01*
Y184300D01*
X69722Y187337D01*
X70006Y187326D01*
X70255Y187114D01*
X70534Y186943D01*
X70836Y186818D01*
X71154Y186741D01*
X71480Y186716D01*
X71806Y186741D01*
X72124Y186818D01*
X72426Y186943D01*
X72705Y187114D01*
X72954Y187326D01*
X73166Y187575D01*
X73337Y187854D01*
X73462Y188156D01*
X73539Y188474D01*
X73564Y188800D01*
X73539Y189126D01*
X73462Y189444D01*
X73337Y189746D01*
X73166Y190025D01*
X72954Y190274D01*
X72705Y190486D01*
X72426Y190657D01*
X72124Y190782D01*
X71806Y190859D01*
X71480Y190884D01*
D02*
G37*
G36*
X103480Y178461D02*
X103002Y178429D01*
X102533Y178336D01*
X102079Y178182D01*
X101650Y177970D01*
X101252Y177704D01*
X100892Y177388D01*
X100576Y177028D01*
X100310Y176630D01*
X100098Y176201D01*
X99944Y175747D01*
X99851Y175278D01*
X99819Y174800D01*
X99851Y174322D01*
X99944Y173853D01*
X100098Y173399D01*
X100310Y172970D01*
X100576Y172572D01*
X100892Y172212D01*
X101252Y171896D01*
X101650Y171630D01*
X102079Y171418D01*
X102274Y171352D01*
Y166299D01*
X99980Y164006D01*
X99178D01*
X99166Y164025D01*
X98954Y164274D01*
X98705Y164486D01*
X98426Y164657D01*
X98124Y164782D01*
X97806Y164859D01*
X97480Y164884D01*
X97154Y164859D01*
X96836Y164782D01*
X96534Y164657D01*
X96255Y164486D01*
X96006Y164274D01*
X95794Y164025D01*
X95623Y163746D01*
X95498Y163444D01*
X95421Y163126D01*
X95396Y162800D01*
X95421Y162474D01*
X95498Y162156D01*
X95623Y161854D01*
X95794Y161575D01*
X96006Y161326D01*
X96255Y161114D01*
X96274Y161102D01*
Y151300D01*
X92980Y148006D01*
X78178D01*
X78166Y148025D01*
X77954Y148274D01*
X77705Y148486D01*
X77426Y148657D01*
X77124Y148782D01*
X76806Y148859D01*
X76480Y148884D01*
X76154Y148859D01*
X75836Y148782D01*
X75534Y148657D01*
X75255Y148486D01*
X75006Y148274D01*
X74794Y148025D01*
X74623Y147746D01*
X74498Y147444D01*
X74421Y147126D01*
X74396Y146800D01*
X74421Y146474D01*
X74498Y146156D01*
X74623Y145854D01*
X74794Y145575D01*
X75006Y145326D01*
X75255Y145114D01*
X75534Y144943D01*
X75836Y144818D01*
X76154Y144741D01*
X76480Y144716D01*
X76806Y144741D01*
X77124Y144818D01*
X77426Y144943D01*
X77705Y145114D01*
X77954Y145326D01*
X78166Y145575D01*
X78178Y145594D01*
X93480D01*
X93480Y145594D01*
X93715Y145617D01*
X93941Y145686D01*
X94150Y145797D01*
X94333Y145947D01*
X98333Y149947D01*
X98333Y149947D01*
X98483Y150130D01*
X98594Y150339D01*
X98663Y150565D01*
X98686Y150800D01*
Y161102D01*
X98705Y161114D01*
X98954Y161326D01*
X99166Y161575D01*
X99178Y161594D01*
X100480D01*
X100480Y161594D01*
X100715Y161617D01*
X100941Y161686D01*
X101150Y161797D01*
X101333Y161947D01*
X104333Y164947D01*
X104483Y165130D01*
X104594Y165339D01*
X104663Y165565D01*
X104686Y165800D01*
Y171352D01*
X104881Y171418D01*
X105310Y171630D01*
X105708Y171896D01*
X106068Y172212D01*
X106384Y172572D01*
X106650Y172970D01*
X106862Y173399D01*
X107016Y173853D01*
X107109Y174322D01*
X107141Y174800D01*
X107109Y175278D01*
X107016Y175747D01*
X106862Y176201D01*
X106650Y176630D01*
X106384Y177028D01*
X106068Y177388D01*
X105708Y177704D01*
X105310Y177970D01*
X104881Y178182D01*
X104427Y178336D01*
X103958Y178429D01*
X103480Y178461D01*
D02*
G37*
G36*
X8280Y161288D02*
Y160500D01*
X9068D01*
X9059Y160530D01*
X8931Y160769D01*
X8759Y160979D01*
X8549Y161151D01*
X8310Y161279D01*
X8280Y161288D01*
D02*
G37*
G36*
X10397Y167300D02*
X7980D01*
Y164883D01*
X8395Y164983D01*
X8825Y165161D01*
X9221Y165404D01*
X9574Y165706D01*
X9876Y166059D01*
X10119Y166455D01*
X10297Y166885D01*
X10397Y167300D01*
D02*
G37*
G36*
X6980D02*
X4563D01*
X4663Y166885D01*
X4841Y166455D01*
X5084Y166059D01*
X5386Y165706D01*
X5739Y165404D01*
X6135Y165161D01*
X6565Y164983D01*
X6980Y164883D01*
Y167300D01*
D02*
G37*
G36*
X7280Y159500D02*
X6492D01*
X6501Y159470D01*
X6629Y159231D01*
X6801Y159021D01*
X7011Y158849D01*
X7250Y158721D01*
X7280Y158712D01*
Y159500D01*
D02*
G37*
G36*
X56480Y188884D02*
X56154Y188859D01*
X55836Y188782D01*
X55534Y188657D01*
X55255Y188486D01*
X55006Y188274D01*
X54794Y188025D01*
X54623Y187746D01*
X54498Y187444D01*
X54421Y187126D01*
X54396Y186800D01*
X54421Y186474D01*
X54498Y186156D01*
X54623Y185854D01*
X54794Y185575D01*
X55006Y185326D01*
X55255Y185114D01*
X55370Y185043D01*
Y170260D01*
X54695Y169585D01*
X54519Y169355D01*
X54408Y169087D01*
X54370Y168800D01*
Y161557D01*
X54255Y161486D01*
X54006Y161274D01*
X53794Y161025D01*
X53623Y160746D01*
X53498Y160444D01*
X53421Y160126D01*
X53396Y159800D01*
X53421Y159474D01*
X53498Y159156D01*
X53623Y158854D01*
X53794Y158575D01*
X54006Y158326D01*
X54255Y158114D01*
X54534Y157943D01*
X54836Y157818D01*
X55154Y157741D01*
X55480Y157716D01*
X55806Y157741D01*
X56124Y157818D01*
X56426Y157943D01*
X56705Y158114D01*
X56954Y158326D01*
X57166Y158575D01*
X57337Y158854D01*
X57462Y159156D01*
X57539Y159474D01*
X57564Y159800D01*
X57539Y160126D01*
X57462Y160444D01*
X57337Y160746D01*
X57166Y161025D01*
X56954Y161274D01*
X56705Y161486D01*
X56590Y161557D01*
Y168340D01*
X57265Y169016D01*
X57441Y169245D01*
X57552Y169513D01*
X57590Y169800D01*
Y185043D01*
X57705Y185114D01*
X57954Y185326D01*
X58166Y185575D01*
X58337Y185854D01*
X58462Y186156D01*
X58539Y186474D01*
X58564Y186800D01*
X58539Y187126D01*
X58462Y187444D01*
X58337Y187746D01*
X58166Y188025D01*
X57954Y188274D01*
X57705Y188486D01*
X57426Y188657D01*
X57124Y188782D01*
X56806Y188859D01*
X56480Y188884D01*
D02*
G37*
G36*
X7280Y161288D02*
X7250Y161279D01*
X7011Y161151D01*
X6801Y160979D01*
X6629Y160769D01*
X6501Y160530D01*
X6492Y160500D01*
X7280D01*
Y161288D01*
D02*
G37*
G36*
X9068Y159500D02*
X8280D01*
Y158712D01*
X8310Y158721D01*
X8549Y158849D01*
X8759Y159021D01*
X8931Y159231D01*
X9059Y159470D01*
X9068Y159500D01*
D02*
G37*
G36*
X133768Y175300D02*
X132980D01*
Y174512D01*
X133010Y174521D01*
X133249Y174649D01*
X133459Y174821D01*
X133631Y175031D01*
X133759Y175270D01*
X133768Y175300D01*
D02*
G37*
G36*
X131980D02*
X131192D01*
X131201Y175270D01*
X131329Y175031D01*
X131501Y174821D01*
X131711Y174649D01*
X131950Y174521D01*
X131980Y174512D01*
Y175300D01*
D02*
G37*
G36*
X132980Y177088D02*
Y176300D01*
X133768D01*
X133759Y176330D01*
X133631Y176569D01*
X133459Y176779D01*
X133249Y176951D01*
X133010Y177079D01*
X132980Y177088D01*
D02*
G37*
G36*
X131980D02*
X131950Y177079D01*
X131711Y176951D01*
X131501Y176779D01*
X131329Y176569D01*
X131201Y176330D01*
X131192Y176300D01*
X131980D01*
Y177088D01*
D02*
G37*
G36*
X7980Y170717D02*
Y168300D01*
X10397D01*
X10297Y168715D01*
X10119Y169145D01*
X9876Y169541D01*
X9574Y169894D01*
X9221Y170196D01*
X8825Y170439D01*
X8395Y170617D01*
X7980Y170717D01*
D02*
G37*
G36*
X6980D02*
X6565Y170617D01*
X6135Y170439D01*
X5739Y170196D01*
X5386Y169894D01*
X5084Y169541D01*
X4841Y169145D01*
X4663Y168715D01*
X4563Y168300D01*
X6980D01*
Y170717D01*
D02*
G37*
G36*
X178216Y177240D02*
X177828Y177209D01*
X177450Y177118D01*
X177091Y176969D01*
X176759Y176766D01*
X176463Y176513D01*
X176210Y176217D01*
X176007Y175886D01*
X175858Y175526D01*
X175767Y175148D01*
X175737Y174760D01*
X175767Y174372D01*
X175858Y173994D01*
X176007Y173635D01*
X176210Y173303D01*
X176463Y173007D01*
X176759Y172754D01*
X177091Y172551D01*
X177450Y172402D01*
X177828Y172311D01*
X178216Y172281D01*
X178604Y172311D01*
X178982Y172402D01*
X179342Y172551D01*
X179674Y172754D01*
X179969Y173007D01*
X180222Y173303D01*
X180425Y173635D01*
X180574Y173994D01*
X180665Y174372D01*
X180695Y174760D01*
X180665Y175148D01*
X180574Y175526D01*
X180425Y175886D01*
X180222Y176217D01*
X179969Y176513D01*
X179674Y176766D01*
X179342Y176969D01*
X178982Y177118D01*
X178604Y177209D01*
X178216Y177240D01*
D02*
G37*
G36*
X117133Y178453D02*
X109827D01*
Y171147D01*
X117133D01*
Y178453D01*
D02*
G37*
G36*
X181980Y128388D02*
Y127600D01*
X182768D01*
X182759Y127630D01*
X182631Y127869D01*
X182459Y128079D01*
X182249Y128251D01*
X182010Y128379D01*
X181980Y128388D01*
D02*
G37*
G36*
X15480Y135461D02*
X15002Y135429D01*
X14533Y135336D01*
X14079Y135182D01*
X13650Y134970D01*
X13252Y134704D01*
X12892Y134388D01*
X12576Y134028D01*
X12310Y133630D01*
X12098Y133201D01*
X11944Y132747D01*
X11851Y132278D01*
X11819Y131800D01*
X11851Y131322D01*
X11944Y130853D01*
X12098Y130399D01*
X12310Y129970D01*
X12576Y129572D01*
X12892Y129212D01*
X13252Y128896D01*
X13650Y128630D01*
X14079Y128418D01*
X14533Y128264D01*
X15002Y128171D01*
X15480Y128139D01*
X15958Y128171D01*
X16427Y128264D01*
X16881Y128418D01*
X17310Y128630D01*
X17708Y128896D01*
X18068Y129212D01*
X18384Y129572D01*
X18650Y129970D01*
X18862Y130399D01*
X19016Y130853D01*
X19109Y131322D01*
X19141Y131800D01*
X19109Y132278D01*
X19016Y132747D01*
X18862Y133201D01*
X18650Y133630D01*
X18384Y134028D01*
X18068Y134388D01*
X17708Y134704D01*
X17310Y134970D01*
X16881Y135182D01*
X16427Y135336D01*
X15958Y135429D01*
X15480Y135461D01*
D02*
G37*
G36*
X174780Y128288D02*
Y127500D01*
X175568D01*
X175559Y127530D01*
X175431Y127769D01*
X175259Y127979D01*
X175049Y128151D01*
X174810Y128279D01*
X174780Y128288D01*
D02*
G37*
G36*
X180980Y128388D02*
X180950Y128379D01*
X180711Y128251D01*
X180501Y128079D01*
X180329Y127869D01*
X180201Y127630D01*
X180192Y127600D01*
X180980D01*
Y128388D01*
D02*
G37*
G36*
X4980Y131300D02*
X2563D01*
X2663Y130885D01*
X2841Y130455D01*
X3084Y130059D01*
X3386Y129706D01*
X3739Y129404D01*
X4135Y129161D01*
X4565Y128983D01*
X4980Y128883D01*
Y131300D01*
D02*
G37*
G36*
X8397D02*
X5980D01*
Y128883D01*
X6395Y128983D01*
X6825Y129161D01*
X7221Y129404D01*
X7574Y129706D01*
X7876Y130059D01*
X8119Y130455D01*
X8297Y130885D01*
X8397Y131300D01*
D02*
G37*
G36*
X65980Y129300D02*
X65192D01*
X65201Y129270D01*
X65329Y129031D01*
X65501Y128821D01*
X65711Y128649D01*
X65950Y128521D01*
X65980Y128512D01*
Y129300D01*
D02*
G37*
G36*
X67768D02*
X66980D01*
Y128512D01*
X67010Y128521D01*
X67249Y128649D01*
X67459Y128821D01*
X67631Y129031D01*
X67759Y129270D01*
X67768Y129300D01*
D02*
G37*
G36*
X24980Y128088D02*
Y127300D01*
X25768D01*
X25759Y127330D01*
X25631Y127569D01*
X25459Y127779D01*
X25249Y127951D01*
X25010Y128079D01*
X24980Y128088D01*
D02*
G37*
G36*
X166980Y128188D02*
X166950Y128179D01*
X166711Y128051D01*
X166501Y127879D01*
X166329Y127669D01*
X166201Y127430D01*
X166192Y127400D01*
X166980D01*
Y128188D01*
D02*
G37*
G36*
X182768Y126600D02*
X181980D01*
Y125812D01*
X182010Y125821D01*
X182249Y125949D01*
X182459Y126121D01*
X182631Y126331D01*
X182759Y126570D01*
X182768Y126600D01*
D02*
G37*
G36*
X23980Y128088D02*
X23950Y128079D01*
X23711Y127951D01*
X23501Y127779D01*
X23329Y127569D01*
X23201Y127330D01*
X23192Y127300D01*
X23980D01*
Y128088D01*
D02*
G37*
G36*
X189880Y128188D02*
Y127400D01*
X190668D01*
X190659Y127430D01*
X190531Y127669D01*
X190359Y127879D01*
X190149Y128051D01*
X189910Y128179D01*
X189880Y128188D01*
D02*
G37*
G36*
X173780Y128288D02*
X173750Y128279D01*
X173511Y128151D01*
X173301Y127979D01*
X173129Y127769D01*
X173001Y127530D01*
X172992Y127500D01*
X173780D01*
Y128288D01*
D02*
G37*
G36*
X167980Y128188D02*
Y127400D01*
X168768D01*
X168759Y127430D01*
X168631Y127669D01*
X168459Y127879D01*
X168249Y128051D01*
X168010Y128179D01*
X167980Y128188D01*
D02*
G37*
G36*
X188880D02*
X188850Y128179D01*
X188611Y128051D01*
X188401Y127879D01*
X188229Y127669D01*
X188101Y127430D01*
X188092Y127400D01*
X188880D01*
Y128188D01*
D02*
G37*
G36*
X65980Y131088D02*
X65950Y131079D01*
X65711Y130951D01*
X65501Y130779D01*
X65329Y130569D01*
X65201Y130330D01*
X65192Y130300D01*
X65980D01*
Y131088D01*
D02*
G37*
G36*
X4980Y141300D02*
X2563D01*
X2663Y140885D01*
X2841Y140455D01*
X3084Y140059D01*
X3386Y139706D01*
X3739Y139404D01*
X4135Y139161D01*
X4565Y138983D01*
X4980Y138883D01*
Y141300D01*
D02*
G37*
G36*
X8397D02*
X5980D01*
Y138883D01*
X6395Y138983D01*
X6825Y139161D01*
X7221Y139404D01*
X7574Y139706D01*
X7876Y140059D01*
X8119Y140455D01*
X8297Y140885D01*
X8397Y141300D01*
D02*
G37*
G36*
X165980Y139088D02*
X165950Y139079D01*
X165711Y138951D01*
X165501Y138779D01*
X165329Y138569D01*
X165201Y138330D01*
X165192Y138300D01*
X165980D01*
Y139088D01*
D02*
G37*
G36*
X166980D02*
Y138300D01*
X167768D01*
X167759Y138330D01*
X167631Y138569D01*
X167459Y138779D01*
X167249Y138951D01*
X167010Y139079D01*
X166980Y139088D01*
D02*
G37*
G36*
X31980Y142300D02*
X31192D01*
X31201Y142270D01*
X31329Y142031D01*
X31501Y141821D01*
X31711Y141649D01*
X31950Y141521D01*
X31980Y141512D01*
Y142300D01*
D02*
G37*
G36*
X33768D02*
X32980D01*
Y141512D01*
X33010Y141521D01*
X33249Y141649D01*
X33459Y141821D01*
X33631Y142031D01*
X33759Y142270D01*
X33768Y142300D01*
D02*
G37*
G36*
X23980D02*
X23192D01*
X23201Y142270D01*
X23329Y142031D01*
X23501Y141821D01*
X23711Y141649D01*
X23950Y141521D01*
X23980Y141512D01*
Y142300D01*
D02*
G37*
G36*
X25768D02*
X24980D01*
Y141512D01*
X25010Y141521D01*
X25249Y141649D01*
X25459Y141821D01*
X25631Y142031D01*
X25759Y142270D01*
X25768Y142300D01*
D02*
G37*
G36*
X5980Y134717D02*
Y132300D01*
X8397D01*
X8297Y132715D01*
X8119Y133145D01*
X7876Y133541D01*
X7574Y133894D01*
X7221Y134196D01*
X6825Y134439D01*
X6395Y134617D01*
X5980Y134717D01*
D02*
G37*
G36*
X52480Y142461D02*
X52002Y142429D01*
X51533Y142336D01*
X51079Y142182D01*
X50650Y141970D01*
X50252Y141704D01*
X49892Y141388D01*
X49576Y141028D01*
X49310Y140630D01*
X49098Y140201D01*
X48944Y139747D01*
X48851Y139278D01*
X48819Y138800D01*
X48851Y138322D01*
X48944Y137853D01*
X49098Y137399D01*
X49310Y136970D01*
X49576Y136572D01*
X49892Y136212D01*
X50252Y135896D01*
X50650Y135630D01*
X51079Y135418D01*
X51533Y135264D01*
X52002Y135171D01*
X52480Y135139D01*
X52958Y135171D01*
X53427Y135264D01*
X53881Y135418D01*
X54310Y135630D01*
X54708Y135896D01*
X55068Y136212D01*
X55384Y136572D01*
X55650Y136970D01*
X55862Y137399D01*
X56016Y137853D01*
X56109Y138322D01*
X56141Y138800D01*
X56109Y139278D01*
X56016Y139747D01*
X55862Y140201D01*
X55650Y140630D01*
X55384Y141028D01*
X55068Y141388D01*
X54708Y141704D01*
X54310Y141970D01*
X53881Y142182D01*
X53427Y142336D01*
X52958Y142429D01*
X52480Y142461D01*
D02*
G37*
G36*
X66980Y131088D02*
Y130300D01*
X67768D01*
X67759Y130330D01*
X67631Y130569D01*
X67459Y130779D01*
X67249Y130951D01*
X67010Y131079D01*
X66980Y131088D01*
D02*
G37*
G36*
X4980Y134717D02*
X4565Y134617D01*
X4135Y134439D01*
X3739Y134196D01*
X3386Y133894D01*
X3084Y133541D01*
X2841Y133145D01*
X2663Y132715D01*
X2563Y132300D01*
X4980D01*
Y134717D01*
D02*
G37*
G36*
X167768Y137300D02*
X166980D01*
Y136512D01*
X167010Y136521D01*
X167249Y136649D01*
X167459Y136821D01*
X167631Y137031D01*
X167759Y137270D01*
X167768Y137300D01*
D02*
G37*
G36*
X15480Y145461D02*
X15002Y145429D01*
X14533Y145336D01*
X14079Y145182D01*
X13650Y144970D01*
X13252Y144704D01*
X12892Y144388D01*
X12576Y144028D01*
X12310Y143630D01*
X12098Y143201D01*
X11944Y142747D01*
X11851Y142278D01*
X11819Y141800D01*
X11851Y141322D01*
X11944Y140853D01*
X12098Y140399D01*
X12310Y139970D01*
X12576Y139572D01*
X12892Y139212D01*
X13252Y138896D01*
X13650Y138630D01*
X14079Y138418D01*
X14533Y138264D01*
X15002Y138171D01*
X15480Y138139D01*
X15958Y138171D01*
X16427Y138264D01*
X16881Y138418D01*
X17310Y138630D01*
X17708Y138896D01*
X18068Y139212D01*
X18384Y139572D01*
X18650Y139970D01*
X18862Y140399D01*
X19016Y140853D01*
X19109Y141322D01*
X19141Y141800D01*
X19109Y142278D01*
X19016Y142747D01*
X18862Y143201D01*
X18650Y143630D01*
X18384Y144028D01*
X18068Y144388D01*
X17708Y144704D01*
X17310Y144970D01*
X16881Y145182D01*
X16427Y145336D01*
X15958Y145429D01*
X15480Y145461D01*
D02*
G37*
G36*
X66133Y142453D02*
X58827D01*
Y135147D01*
X66133D01*
Y142453D01*
D02*
G37*
G36*
X165980Y137300D02*
X165192D01*
X165201Y137270D01*
X165329Y137031D01*
X165501Y136821D01*
X165711Y136649D01*
X165950Y136521D01*
X165980Y136512D01*
Y137300D01*
D02*
G37*
%LPD*%
G36*
X165480Y162300D02*
X167980Y159800D01*
X172980D01*
Y154800D01*
X138779D01*
Y160599D01*
X140480Y162300D01*
X165480Y162300D01*
D02*
G37*
%LPC*%
G36*
X144980Y158106D02*
Y157300D01*
X145785D01*
X145778Y157338D01*
X145474Y157793D01*
X145018Y158098D01*
X144980Y158106D01*
D02*
G37*
G36*
X143980D02*
X143942Y158098D01*
X143487Y157793D01*
X143182Y157338D01*
X143175Y157300D01*
X143980D01*
Y158106D01*
D02*
G37*
G36*
X161785Y156300D02*
X160980D01*
Y155494D01*
X161018Y155502D01*
X161474Y155807D01*
X161778Y156262D01*
X161785Y156300D01*
D02*
G37*
G36*
X160980Y162106D02*
Y161300D01*
X161785D01*
X161778Y161338D01*
X161474Y161793D01*
X161018Y162098D01*
X160980Y162106D01*
D02*
G37*
G36*
X147980Y158106D02*
Y157300D01*
X148785D01*
X148778Y157338D01*
X148474Y157793D01*
X148018Y158098D01*
X147980Y158106D01*
D02*
G37*
G36*
X146980D02*
X146942Y158098D01*
X146487Y157793D01*
X146182Y157338D01*
X146175Y157300D01*
X146980D01*
Y158106D01*
D02*
G37*
G36*
X159980Y156300D02*
X159175D01*
X159182Y156262D01*
X159487Y155807D01*
X159942Y155502D01*
X159980Y155494D01*
Y156300D01*
D02*
G37*
G36*
X146980D02*
X146175D01*
X146182Y156262D01*
X146487Y155807D01*
X146942Y155502D01*
X146980Y155494D01*
Y156300D01*
D02*
G37*
G36*
X145785D02*
X144980D01*
Y155494D01*
X145018Y155502D01*
X145474Y155807D01*
X145778Y156262D01*
X145785Y156300D01*
D02*
G37*
G36*
X143980D02*
X143175D01*
X143182Y156262D01*
X143487Y155807D01*
X143942Y155502D01*
X143980Y155494D01*
Y156300D01*
D02*
G37*
G36*
X151786D02*
X150980D01*
Y155494D01*
X151018Y155502D01*
X151473Y155807D01*
X151778Y156262D01*
X151786Y156300D01*
D02*
G37*
G36*
X149980D02*
X149174D01*
X149182Y156262D01*
X149487Y155807D01*
X149942Y155502D01*
X149980Y155494D01*
Y156300D01*
D02*
G37*
G36*
X148785D02*
X147980D01*
Y155494D01*
X148018Y155502D01*
X148474Y155807D01*
X148778Y156262D01*
X148785Y156300D01*
D02*
G37*
G36*
X159980Y162106D02*
X159942Y162098D01*
X159487Y161793D01*
X159182Y161338D01*
X159175Y161300D01*
X159980D01*
Y162106D01*
D02*
G37*
G36*
X149980Y160300D02*
X149174D01*
X149182Y160262D01*
X149487Y159807D01*
X149942Y159502D01*
X149980Y159494D01*
Y160300D01*
D02*
G37*
G36*
X151786D02*
X150980D01*
Y159494D01*
X151018Y159502D01*
X151473Y159807D01*
X151778Y160262D01*
X151786Y160300D01*
D02*
G37*
G36*
X159980D02*
X159175D01*
X159182Y160262D01*
X159487Y159807D01*
X159942Y159502D01*
X159980Y159494D01*
Y160300D01*
D02*
G37*
G36*
X148785D02*
X147980D01*
Y159494D01*
X148018Y159502D01*
X148474Y159807D01*
X148778Y160262D01*
X148785Y160300D01*
D02*
G37*
G36*
X160980Y158106D02*
Y157300D01*
X161785D01*
X161778Y157338D01*
X161474Y157793D01*
X161018Y158098D01*
X160980Y158106D01*
D02*
G37*
G36*
X159980D02*
X159942Y158098D01*
X159487Y157793D01*
X159182Y157338D01*
X159175Y157300D01*
X159980D01*
Y158106D01*
D02*
G37*
G36*
X146980Y160300D02*
X146175D01*
X146182Y160262D01*
X146487Y159807D01*
X146942Y159502D01*
X146980Y159494D01*
Y160300D01*
D02*
G37*
G36*
X147980Y162106D02*
Y161300D01*
X148785D01*
X148778Y161338D01*
X148474Y161793D01*
X148018Y162098D01*
X147980Y162106D01*
D02*
G37*
G36*
X149980D02*
X149942Y162098D01*
X149487Y161793D01*
X149182Y161338D01*
X149174Y161300D01*
X149980D01*
Y162106D01*
D02*
G37*
G36*
X150980D02*
Y161300D01*
X151786D01*
X151778Y161338D01*
X151473Y161793D01*
X151018Y162098D01*
X150980Y162106D01*
D02*
G37*
G36*
X146980D02*
X146942Y162098D01*
X146487Y161793D01*
X146182Y161338D01*
X146175Y161300D01*
X146980D01*
Y162106D01*
D02*
G37*
G36*
X161785Y160300D02*
X160980D01*
Y159494D01*
X161018Y159502D01*
X161474Y159807D01*
X161778Y160262D01*
X161785Y160300D01*
D02*
G37*
G36*
X150980Y158106D02*
Y157300D01*
X151786D01*
X151778Y157338D01*
X151473Y157793D01*
X151018Y158098D01*
X150980Y158106D01*
D02*
G37*
G36*
X149980D02*
X149942Y158098D01*
X149487Y157793D01*
X149182Y157338D01*
X149174Y157300D01*
X149980D01*
Y158106D01*
D02*
G37*
%LPD*%
D37*
X34480Y44800D02*
Y104800D01*
X120480Y99800D02*
X168680D01*
X116480Y103800D02*
X120480Y99800D01*
X116480Y103800D02*
Y111800D01*
X111480Y116800D02*
X116480Y111800D01*
X150480Y64800D02*
X157480D01*
X95743Y114800D02*
X130743Y79800D01*
X135480D02*
X150480Y64800D01*
X130743Y79800D02*
X135480D01*
X66480Y114800D02*
X95743D01*
X38515Y153365D02*
X64480D01*
X69480Y148365D01*
Y133800D02*
Y148365D01*
Y133800D02*
X78480Y124800D01*
X84480D01*
X114480Y141800D02*
Y167800D01*
X119480Y125800D02*
Y136800D01*
X114480Y141800D02*
X119480Y136800D01*
X118480Y120800D02*
X124480Y114800D01*
X75480Y120800D02*
X118480D01*
X33929Y157951D02*
X38515Y153365D01*
X33929Y157951D02*
Y190800D01*
X87480Y105800D02*
X93480D01*
X78480Y96800D02*
X87480Y105800D01*
X78480Y60800D02*
Y96800D01*
X84480Y124800D02*
X108354D01*
X168480Y42800D02*
Y89800D01*
X171480Y64800D02*
X176480Y59800D01*
X171480Y64800D02*
Y97000D01*
X168680Y99800D02*
X171480Y97000D01*
X168480Y42800D02*
X171480Y39800D01*
X176480D01*
X186480Y110800D02*
X192480Y104800D01*
Y56800D02*
Y104800D01*
X190480Y54800D02*
X192480Y56800D01*
X170480Y110800D02*
X186480D01*
X181480Y54800D02*
X190480D01*
X176480Y49800D02*
X181480Y54800D01*
X179480Y89800D02*
X186480D01*
Y59800D02*
Y89800D01*
X72480Y116800D02*
X111480D01*
X68480Y120800D02*
X72480Y116800D01*
X124480Y114800D02*
X153480D01*
X56480Y169800D02*
Y186800D01*
X108417Y124863D02*
X108480Y124800D01*
X61480Y119800D02*
X66480Y114800D01*
X61480Y119800D02*
Y120800D01*
X34480Y44800D02*
X38480Y40800D01*
X62480D01*
X68480Y34800D02*
X79480D01*
X62480Y40800D02*
X68480Y34800D01*
X164480Y93800D02*
X168480Y89800D01*
X125480Y93800D02*
X164480D01*
X134480Y57800D02*
X150480D01*
X128480Y51800D02*
X134480Y57800D01*
X55480Y168800D02*
X56480Y169800D01*
X55480Y159800D02*
Y168800D01*
X108354Y124800D02*
X108417Y124863D01*
D38*
X133480Y71800D02*
Y74800D01*
X95480Y112800D02*
X133480Y74800D01*
X24480Y112800D02*
X95480D01*
X97480Y162800D02*
X100480D01*
X103480Y165800D01*
X15480Y121800D02*
X24480Y112800D01*
X96480Y98800D02*
X99480Y101800D01*
X87480Y98800D02*
X96480D01*
X85480Y96800D02*
X87480Y98800D01*
X85480Y34800D02*
Y96800D01*
X68480Y99800D02*
X71480Y96800D01*
Y52800D02*
Y96800D01*
X25480Y81800D02*
Y96800D01*
X134480Y126800D02*
X137480Y129800D01*
Y182800D01*
X144480Y189800D01*
X156480D01*
X126220Y129800D02*
X129220Y126800D01*
X126220Y129800D02*
Y148540D01*
X129220Y126800D02*
X134480D01*
X76480Y146800D02*
X93480D01*
X97480Y150800D01*
Y162800D01*
X125480Y110800D02*
X170480D01*
X158480Y104800D02*
X159480Y105800D01*
X125480Y104800D02*
X158480D01*
X59480Y165973D02*
Y169800D01*
X65480Y175800D01*
Y184800D01*
X69480Y188800D01*
X71480D01*
X103480Y165800D02*
Y174800D01*
Y175800D01*
D39*
X132480Y138800D02*
Y167204D01*
X120480Y179204D02*
X132480Y167204D01*
X120480Y179204D02*
Y181800D01*
X114280Y195000D02*
X120480Y188800D01*
X7480Y184400D02*
X18080Y195000D01*
X114280D01*
X7480Y177800D02*
Y184400D01*
X143480Y87800D02*
X149480Y81800D01*
X157480D01*
X161980Y77300D01*
Y56300D02*
Y77300D01*
X148480Y42800D02*
X161980Y56300D01*
X118480Y42800D02*
X148480D01*
X95480Y19800D02*
X118480Y42800D01*
X95480Y9800D02*
Y19800D01*
X15480Y15800D02*
Y51800D01*
Y11800D02*
Y15800D01*
Y11800D02*
X24480Y2800D01*
X92480D02*
X95480Y5800D01*
X24480Y2800D02*
X92480D01*
X95480Y5800D02*
Y9800D01*
X120480Y181800D02*
Y188800D01*
X155048Y158368D02*
X155480Y158800D01*
X155048Y158368D02*
X155480Y157937D01*
Y136800D02*
Y157937D01*
D40*
X186480Y29800D02*
D03*
X15480Y51800D02*
D03*
X7480Y177800D02*
D03*
D41*
X176480Y29800D02*
D03*
X186480Y39800D02*
D03*
X176480D02*
D03*
X186480Y49800D02*
D03*
X176480D02*
D03*
X186480Y59800D02*
D03*
X176480D02*
D03*
X48480Y30800D02*
D03*
X38480D02*
D03*
X28480D02*
D03*
X48480Y9800D02*
D03*
X38480D02*
D03*
X28480D02*
D03*
X95480D02*
D03*
X85480D02*
D03*
X75480D02*
D03*
X52480Y138800D02*
D03*
X5480Y141800D02*
D03*
X15480D02*
D03*
X5480Y131800D02*
D03*
X15480D02*
D03*
X5480Y121800D02*
D03*
X15480D02*
D03*
X5480Y111800D02*
D03*
X15480D02*
D03*
X5480Y101800D02*
D03*
X15480D02*
D03*
X5480Y91800D02*
D03*
X15480D02*
D03*
X5480Y81800D02*
D03*
X15480D02*
D03*
X5480Y71800D02*
D03*
X15480D02*
D03*
X5480Y61800D02*
D03*
X15480D02*
D03*
X5480Y51800D02*
D03*
X7480Y167800D02*
D03*
X103480Y174800D02*
D03*
D42*
X178216Y174760D02*
D03*
Y157438D02*
D03*
D43*
X58480Y30800D02*
D03*
Y9800D02*
D03*
X105480D02*
D03*
X62480Y138800D02*
D03*
X113480Y174800D02*
D03*
D44*
X34480Y104800D02*
D03*
X97480Y162800D02*
D03*
X114480Y167800D02*
D03*
X119480Y125800D02*
D03*
X132480Y175800D02*
D03*
X59480Y165973D02*
D03*
X189380Y126900D02*
D03*
X181480Y127100D02*
D03*
X174280Y127000D02*
D03*
X167480Y119800D02*
D03*
Y126900D02*
D03*
X166480Y137800D02*
D03*
X150780Y22300D02*
D03*
X143380Y21800D02*
D03*
X120280Y58700D02*
D03*
X7580Y151900D02*
D03*
X7780Y160000D02*
D03*
X132480Y138800D02*
D03*
X143480Y87800D02*
D03*
X15480Y15800D02*
D03*
X93480Y105800D02*
D03*
X78480Y60800D02*
D03*
X133480Y71800D02*
D03*
X99480Y101800D02*
D03*
X85480Y34800D02*
D03*
X84480Y124800D02*
D03*
X157480Y64800D02*
D03*
X179480Y89800D02*
D03*
X68480Y120800D02*
D03*
X75480D02*
D03*
X153480Y114800D02*
D03*
X159480Y105800D02*
D03*
X170480Y110800D02*
D03*
X68480Y99800D02*
D03*
X71480Y52800D02*
D03*
X120480Y181800D02*
D03*
X160480Y160800D02*
D03*
X150480Y156800D02*
D03*
Y160800D02*
D03*
X147480Y156800D02*
D03*
Y160800D02*
D03*
X160480Y156800D02*
D03*
X56480Y186800D02*
D03*
X25480Y81800D02*
D03*
Y96800D02*
D03*
X156480Y189800D02*
D03*
X33929Y190800D02*
D03*
X108480Y124800D02*
D03*
X128480Y51800D02*
D03*
X126220Y148540D02*
D03*
X61480Y120800D02*
D03*
X79480Y34800D02*
D03*
X76480Y146800D02*
D03*
X66480Y129800D02*
D03*
X24480Y142800D02*
D03*
X32480D02*
D03*
X40480D02*
D03*
X24480Y126800D02*
D03*
X125480Y110800D02*
D03*
Y104800D02*
D03*
Y93800D02*
D03*
X155480Y136800D02*
D03*
X150480Y57800D02*
D03*
X55480Y159800D02*
D03*
X71480Y188800D02*
D03*
X144480Y156800D02*
D03*
M02*
